G04 #@! TF.GenerationSoftware,KiCad,Pcbnew,(5.1.6)-1*
G04 #@! TF.CreationDate,2020-12-27T23:26:00+09:00*
G04 #@! TF.ProjectId,VUMeterAmp,56554d65-7465-4724-916d-702e6b696361,rev?*
G04 #@! TF.SameCoordinates,Original*
G04 #@! TF.FileFunction,Soldermask,Bot*
G04 #@! TF.FilePolarity,Negative*
%FSLAX46Y46*%
G04 Gerber Fmt 4.6, Leading zero omitted, Abs format (unit mm)*
G04 Created by KiCad (PCBNEW (5.1.6)-1) date 2020-12-27 23:26:00*
%MOMM*%
%LPD*%
G01*
G04 APERTURE LIST*
%ADD10O,2.100000X1.800000*%
%ADD11C,3.300000*%
%ADD12O,1.800000X2.050000*%
%ADD13C,1.540000*%
%ADD14O,1.800000X1.800000*%
%ADD15R,1.800000X1.800000*%
%ADD16C,1.700000*%
%ADD17R,1.700000X1.700000*%
%ADD18C,0.900000*%
G04 APERTURE END LIST*
D10*
X104140000Y-113625000D03*
G36*
G01*
X103354706Y-110225000D02*
X104925294Y-110225000D01*
G75*
G02*
X105190000Y-110489706I0J-264706D01*
G01*
X105190000Y-111760294D01*
G75*
G02*
X104925294Y-112025000I-264706J0D01*
G01*
X103354706Y-112025000D01*
G75*
G02*
X103090000Y-111760294I0J264706D01*
G01*
X103090000Y-110489706D01*
G75*
G02*
X103354706Y-110225000I264706J0D01*
G01*
G37*
D11*
X164000000Y-117000000D03*
X104000000Y-104000000D03*
X122555000Y-134000000D03*
D10*
X104140000Y-123150000D03*
G36*
G01*
X103354706Y-119750000D02*
X104925294Y-119750000D01*
G75*
G02*
X105190000Y-120014706I0J-264706D01*
G01*
X105190000Y-121285294D01*
G75*
G02*
X104925294Y-121550000I-264706J0D01*
G01*
X103354706Y-121550000D01*
G75*
G02*
X103090000Y-121285294I0J264706D01*
G01*
X103090000Y-120014706D01*
G75*
G02*
X103354706Y-119750000I264706J0D01*
G01*
G37*
D12*
X127120000Y-127254000D03*
X129620000Y-127254000D03*
X132120000Y-127254000D03*
G36*
G01*
X135520000Y-126493706D02*
X135520000Y-128014294D01*
G75*
G02*
X135255294Y-128279000I-264706J0D01*
G01*
X133984706Y-128279000D01*
G75*
G02*
X133720000Y-128014294I0J264706D01*
G01*
X133720000Y-126493706D01*
G75*
G02*
X133984706Y-126229000I264706J0D01*
G01*
X135255294Y-126229000D01*
G75*
G02*
X135520000Y-126493706I0J-264706D01*
G01*
G37*
D13*
X110490000Y-133985000D03*
X113030000Y-133985000D03*
X115570000Y-133985000D03*
X154305000Y-129540000D03*
X154305000Y-127000000D03*
X154305000Y-124460000D03*
X169545000Y-129540000D03*
X169545000Y-127000000D03*
X169545000Y-124460000D03*
X141605000Y-132715000D03*
X144145000Y-132715000D03*
X146685000Y-132715000D03*
X141605000Y-126365000D03*
X144145000Y-126365000D03*
X146685000Y-126365000D03*
X121920000Y-118745000D03*
X121920000Y-116205000D03*
X121920000Y-113665000D03*
X137160000Y-118745000D03*
X137160000Y-116205000D03*
X137160000Y-113665000D03*
X181610000Y-132080000D03*
X179070000Y-132080000D03*
X176530000Y-132080000D03*
X181610000Y-125730000D03*
X179070000Y-125730000D03*
X176530000Y-125730000D03*
D14*
X105410000Y-128905000D03*
X102870000Y-128905000D03*
X105410000Y-131445000D03*
X102870000Y-131445000D03*
X105410000Y-133985000D03*
X102870000Y-133985000D03*
X105410000Y-136525000D03*
D15*
X102870000Y-136525000D03*
D12*
X129620000Y-135890000D03*
X132120000Y-135890000D03*
G36*
G01*
X135520000Y-135129706D02*
X135520000Y-136650294D01*
G75*
G02*
X135255294Y-136915000I-264706J0D01*
G01*
X133984706Y-136915000D01*
G75*
G02*
X133720000Y-136650294I0J264706D01*
G01*
X133720000Y-135129706D01*
G75*
G02*
X133984706Y-134865000I264706J0D01*
G01*
X135255294Y-134865000D01*
G75*
G02*
X135520000Y-135129706I0J-264706D01*
G01*
G37*
X144385000Y-104140000D03*
X146885000Y-104140000D03*
X149385000Y-104140000D03*
X151885000Y-104140000D03*
X154385000Y-104140000D03*
X156885000Y-104140000D03*
G36*
G01*
X160285000Y-103379706D02*
X160285000Y-104900294D01*
G75*
G02*
X160020294Y-105165000I-264706J0D01*
G01*
X158749706Y-105165000D01*
G75*
G02*
X158485000Y-104900294I0J264706D01*
G01*
X158485000Y-103379706D01*
G75*
G02*
X158749706Y-103115000I264706J0D01*
G01*
X160020294Y-103115000D01*
G75*
G02*
X160285000Y-103379706I0J-264706D01*
G01*
G37*
X167045000Y-104140000D03*
X169545000Y-104140000D03*
X172045000Y-104140000D03*
X174545000Y-104140000D03*
X177045000Y-104140000D03*
X179545000Y-104140000D03*
G36*
G01*
X182945000Y-103379706D02*
X182945000Y-104900294D01*
G75*
G02*
X182680294Y-105165000I-264706J0D01*
G01*
X181409706Y-105165000D01*
G75*
G02*
X181145000Y-104900294I0J264706D01*
G01*
X181145000Y-103379706D01*
G75*
G02*
X181409706Y-103115000I264706J0D01*
G01*
X182680294Y-103115000D01*
G75*
G02*
X182945000Y-103379706I0J-264706D01*
G01*
G37*
X132160000Y-104140000D03*
X134660000Y-104140000D03*
G36*
G01*
X138060000Y-103379706D02*
X138060000Y-104900294D01*
G75*
G02*
X137795294Y-105165000I-264706J0D01*
G01*
X136524706Y-105165000D01*
G75*
G02*
X136260000Y-104900294I0J264706D01*
G01*
X136260000Y-103379706D01*
G75*
G02*
X136524706Y-103115000I264706J0D01*
G01*
X137795294Y-103115000D01*
G75*
G02*
X138060000Y-103379706I0J-264706D01*
G01*
G37*
X120095000Y-104140000D03*
X122595000Y-104140000D03*
G36*
G01*
X125995000Y-103379706D02*
X125995000Y-104900294D01*
G75*
G02*
X125730294Y-105165000I-264706J0D01*
G01*
X124459706Y-105165000D01*
G75*
G02*
X124195000Y-104900294I0J264706D01*
G01*
X124195000Y-103379706D01*
G75*
G02*
X124459706Y-103115000I264706J0D01*
G01*
X125730294Y-103115000D01*
G75*
G02*
X125995000Y-103379706I0J-264706D01*
G01*
G37*
D16*
X113500000Y-106045000D03*
D17*
X111000000Y-106045000D03*
D18*
X132080000Y-137795000D03*
X132143500Y-129222500D03*
X127127000Y-129222500D03*
X119570500Y-124841000D03*
X115443000Y-129603500D03*
X108077000Y-122809000D03*
X115570000Y-122999500D03*
X129032000Y-118999000D03*
X132334000Y-122110500D03*
X126746000Y-110363000D03*
X123444000Y-110045500D03*
X122555000Y-106045000D03*
X128587500Y-104330500D03*
X134683500Y-105981500D03*
X130619500Y-110363000D03*
X142367000Y-135064500D03*
X154305000Y-135509000D03*
X145986500Y-123634500D03*
X142367000Y-121094500D03*
X147955000Y-106299000D03*
X150495000Y-106299000D03*
X153035000Y-106299000D03*
X155575000Y-106299000D03*
X158115000Y-106362500D03*
X147955000Y-116459000D03*
X153035000Y-116459000D03*
X150495000Y-116459000D03*
X155575000Y-116459000D03*
X159385000Y-117919500D03*
X170815000Y-106172000D03*
X173355000Y-106172000D03*
X175895000Y-106172000D03*
X178435000Y-106172000D03*
X180975000Y-106172000D03*
X170815000Y-116459000D03*
X173355000Y-116459000D03*
X175895000Y-116459000D03*
X178435000Y-116459000D03*
X180975000Y-116459000D03*
X177355500Y-120459500D03*
X160782000Y-133540500D03*
X163385500Y-133540500D03*
X162941000Y-121729500D03*
X175831500Y-135953500D03*
X165100000Y-138684000D03*
X105981500Y-119126000D03*
X101000000Y-110000000D03*
X110000000Y-138500000D03*
X120000000Y-138500000D03*
X130000000Y-138500000D03*
X180000000Y-138500000D03*
X184500000Y-130000000D03*
X184500000Y-120000000D03*
X184500000Y-110000000D03*
X110000000Y-101500000D03*
X120000000Y-101500000D03*
X140000000Y-101500000D03*
X150000000Y-101500000D03*
X160000000Y-101500000D03*
X170000000Y-101500000D03*
X180000000Y-101500000D03*
X152654000Y-125730000D03*
X141478000Y-111760000D03*
X125222000Y-119634000D03*
X146812000Y-120396000D03*
X169672000Y-120904000D03*
X173228000Y-129032000D03*
X150876000Y-128524000D03*
X116332000Y-107696000D03*
X116332000Y-104648000D03*
X107950000Y-112522000D03*
X107950000Y-109728000D03*
X110744000Y-119380000D03*
X115062000Y-119380000D03*
X130556000Y-114300000D03*
X166116000Y-123190000D03*
X134112000Y-123952000D03*
X157226000Y-129540000D03*
X164846000Y-110236000D03*
X128778000Y-116840000D03*
X137414000Y-110236000D03*
M02*
