M48
; DRILL file {KiCad (5.1.6)-1} date 12/27/20 23:26:12
; FORMAT={3:3/ absolute / metric / suppress leading zeros}
; #@! TF.CreationDate,2020-12-27T23:26:12+09:00
; #@! TF.GenerationSoftware,Kicad,Pcbnew,(5.1.6)-1
FMAT,2
METRIC,TZ
T1C0.400
T2C0.800
T3C0.950
T4C1.000
T5C3.200
%
G90
G05
T1
X101000Y-110000
X105982Y-119126
X107950Y-109728
X107950Y-112522
X108077Y-122809
X110000Y-101500
X110000Y-138500
X110744Y-119380
X115062Y-119380
X115443Y-129603
X115570Y-122999
X116332Y-104648
X116332Y-107696
X119571Y-124841
X120000Y-101500
X120000Y-138500
X122555Y-106045
X123444Y-110046
X125222Y-119634
X126746Y-110363
X127127Y-129223
X128588Y-104331
X128778Y-116840
X129032Y-118999
X130000Y-138500
X130556Y-114300
X130619Y-110363
X132080Y-137795
X132144Y-129223
X132334Y-122110
X134112Y-123952
X134684Y-105982
X137414Y-110236
X140000Y-101500
X141478Y-111760
X142367Y-121094
X142367Y-135064
X145987Y-123634
X146812Y-120396
X147955Y-106299
X147955Y-116459
X150000Y-101500
X150495Y-106299
X150495Y-116459
X150876Y-128524
X152654Y-125730
X153035Y-106299
X153035Y-116459
X154305Y-135509
X155575Y-106299
X155575Y-116459
X157226Y-129540
X158115Y-106363
X159385Y-117919
X160000Y-101500
X160782Y-133540
X162941Y-121730
X163385Y-133540
X164846Y-110236
X165100Y-138684
X166116Y-123190
X169672Y-120904
X170000Y-101500
X170815Y-106172
X170815Y-116459
X173228Y-129032
X173355Y-106172
X173355Y-116459
X175832Y-135954
X175895Y-106172
X175895Y-116459
X177356Y-120459
X178435Y-106172
X178435Y-116459
X180000Y-101500
X180000Y-138500
X180975Y-106172
X180975Y-116459
X184500Y-110000
X184500Y-120000
X184500Y-130000
T2
X137160Y-113665
X137160Y-116205
X137160Y-118745
X141605Y-132715
X144145Y-132715
X146685Y-132715
X176530Y-132080
X179070Y-132080
X181610Y-132080
X111000Y-106045
X113500Y-106045
X169545Y-124460
X169545Y-127000
X169545Y-129540
X110490Y-133985
X113030Y-133985
X115570Y-133985
X154305Y-124460
X154305Y-127000
X154305Y-129540
X176530Y-125730
X179070Y-125730
X181610Y-125730
X121920Y-113665
X121920Y-116205
X121920Y-118745
X141605Y-126365
X144145Y-126365
X146685Y-126365
T3
X129620Y-135890
X132120Y-135890
X134620Y-135890
X144385Y-104140
X146885Y-104140
X149385Y-104140
X151885Y-104140
X154385Y-104140
X156885Y-104140
X159385Y-104140
X132160Y-104140
X134660Y-104140
X137160Y-104140
X167045Y-104140
X169545Y-104140
X172045Y-104140
X174545Y-104140
X177045Y-104140
X179545Y-104140
X182045Y-104140
X127120Y-127254
X129620Y-127254
X132120Y-127254
X134620Y-127254
X120095Y-104140
X122595Y-104140
X125095Y-104140
T4
X104140Y-111125
X104140Y-113625
X104140Y-120650
X104140Y-123150
X102870Y-128905
X102870Y-131445
X102870Y-133985
X102870Y-136525
X105410Y-128905
X105410Y-131445
X105410Y-133985
X105410Y-136525
T5
X164000Y-117000
X104000Y-104000
X122555Y-134000
T0
M30
