G04 #@! TF.GenerationSoftware,KiCad,Pcbnew,(5.1.6)-1*
G04 #@! TF.CreationDate,2020-12-27T23:26:00+09:00*
G04 #@! TF.ProjectId,VUMeterAmp,56554d65-7465-4724-916d-702e6b696361,rev?*
G04 #@! TF.SameCoordinates,Original*
G04 #@! TF.FileFunction,Legend,Top*
G04 #@! TF.FilePolarity,Positive*
%FSLAX46Y46*%
G04 Gerber Fmt 4.6, Leading zero omitted, Abs format (unit mm)*
G04 Created by KiCad (PCBNEW (5.1.6)-1) date 2020-12-27 23:26:00*
%MOMM*%
%LPD*%
G01*
G04 APERTURE LIST*
%ADD10C,0.150000*%
%ADD11C,0.120000*%
%ADD12O,2.100000X1.800000*%
%ADD13C,3.300000*%
%ADD14O,1.800000X2.050000*%
%ADD15C,1.540000*%
%ADD16O,1.800000X1.800000*%
%ADD17R,1.800000X1.800000*%
%ADD18R,1.200000X1.200000*%
%ADD19C,1.700000*%
%ADD20R,1.700000X1.700000*%
%ADD21C,0.900000*%
G04 APERTURE END LIST*
D10*
X150122000Y-129365047D02*
X150074380Y-129460285D01*
X150074380Y-129603142D01*
X150122000Y-129746000D01*
X150217238Y-129841238D01*
X150312476Y-129888857D01*
X150502952Y-129936476D01*
X150645809Y-129936476D01*
X150836285Y-129888857D01*
X150931523Y-129841238D01*
X151026761Y-129746000D01*
X151074380Y-129603142D01*
X151074380Y-129507904D01*
X151026761Y-129365047D01*
X150979142Y-129317428D01*
X150645809Y-129317428D01*
X150645809Y-129507904D01*
X151074380Y-128460285D02*
X150550571Y-128460285D01*
X150455333Y-128507904D01*
X150407714Y-128603142D01*
X150407714Y-128793619D01*
X150455333Y-128888857D01*
X151026761Y-128460285D02*
X151074380Y-128555523D01*
X151074380Y-128793619D01*
X151026761Y-128888857D01*
X150931523Y-128936476D01*
X150836285Y-128936476D01*
X150741047Y-128888857D01*
X150693428Y-128793619D01*
X150693428Y-128555523D01*
X150645809Y-128460285D01*
X151074380Y-127984095D02*
X150407714Y-127984095D01*
X150074380Y-127984095D02*
X150122000Y-128031714D01*
X150169619Y-127984095D01*
X150122000Y-127936476D01*
X150074380Y-127984095D01*
X150169619Y-127984095D01*
X150407714Y-127507904D02*
X151074380Y-127507904D01*
X150502952Y-127507904D02*
X150455333Y-127460285D01*
X150407714Y-127365047D01*
X150407714Y-127222190D01*
X150455333Y-127126952D01*
X150550571Y-127079333D01*
X151074380Y-127079333D01*
X150788666Y-125888857D02*
X150788666Y-125412666D01*
X151074380Y-125984095D02*
X150074380Y-125650761D01*
X151074380Y-125317428D01*
X151074380Y-124555523D02*
X150074380Y-124555523D01*
X151026761Y-124555523D02*
X151074380Y-124650761D01*
X151074380Y-124841238D01*
X151026761Y-124936476D01*
X150979142Y-124984095D01*
X150883904Y-125031714D01*
X150598190Y-125031714D01*
X150502952Y-124984095D01*
X150455333Y-124936476D01*
X150407714Y-124841238D01*
X150407714Y-124650761D01*
X150455333Y-124555523D01*
X150407714Y-124079333D02*
X151264857Y-124079333D01*
X151360095Y-124126952D01*
X151407714Y-124222190D01*
X151407714Y-124269809D01*
X150074380Y-124079333D02*
X150122000Y-124126952D01*
X150169619Y-124079333D01*
X150122000Y-124031714D01*
X150074380Y-124079333D01*
X150169619Y-124079333D01*
X150979142Y-123603142D02*
X151026761Y-123555523D01*
X151074380Y-123603142D01*
X151026761Y-123650761D01*
X150979142Y-123603142D01*
X151074380Y-123603142D01*
D11*
X166624000Y-121158000D02*
X165608000Y-124968000D01*
X167132000Y-121158000D02*
X166624000Y-121158000D01*
X134112000Y-110236000D02*
X133096000Y-113538000D01*
X134620000Y-110236000D02*
X134112000Y-110236000D01*
D10*
X118999428Y-138882380D02*
X118999428Y-137882380D01*
X119332761Y-138596666D01*
X119666095Y-137882380D01*
X119666095Y-138882380D01*
X120523238Y-138834761D02*
X120428000Y-138882380D01*
X120237523Y-138882380D01*
X120142285Y-138834761D01*
X120094666Y-138739523D01*
X120094666Y-138358571D01*
X120142285Y-138263333D01*
X120237523Y-138215714D01*
X120428000Y-138215714D01*
X120523238Y-138263333D01*
X120570857Y-138358571D01*
X120570857Y-138453809D01*
X120094666Y-138549047D01*
X120856571Y-138215714D02*
X121237523Y-138215714D01*
X120999428Y-137882380D02*
X120999428Y-138739523D01*
X121047047Y-138834761D01*
X121142285Y-138882380D01*
X121237523Y-138882380D01*
X121951809Y-138834761D02*
X121856571Y-138882380D01*
X121666095Y-138882380D01*
X121570857Y-138834761D01*
X121523238Y-138739523D01*
X121523238Y-138358571D01*
X121570857Y-138263333D01*
X121666095Y-138215714D01*
X121856571Y-138215714D01*
X121951809Y-138263333D01*
X121999428Y-138358571D01*
X121999428Y-138453809D01*
X121523238Y-138549047D01*
X122428000Y-138882380D02*
X122428000Y-138215714D01*
X122428000Y-138406190D02*
X122475619Y-138310952D01*
X122523238Y-138263333D01*
X122618476Y-138215714D01*
X122713714Y-138215714D01*
X123999428Y-137882380D02*
X124189904Y-137882380D01*
X124285142Y-137930000D01*
X124380380Y-138025238D01*
X124428000Y-138215714D01*
X124428000Y-138549047D01*
X124380380Y-138739523D01*
X124285142Y-138834761D01*
X124189904Y-138882380D01*
X123999428Y-138882380D01*
X123904190Y-138834761D01*
X123808952Y-138739523D01*
X123761333Y-138549047D01*
X123761333Y-138215714D01*
X123808952Y-138025238D01*
X123904190Y-137930000D01*
X123999428Y-137882380D01*
X125285142Y-138215714D02*
X125285142Y-138882380D01*
X124856571Y-138215714D02*
X124856571Y-138739523D01*
X124904190Y-138834761D01*
X124999428Y-138882380D01*
X125142285Y-138882380D01*
X125237523Y-138834761D01*
X125285142Y-138787142D01*
X125618476Y-138215714D02*
X125999428Y-138215714D01*
X125761333Y-137882380D02*
X125761333Y-138739523D01*
X125808952Y-138834761D01*
X125904190Y-138882380D01*
X125999428Y-138882380D01*
X122055380Y-128388857D02*
X121055380Y-128388857D01*
X121388714Y-127912666D02*
X122055380Y-127912666D01*
X121483952Y-127912666D02*
X121436333Y-127865047D01*
X121388714Y-127769809D01*
X121388714Y-127626952D01*
X121436333Y-127531714D01*
X121531571Y-127484095D01*
X122055380Y-127484095D01*
X121388714Y-127007904D02*
X122388714Y-127007904D01*
X121436333Y-127007904D02*
X121388714Y-126912666D01*
X121388714Y-126722190D01*
X121436333Y-126626952D01*
X121483952Y-126579333D01*
X121579190Y-126531714D01*
X121864904Y-126531714D01*
X121960142Y-126579333D01*
X122007761Y-126626952D01*
X122055380Y-126722190D01*
X122055380Y-126912666D01*
X122007761Y-127007904D01*
X121388714Y-125674571D02*
X122055380Y-125674571D01*
X121388714Y-126103142D02*
X121912523Y-126103142D01*
X122007761Y-126055523D01*
X122055380Y-125960285D01*
X122055380Y-125817428D01*
X122007761Y-125722190D01*
X121960142Y-125674571D01*
X121388714Y-125341238D02*
X121388714Y-124960285D01*
X121055380Y-125198380D02*
X121912523Y-125198380D01*
X122007761Y-125150761D01*
X122055380Y-125055523D01*
X122055380Y-124960285D01*
X123705380Y-129484095D02*
X123705380Y-129960285D01*
X122705380Y-129960285D01*
X123657761Y-128769809D02*
X123705380Y-128865047D01*
X123705380Y-129055523D01*
X123657761Y-129150761D01*
X123562523Y-129198380D01*
X123181571Y-129198380D01*
X123086333Y-129150761D01*
X123038714Y-129055523D01*
X123038714Y-128865047D01*
X123086333Y-128769809D01*
X123181571Y-128722190D01*
X123276809Y-128722190D01*
X123372047Y-129198380D01*
X123038714Y-128388857D02*
X123705380Y-128150761D01*
X123038714Y-127912666D01*
X123657761Y-127150761D02*
X123705380Y-127246000D01*
X123705380Y-127436476D01*
X123657761Y-127531714D01*
X123562523Y-127579333D01*
X123181571Y-127579333D01*
X123086333Y-127531714D01*
X123038714Y-127436476D01*
X123038714Y-127246000D01*
X123086333Y-127150761D01*
X123181571Y-127103142D01*
X123276809Y-127103142D01*
X123372047Y-127579333D01*
X123705380Y-126531714D02*
X123657761Y-126626952D01*
X123562523Y-126674571D01*
X122705380Y-126674571D01*
X123657761Y-125436476D02*
X123705380Y-125293619D01*
X123705380Y-125055523D01*
X123657761Y-124960285D01*
X123610142Y-124912666D01*
X123514904Y-124865047D01*
X123419666Y-124865047D01*
X123324428Y-124912666D01*
X123276809Y-124960285D01*
X123229190Y-125055523D01*
X123181571Y-125246000D01*
X123133952Y-125341238D01*
X123086333Y-125388857D01*
X122991095Y-125436476D01*
X122895857Y-125436476D01*
X122800619Y-125388857D01*
X122753000Y-125341238D01*
X122705380Y-125246000D01*
X122705380Y-125007904D01*
X122753000Y-124865047D01*
X123657761Y-124055523D02*
X123705380Y-124150761D01*
X123705380Y-124341238D01*
X123657761Y-124436476D01*
X123562523Y-124484095D01*
X123181571Y-124484095D01*
X123086333Y-124436476D01*
X123038714Y-124341238D01*
X123038714Y-124150761D01*
X123086333Y-124055523D01*
X123181571Y-124007904D01*
X123276809Y-124007904D01*
X123372047Y-124484095D01*
X123705380Y-123436476D02*
X123657761Y-123531714D01*
X123562523Y-123579333D01*
X122705380Y-123579333D01*
X140676761Y-138628380D02*
X140343428Y-138152190D01*
X140105333Y-138628380D02*
X140105333Y-137628380D01*
X140486285Y-137628380D01*
X140581523Y-137676000D01*
X140629142Y-137723619D01*
X140676761Y-137818857D01*
X140676761Y-137961714D01*
X140629142Y-138056952D01*
X140581523Y-138104571D01*
X140486285Y-138152190D01*
X140105333Y-138152190D01*
X141676761Y-138533142D02*
X141629142Y-138580761D01*
X141486285Y-138628380D01*
X141391047Y-138628380D01*
X141248190Y-138580761D01*
X141152952Y-138485523D01*
X141105333Y-138390285D01*
X141057714Y-138199809D01*
X141057714Y-138056952D01*
X141105333Y-137866476D01*
X141152952Y-137771238D01*
X141248190Y-137676000D01*
X141391047Y-137628380D01*
X141486285Y-137628380D01*
X141629142Y-137676000D01*
X141676761Y-137723619D01*
X142105333Y-138628380D02*
X142105333Y-137628380D01*
X142533904Y-138628380D02*
X142533904Y-138104571D01*
X142486285Y-138009333D01*
X142391047Y-137961714D01*
X142248190Y-137961714D01*
X142152952Y-138009333D01*
X142105333Y-138056952D01*
X144248190Y-138628380D02*
X143772000Y-138628380D01*
X143772000Y-137628380D01*
X144581523Y-138628380D02*
X144581523Y-137961714D01*
X144581523Y-137628380D02*
X144533904Y-137676000D01*
X144581523Y-137723619D01*
X144629142Y-137676000D01*
X144581523Y-137628380D01*
X144581523Y-137723619D01*
X145057714Y-138628380D02*
X145057714Y-137961714D01*
X145057714Y-138056952D02*
X145105333Y-138009333D01*
X145200571Y-137961714D01*
X145343428Y-137961714D01*
X145438666Y-138009333D01*
X145486285Y-138104571D01*
X145486285Y-138628380D01*
X145486285Y-138104571D02*
X145533904Y-138009333D01*
X145629142Y-137961714D01*
X145772000Y-137961714D01*
X145867238Y-138009333D01*
X145914857Y-138104571D01*
X145914857Y-138628380D01*
X146391047Y-138628380D02*
X146391047Y-137961714D01*
X146391047Y-137628380D02*
X146343428Y-137676000D01*
X146391047Y-137723619D01*
X146438666Y-137676000D01*
X146391047Y-137628380D01*
X146391047Y-137723619D01*
X146724380Y-137961714D02*
X147105333Y-137961714D01*
X146867238Y-137628380D02*
X146867238Y-138485523D01*
X146914857Y-138580761D01*
X147010095Y-138628380D01*
X147105333Y-138628380D01*
X147819619Y-138580761D02*
X147724380Y-138628380D01*
X147533904Y-138628380D01*
X147438666Y-138580761D01*
X147391047Y-138485523D01*
X147391047Y-138104571D01*
X147438666Y-138009333D01*
X147533904Y-137961714D01*
X147724380Y-137961714D01*
X147819619Y-138009333D01*
X147867238Y-138104571D01*
X147867238Y-138199809D01*
X147391047Y-138295047D01*
X148295809Y-138628380D02*
X148295809Y-137961714D01*
X148295809Y-138152190D02*
X148343428Y-138056952D01*
X148391047Y-138009333D01*
X148486285Y-137961714D01*
X148581523Y-137961714D01*
X175474761Y-138374380D02*
X174998571Y-138374380D01*
X174998571Y-137374380D01*
X176379523Y-138279142D02*
X176331904Y-138326761D01*
X176189047Y-138374380D01*
X176093809Y-138374380D01*
X175950952Y-138326761D01*
X175855714Y-138231523D01*
X175808095Y-138136285D01*
X175760476Y-137945809D01*
X175760476Y-137802952D01*
X175808095Y-137612476D01*
X175855714Y-137517238D01*
X175950952Y-137422000D01*
X176093809Y-137374380D01*
X176189047Y-137374380D01*
X176331904Y-137422000D01*
X176379523Y-137469619D01*
X176808095Y-138374380D02*
X176808095Y-137374380D01*
X177236666Y-138374380D02*
X177236666Y-137850571D01*
X177189047Y-137755333D01*
X177093809Y-137707714D01*
X176950952Y-137707714D01*
X176855714Y-137755333D01*
X176808095Y-137802952D01*
X178950952Y-138374380D02*
X178474761Y-138374380D01*
X178474761Y-137374380D01*
X179284285Y-138374380D02*
X179284285Y-137707714D01*
X179284285Y-137374380D02*
X179236666Y-137422000D01*
X179284285Y-137469619D01*
X179331904Y-137422000D01*
X179284285Y-137374380D01*
X179284285Y-137469619D01*
X179760476Y-138374380D02*
X179760476Y-137707714D01*
X179760476Y-137802952D02*
X179808095Y-137755333D01*
X179903333Y-137707714D01*
X180046190Y-137707714D01*
X180141428Y-137755333D01*
X180189047Y-137850571D01*
X180189047Y-138374380D01*
X180189047Y-137850571D02*
X180236666Y-137755333D01*
X180331904Y-137707714D01*
X180474761Y-137707714D01*
X180570000Y-137755333D01*
X180617619Y-137850571D01*
X180617619Y-138374380D01*
X181093809Y-138374380D02*
X181093809Y-137707714D01*
X181093809Y-137374380D02*
X181046190Y-137422000D01*
X181093809Y-137469619D01*
X181141428Y-137422000D01*
X181093809Y-137374380D01*
X181093809Y-137469619D01*
X181427142Y-137707714D02*
X181808095Y-137707714D01*
X181570000Y-137374380D02*
X181570000Y-138231523D01*
X181617619Y-138326761D01*
X181712857Y-138374380D01*
X181808095Y-138374380D01*
X182522380Y-138326761D02*
X182427142Y-138374380D01*
X182236666Y-138374380D01*
X182141428Y-138326761D01*
X182093809Y-138231523D01*
X182093809Y-137850571D01*
X182141428Y-137755333D01*
X182236666Y-137707714D01*
X182427142Y-137707714D01*
X182522380Y-137755333D01*
X182570000Y-137850571D01*
X182570000Y-137945809D01*
X182093809Y-138041047D01*
X182998571Y-138374380D02*
X182998571Y-137707714D01*
X182998571Y-137898190D02*
X183046190Y-137802952D01*
X183093809Y-137755333D01*
X183189047Y-137707714D01*
X183284285Y-137707714D01*
X133120000Y-107402380D02*
X133691428Y-107402380D01*
X133405714Y-108402380D02*
X133405714Y-107402380D01*
X134024761Y-108402380D02*
X134024761Y-107402380D01*
X134453333Y-108402380D02*
X134453333Y-107878571D01*
X134405714Y-107783333D01*
X134310476Y-107735714D01*
X134167619Y-107735714D01*
X134072380Y-107783333D01*
X134024761Y-107830952D01*
X134929523Y-108402380D02*
X134929523Y-107735714D01*
X134929523Y-107926190D02*
X134977142Y-107830952D01*
X135024761Y-107783333D01*
X135120000Y-107735714D01*
X135215238Y-107735714D01*
X135977142Y-107735714D02*
X135977142Y-108402380D01*
X135548571Y-107735714D02*
X135548571Y-108259523D01*
X135596190Y-108354761D01*
X135691428Y-108402380D01*
X135834285Y-108402380D01*
X135929523Y-108354761D01*
X135977142Y-108307142D01*
X117229142Y-108402380D02*
X117229142Y-107402380D01*
X117705333Y-107735714D02*
X117705333Y-108402380D01*
X117705333Y-107830952D02*
X117752952Y-107783333D01*
X117848190Y-107735714D01*
X117991047Y-107735714D01*
X118086285Y-107783333D01*
X118133904Y-107878571D01*
X118133904Y-108402380D01*
X118610095Y-107735714D02*
X118610095Y-108735714D01*
X118610095Y-107783333D02*
X118705333Y-107735714D01*
X118895809Y-107735714D01*
X118991047Y-107783333D01*
X119038666Y-107830952D01*
X119086285Y-107926190D01*
X119086285Y-108211904D01*
X119038666Y-108307142D01*
X118991047Y-108354761D01*
X118895809Y-108402380D01*
X118705333Y-108402380D01*
X118610095Y-108354761D01*
X119943428Y-107735714D02*
X119943428Y-108402380D01*
X119514857Y-107735714D02*
X119514857Y-108259523D01*
X119562476Y-108354761D01*
X119657714Y-108402380D01*
X119800571Y-108402380D01*
X119895809Y-108354761D01*
X119943428Y-108307142D01*
X120276761Y-107735714D02*
X120657714Y-107735714D01*
X120419619Y-107402380D02*
X120419619Y-108259523D01*
X120467238Y-108354761D01*
X120562476Y-108402380D01*
X120657714Y-108402380D01*
X109926857Y-137723571D02*
X110069714Y-137771190D01*
X110117333Y-137818809D01*
X110164952Y-137914047D01*
X110164952Y-138056904D01*
X110117333Y-138152142D01*
X110069714Y-138199761D01*
X109974476Y-138247380D01*
X109593523Y-138247380D01*
X109593523Y-137247380D01*
X109926857Y-137247380D01*
X110022095Y-137295000D01*
X110069714Y-137342619D01*
X110117333Y-137437857D01*
X110117333Y-137533095D01*
X110069714Y-137628333D01*
X110022095Y-137675952D01*
X109926857Y-137723571D01*
X109593523Y-137723571D01*
X110593523Y-138247380D02*
X110593523Y-137580714D01*
X110593523Y-137771190D02*
X110641142Y-137675952D01*
X110688761Y-137628333D01*
X110784000Y-137580714D01*
X110879238Y-137580714D01*
X111212571Y-138247380D02*
X111212571Y-137580714D01*
X111212571Y-137247380D02*
X111164952Y-137295000D01*
X111212571Y-137342619D01*
X111260190Y-137295000D01*
X111212571Y-137247380D01*
X111212571Y-137342619D01*
X112117333Y-137580714D02*
X112117333Y-138390238D01*
X112069714Y-138485476D01*
X112022095Y-138533095D01*
X111926857Y-138580714D01*
X111784000Y-138580714D01*
X111688761Y-138533095D01*
X112117333Y-138199761D02*
X112022095Y-138247380D01*
X111831619Y-138247380D01*
X111736380Y-138199761D01*
X111688761Y-138152142D01*
X111641142Y-138056904D01*
X111641142Y-137771190D01*
X111688761Y-137675952D01*
X111736380Y-137628333D01*
X111831619Y-137580714D01*
X112022095Y-137580714D01*
X112117333Y-137628333D01*
X112593523Y-138247380D02*
X112593523Y-137247380D01*
X113022095Y-138247380D02*
X113022095Y-137723571D01*
X112974476Y-137628333D01*
X112879238Y-137580714D01*
X112736380Y-137580714D01*
X112641142Y-137628333D01*
X112593523Y-137675952D01*
X113355428Y-137580714D02*
X113736380Y-137580714D01*
X113498285Y-137247380D02*
X113498285Y-138104523D01*
X113545904Y-138199761D01*
X113641142Y-138247380D01*
X113736380Y-138247380D01*
X114069714Y-137580714D02*
X114069714Y-138247380D01*
X114069714Y-137675952D02*
X114117333Y-137628333D01*
X114212571Y-137580714D01*
X114355428Y-137580714D01*
X114450666Y-137628333D01*
X114498285Y-137723571D01*
X114498285Y-138247380D01*
X115355428Y-138199761D02*
X115260190Y-138247380D01*
X115069714Y-138247380D01*
X114974476Y-138199761D01*
X114926857Y-138104523D01*
X114926857Y-137723571D01*
X114974476Y-137628333D01*
X115069714Y-137580714D01*
X115260190Y-137580714D01*
X115355428Y-137628333D01*
X115403047Y-137723571D01*
X115403047Y-137818809D01*
X114926857Y-137914047D01*
X115784000Y-138199761D02*
X115879238Y-138247380D01*
X116069714Y-138247380D01*
X116164952Y-138199761D01*
X116212571Y-138104523D01*
X116212571Y-138056904D01*
X116164952Y-137961666D01*
X116069714Y-137914047D01*
X115926857Y-137914047D01*
X115831619Y-137866428D01*
X115784000Y-137771190D01*
X115784000Y-137723571D01*
X115831619Y-137628333D01*
X115926857Y-137580714D01*
X116069714Y-137580714D01*
X116164952Y-137628333D01*
X116593523Y-138199761D02*
X116688761Y-138247380D01*
X116879238Y-138247380D01*
X116974476Y-138199761D01*
X117022095Y-138104523D01*
X117022095Y-138056904D01*
X116974476Y-137961666D01*
X116879238Y-137914047D01*
X116736380Y-137914047D01*
X116641142Y-137866428D01*
X116593523Y-137771190D01*
X116593523Y-137723571D01*
X116641142Y-137628333D01*
X116736380Y-137580714D01*
X116879238Y-137580714D01*
X116974476Y-137628333D01*
D11*
X106890000Y-108275000D02*
X105640000Y-108275000D01*
X106890000Y-109525000D02*
X106890000Y-108275000D01*
X101390000Y-115425000D02*
X101390000Y-112375000D01*
X104340000Y-115425000D02*
X101390000Y-115425000D01*
X104340000Y-116175000D02*
X104340000Y-115425000D01*
X101390000Y-109325000D02*
X101390000Y-112375000D01*
X104340000Y-109325000D02*
X101390000Y-109325000D01*
X104340000Y-108575000D02*
X104340000Y-109325000D01*
X106590000Y-116175000D02*
X106590000Y-114375000D01*
X105840000Y-116175000D02*
X106590000Y-116175000D01*
X105840000Y-114375000D02*
X105840000Y-116175000D01*
X106590000Y-114375000D02*
X105840000Y-114375000D01*
X106590000Y-110375000D02*
X106590000Y-108575000D01*
X105840000Y-110375000D02*
X106590000Y-110375000D01*
X105840000Y-108575000D02*
X105840000Y-110375000D01*
X106590000Y-108575000D02*
X105840000Y-108575000D01*
X106590000Y-112875000D02*
X106590000Y-111875000D01*
X105840000Y-112875000D02*
X106590000Y-112875000D01*
X105840000Y-111875000D02*
X105840000Y-112875000D01*
X106590000Y-111875000D02*
X105840000Y-111875000D01*
X106600000Y-116185000D02*
X106600000Y-108565000D01*
X100630000Y-116185000D02*
X106600000Y-116185000D01*
X100630000Y-108565000D02*
X100630000Y-116185000D01*
X106600000Y-108565000D02*
X100630000Y-108565000D01*
X116225000Y-123825000D02*
X116225000Y-120375000D01*
X116225000Y-123825000D02*
X116225000Y-125775000D01*
X111105000Y-123825000D02*
X111105000Y-121875000D01*
X111105000Y-123825000D02*
X111105000Y-125775000D01*
X161925000Y-130195000D02*
X165375000Y-130195000D01*
X161925000Y-130195000D02*
X159975000Y-130195000D01*
X161925000Y-125075000D02*
X163875000Y-125075000D01*
X161925000Y-125075000D02*
X159975000Y-125075000D01*
X129540000Y-118765000D02*
X132990000Y-118765000D01*
X129540000Y-118765000D02*
X127590000Y-118765000D01*
X129540000Y-113645000D02*
X131490000Y-113645000D01*
X129540000Y-113645000D02*
X127590000Y-113645000D01*
X106890000Y-117800000D02*
X105640000Y-117800000D01*
X106890000Y-119050000D02*
X106890000Y-117800000D01*
X101390000Y-124950000D02*
X101390000Y-121900000D01*
X104340000Y-124950000D02*
X101390000Y-124950000D01*
X104340000Y-125700000D02*
X104340000Y-124950000D01*
X101390000Y-118850000D02*
X101390000Y-121900000D01*
X104340000Y-118850000D02*
X101390000Y-118850000D01*
X104340000Y-118100000D02*
X104340000Y-118850000D01*
X106590000Y-125700000D02*
X106590000Y-123900000D01*
X105840000Y-125700000D02*
X106590000Y-125700000D01*
X105840000Y-123900000D02*
X105840000Y-125700000D01*
X106590000Y-123900000D02*
X105840000Y-123900000D01*
X106590000Y-119900000D02*
X106590000Y-118100000D01*
X105840000Y-119900000D02*
X106590000Y-119900000D01*
X105840000Y-118100000D02*
X105840000Y-119900000D01*
X106590000Y-118100000D02*
X105840000Y-118100000D01*
X106590000Y-122400000D02*
X106590000Y-121400000D01*
X105840000Y-122400000D02*
X106590000Y-122400000D01*
X105840000Y-121400000D02*
X105840000Y-122400000D01*
X106590000Y-121400000D02*
X105840000Y-121400000D01*
X106600000Y-125710000D02*
X106600000Y-118090000D01*
X100630000Y-125710000D02*
X106600000Y-125710000D01*
X100630000Y-118090000D02*
X100630000Y-125710000D01*
X106600000Y-118090000D02*
X100630000Y-118090000D01*
X137470000Y-130004000D02*
X137470000Y-128754000D01*
X136220000Y-130004000D02*
X137470000Y-130004000D01*
X125320000Y-124504000D02*
X130870000Y-124504000D01*
X125320000Y-127454000D02*
X125320000Y-124504000D01*
X124570000Y-127454000D02*
X125320000Y-127454000D01*
X136420000Y-124504000D02*
X130870000Y-124504000D01*
X136420000Y-127454000D02*
X136420000Y-124504000D01*
X137170000Y-127454000D02*
X136420000Y-127454000D01*
X124570000Y-129704000D02*
X126370000Y-129704000D01*
X124570000Y-128954000D02*
X124570000Y-129704000D01*
X126370000Y-128954000D02*
X124570000Y-128954000D01*
X126370000Y-129704000D02*
X126370000Y-128954000D01*
X135370000Y-129704000D02*
X137170000Y-129704000D01*
X135370000Y-128954000D02*
X135370000Y-129704000D01*
X137170000Y-128954000D02*
X135370000Y-128954000D01*
X137170000Y-129704000D02*
X137170000Y-128954000D01*
X127870000Y-129704000D02*
X133870000Y-129704000D01*
X127870000Y-128954000D02*
X127870000Y-129704000D01*
X133870000Y-128954000D02*
X127870000Y-128954000D01*
X133870000Y-129704000D02*
X133870000Y-128954000D01*
X124560000Y-129714000D02*
X137180000Y-129714000D01*
X124560000Y-123744000D02*
X124560000Y-129714000D01*
X137180000Y-123744000D02*
X124560000Y-123744000D01*
X137180000Y-129714000D02*
X137180000Y-123744000D01*
X117915000Y-131455000D02*
X117915000Y-136525000D01*
X108145000Y-131455000D02*
X108145000Y-136525000D01*
X108145000Y-136525000D02*
X117915000Y-136525000D01*
X108145000Y-131455000D02*
X117915000Y-131455000D01*
X151775000Y-122115000D02*
X156845000Y-122115000D01*
X151775000Y-131885000D02*
X156845000Y-131885000D01*
X156845000Y-131885000D02*
X156845000Y-122115000D01*
X151775000Y-131885000D02*
X151775000Y-122115000D01*
X167015000Y-122115000D02*
X172085000Y-122115000D01*
X167015000Y-131885000D02*
X172085000Y-131885000D01*
X172085000Y-131885000D02*
X172085000Y-122115000D01*
X167015000Y-131885000D02*
X167015000Y-122115000D01*
X149030000Y-130185000D02*
X149030000Y-135255000D01*
X139260000Y-130185000D02*
X139260000Y-135255000D01*
X139260000Y-135255000D02*
X149030000Y-135255000D01*
X139260000Y-130185000D02*
X149030000Y-130185000D01*
X149030000Y-123835000D02*
X149030000Y-128905000D01*
X139260000Y-123835000D02*
X139260000Y-128905000D01*
X139260000Y-128905000D02*
X149030000Y-128905000D01*
X139260000Y-123835000D02*
X149030000Y-123835000D01*
X119390000Y-111320000D02*
X124460000Y-111320000D01*
X119390000Y-121090000D02*
X124460000Y-121090000D01*
X124460000Y-121090000D02*
X124460000Y-111320000D01*
X119390000Y-121090000D02*
X119390000Y-111320000D01*
X134630000Y-111320000D02*
X139700000Y-111320000D01*
X134630000Y-121090000D02*
X139700000Y-121090000D01*
X139700000Y-121090000D02*
X139700000Y-111320000D01*
X134630000Y-121090000D02*
X134630000Y-111320000D01*
X174185000Y-134610000D02*
X174185000Y-129540000D01*
X183955000Y-134610000D02*
X183955000Y-129540000D01*
X183955000Y-129540000D02*
X174185000Y-129540000D01*
X183955000Y-134610000D02*
X174185000Y-134610000D01*
X174185000Y-128260000D02*
X174185000Y-123190000D01*
X183955000Y-128260000D02*
X183955000Y-123190000D01*
X183955000Y-123190000D02*
X174185000Y-123190000D01*
X183955000Y-128260000D02*
X174185000Y-128260000D01*
X114763733Y-118620000D02*
X115106267Y-118620000D01*
X114763733Y-117600000D02*
X115106267Y-117600000D01*
X110953733Y-118620000D02*
X111296267Y-118620000D01*
X110953733Y-117600000D02*
X111296267Y-117600000D01*
X161165000Y-136696267D02*
X161165000Y-136353733D01*
X160145000Y-136696267D02*
X160145000Y-136353733D01*
X164340000Y-136696267D02*
X164340000Y-136353733D01*
X163320000Y-136696267D02*
X163320000Y-136353733D01*
X159848733Y-123700000D02*
X160191267Y-123700000D01*
X159848733Y-122680000D02*
X160191267Y-122680000D01*
X164001267Y-131570000D02*
X163658733Y-131570000D01*
X164001267Y-132590000D02*
X163658733Y-132590000D01*
X159895000Y-115741267D02*
X159895000Y-115398733D01*
X158875000Y-115741267D02*
X158875000Y-115398733D01*
X157355000Y-115741267D02*
X157355000Y-115398733D01*
X156335000Y-115741267D02*
X156335000Y-115398733D01*
X154815000Y-115741267D02*
X154815000Y-115398733D01*
X153795000Y-115741267D02*
X153795000Y-115398733D01*
X152275000Y-115741267D02*
X152275000Y-115398733D01*
X151255000Y-115741267D02*
X151255000Y-115398733D01*
X149735000Y-115741267D02*
X149735000Y-115398733D01*
X148715000Y-115741267D02*
X148715000Y-115398733D01*
X147195000Y-115741267D02*
X147195000Y-115398733D01*
X146175000Y-115741267D02*
X146175000Y-115398733D01*
X182755000Y-115741267D02*
X182755000Y-115398733D01*
X181735000Y-115741267D02*
X181735000Y-115398733D01*
X180215000Y-115741267D02*
X180215000Y-115398733D01*
X179195000Y-115741267D02*
X179195000Y-115398733D01*
X177675000Y-115741267D02*
X177675000Y-115398733D01*
X176655000Y-115741267D02*
X176655000Y-115398733D01*
X175135000Y-115741267D02*
X175135000Y-115398733D01*
X174115000Y-115741267D02*
X174115000Y-115398733D01*
X172595000Y-115741267D02*
X172595000Y-115398733D01*
X171575000Y-115741267D02*
X171575000Y-115398733D01*
X170055000Y-115741267D02*
X170055000Y-115398733D01*
X169035000Y-115741267D02*
X169035000Y-115398733D01*
X159895000Y-109391267D02*
X159895000Y-109048733D01*
X158875000Y-109391267D02*
X158875000Y-109048733D01*
X157355000Y-109391267D02*
X157355000Y-109048733D01*
X156335000Y-109391267D02*
X156335000Y-109048733D01*
X154815000Y-109391267D02*
X154815000Y-109048733D01*
X153795000Y-109391267D02*
X153795000Y-109048733D01*
X152275000Y-109391267D02*
X152275000Y-109048733D01*
X151255000Y-109391267D02*
X151255000Y-109048733D01*
X149735000Y-109391267D02*
X149735000Y-109048733D01*
X148715000Y-109391267D02*
X148715000Y-109048733D01*
X147195000Y-109391267D02*
X147195000Y-109048733D01*
X146175000Y-109391267D02*
X146175000Y-109048733D01*
X182755000Y-109391267D02*
X182755000Y-109048733D01*
X181735000Y-109391267D02*
X181735000Y-109048733D01*
X180215000Y-109391267D02*
X180215000Y-109048733D01*
X179195000Y-109391267D02*
X179195000Y-109048733D01*
X177675000Y-109391267D02*
X177675000Y-109048733D01*
X176655000Y-109391267D02*
X176655000Y-109048733D01*
X175135000Y-109391267D02*
X175135000Y-109048733D01*
X174115000Y-109391267D02*
X174115000Y-109048733D01*
X172595000Y-109391267D02*
X172595000Y-109048733D01*
X171575000Y-109391267D02*
X171575000Y-109048733D01*
X170055000Y-109391267D02*
X170055000Y-109048733D01*
X169035000Y-109391267D02*
X169035000Y-109048733D01*
X143635000Y-109048733D02*
X143635000Y-109391267D01*
X144655000Y-109048733D02*
X144655000Y-109391267D01*
X166495000Y-109048733D02*
X166495000Y-109391267D01*
X167515000Y-109048733D02*
X167515000Y-109391267D01*
X122383733Y-109095000D02*
X122726267Y-109095000D01*
X122383733Y-108075000D02*
X122726267Y-108075000D01*
X126536267Y-108075000D02*
X126193733Y-108075000D01*
X126536267Y-109095000D02*
X126193733Y-109095000D01*
X102870000Y-137855000D02*
X101540000Y-137855000D01*
X101540000Y-137855000D02*
X101540000Y-136525000D01*
X104140000Y-137855000D02*
X104140000Y-135255000D01*
X104140000Y-135255000D02*
X101540000Y-135255000D01*
X101540000Y-135255000D02*
X101540000Y-127575000D01*
X106740000Y-127575000D02*
X101540000Y-127575000D01*
X106740000Y-137855000D02*
X106740000Y-127575000D01*
X106740000Y-137855000D02*
X104140000Y-137855000D01*
X137470000Y-138640000D02*
X137470000Y-137390000D01*
X136220000Y-138640000D02*
X137470000Y-138640000D01*
X127820000Y-133140000D02*
X132120000Y-133140000D01*
X127820000Y-136090000D02*
X127820000Y-133140000D01*
X127070000Y-136090000D02*
X127820000Y-136090000D01*
X136420000Y-133140000D02*
X132120000Y-133140000D01*
X136420000Y-136090000D02*
X136420000Y-133140000D01*
X137170000Y-136090000D02*
X136420000Y-136090000D01*
X127070000Y-138340000D02*
X128870000Y-138340000D01*
X127070000Y-137590000D02*
X127070000Y-138340000D01*
X128870000Y-137590000D02*
X127070000Y-137590000D01*
X128870000Y-138340000D02*
X128870000Y-137590000D01*
X135370000Y-138340000D02*
X137170000Y-138340000D01*
X135370000Y-137590000D02*
X135370000Y-138340000D01*
X137170000Y-137590000D02*
X135370000Y-137590000D01*
X137170000Y-138340000D02*
X137170000Y-137590000D01*
X130370000Y-138340000D02*
X133870000Y-138340000D01*
X130370000Y-137590000D02*
X130370000Y-138340000D01*
X133870000Y-137590000D02*
X130370000Y-137590000D01*
X133870000Y-138340000D02*
X133870000Y-137590000D01*
X127060000Y-138350000D02*
X137180000Y-138350000D01*
X127060000Y-132380000D02*
X127060000Y-138350000D01*
X137180000Y-132380000D02*
X127060000Y-132380000D01*
X137180000Y-138350000D02*
X137180000Y-132380000D01*
X162235000Y-106890000D02*
X162235000Y-105640000D01*
X160985000Y-106890000D02*
X162235000Y-106890000D01*
X142585000Y-101390000D02*
X151885000Y-101390000D01*
X142585000Y-104340000D02*
X142585000Y-101390000D01*
X141835000Y-104340000D02*
X142585000Y-104340000D01*
X161185000Y-101390000D02*
X151885000Y-101390000D01*
X161185000Y-104340000D02*
X161185000Y-101390000D01*
X161935000Y-104340000D02*
X161185000Y-104340000D01*
X141835000Y-106590000D02*
X143635000Y-106590000D01*
X141835000Y-105840000D02*
X141835000Y-106590000D01*
X143635000Y-105840000D02*
X141835000Y-105840000D01*
X143635000Y-106590000D02*
X143635000Y-105840000D01*
X160135000Y-106590000D02*
X161935000Y-106590000D01*
X160135000Y-105840000D02*
X160135000Y-106590000D01*
X161935000Y-105840000D02*
X160135000Y-105840000D01*
X161935000Y-106590000D02*
X161935000Y-105840000D01*
X145135000Y-106590000D02*
X158635000Y-106590000D01*
X145135000Y-105840000D02*
X145135000Y-106590000D01*
X158635000Y-105840000D02*
X145135000Y-105840000D01*
X158635000Y-106590000D02*
X158635000Y-105840000D01*
X141825000Y-106600000D02*
X161945000Y-106600000D01*
X141825000Y-100630000D02*
X141825000Y-106600000D01*
X161945000Y-100630000D02*
X141825000Y-100630000D01*
X161945000Y-106600000D02*
X161945000Y-100630000D01*
X184895000Y-106890000D02*
X184895000Y-105640000D01*
X183645000Y-106890000D02*
X184895000Y-106890000D01*
X165245000Y-101390000D02*
X174545000Y-101390000D01*
X165245000Y-104340000D02*
X165245000Y-101390000D01*
X164495000Y-104340000D02*
X165245000Y-104340000D01*
X183845000Y-101390000D02*
X174545000Y-101390000D01*
X183845000Y-104340000D02*
X183845000Y-101390000D01*
X184595000Y-104340000D02*
X183845000Y-104340000D01*
X164495000Y-106590000D02*
X166295000Y-106590000D01*
X164495000Y-105840000D02*
X164495000Y-106590000D01*
X166295000Y-105840000D02*
X164495000Y-105840000D01*
X166295000Y-106590000D02*
X166295000Y-105840000D01*
X182795000Y-106590000D02*
X184595000Y-106590000D01*
X182795000Y-105840000D02*
X182795000Y-106590000D01*
X184595000Y-105840000D02*
X182795000Y-105840000D01*
X184595000Y-106590000D02*
X184595000Y-105840000D01*
X167795000Y-106590000D02*
X181295000Y-106590000D01*
X167795000Y-105840000D02*
X167795000Y-106590000D01*
X181295000Y-105840000D02*
X167795000Y-105840000D01*
X181295000Y-106590000D02*
X181295000Y-105840000D01*
X164485000Y-106600000D02*
X184605000Y-106600000D01*
X164485000Y-100630000D02*
X164485000Y-106600000D01*
X184605000Y-100630000D02*
X164485000Y-100630000D01*
X184605000Y-106600000D02*
X184605000Y-100630000D01*
X140010000Y-106890000D02*
X140010000Y-105640000D01*
X138760000Y-106890000D02*
X140010000Y-106890000D01*
X130360000Y-101390000D02*
X134660000Y-101390000D01*
X130360000Y-104340000D02*
X130360000Y-101390000D01*
X129610000Y-104340000D02*
X130360000Y-104340000D01*
X138960000Y-101390000D02*
X134660000Y-101390000D01*
X138960000Y-104340000D02*
X138960000Y-101390000D01*
X139710000Y-104340000D02*
X138960000Y-104340000D01*
X129610000Y-106590000D02*
X131410000Y-106590000D01*
X129610000Y-105840000D02*
X129610000Y-106590000D01*
X131410000Y-105840000D02*
X129610000Y-105840000D01*
X131410000Y-106590000D02*
X131410000Y-105840000D01*
X137910000Y-106590000D02*
X139710000Y-106590000D01*
X137910000Y-105840000D02*
X137910000Y-106590000D01*
X139710000Y-105840000D02*
X137910000Y-105840000D01*
X139710000Y-106590000D02*
X139710000Y-105840000D01*
X132910000Y-106590000D02*
X136410000Y-106590000D01*
X132910000Y-105840000D02*
X132910000Y-106590000D01*
X136410000Y-105840000D02*
X132910000Y-105840000D01*
X136410000Y-106590000D02*
X136410000Y-105840000D01*
X129600000Y-106600000D02*
X139720000Y-106600000D01*
X129600000Y-100630000D02*
X129600000Y-106600000D01*
X139720000Y-100630000D02*
X129600000Y-100630000D01*
X139720000Y-106600000D02*
X139720000Y-100630000D01*
X127945000Y-106890000D02*
X127945000Y-105640000D01*
X126695000Y-106890000D02*
X127945000Y-106890000D01*
X118295000Y-101390000D02*
X122595000Y-101390000D01*
X118295000Y-104340000D02*
X118295000Y-101390000D01*
X117545000Y-104340000D02*
X118295000Y-104340000D01*
X126895000Y-101390000D02*
X122595000Y-101390000D01*
X126895000Y-104340000D02*
X126895000Y-101390000D01*
X127645000Y-104340000D02*
X126895000Y-104340000D01*
X117545000Y-106590000D02*
X119345000Y-106590000D01*
X117545000Y-105840000D02*
X117545000Y-106590000D01*
X119345000Y-105840000D02*
X117545000Y-105840000D01*
X119345000Y-106590000D02*
X119345000Y-105840000D01*
X125845000Y-106590000D02*
X127645000Y-106590000D01*
X125845000Y-105840000D02*
X125845000Y-106590000D01*
X127645000Y-105840000D02*
X125845000Y-105840000D01*
X127645000Y-106590000D02*
X127645000Y-105840000D01*
X120845000Y-106590000D02*
X124345000Y-106590000D01*
X120845000Y-105840000D02*
X120845000Y-106590000D01*
X124345000Y-105840000D02*
X120845000Y-105840000D01*
X124345000Y-106590000D02*
X124345000Y-105840000D01*
X117535000Y-106600000D02*
X127655000Y-106600000D01*
X117535000Y-100630000D02*
X117535000Y-106600000D01*
X127655000Y-100630000D02*
X117535000Y-100630000D01*
X127655000Y-106600000D02*
X127655000Y-100630000D01*
X156505000Y-138160000D02*
X152655000Y-138160000D01*
X156505000Y-136160000D02*
X152655000Y-136160000D01*
X156505000Y-138160000D02*
X156505000Y-136160000D01*
X152105000Y-132985000D02*
X155955000Y-132985000D01*
X152105000Y-134985000D02*
X155955000Y-134985000D01*
X152105000Y-132985000D02*
X152105000Y-134985000D01*
X167345000Y-136160000D02*
X171195000Y-136160000D01*
X167345000Y-138160000D02*
X171195000Y-138160000D01*
X167345000Y-136160000D02*
X167345000Y-138160000D01*
X171745000Y-134985000D02*
X167895000Y-134985000D01*
X171745000Y-132985000D02*
X167895000Y-132985000D01*
X171745000Y-134985000D02*
X171745000Y-132985000D01*
X112858733Y-130050000D02*
X113201267Y-130050000D01*
X112858733Y-129030000D02*
X113201267Y-129030000D01*
X114763733Y-115445000D02*
X115106267Y-115445000D01*
X114763733Y-114425000D02*
X115106267Y-114425000D01*
X110953733Y-115445000D02*
X111296267Y-115445000D01*
X110953733Y-114425000D02*
X111296267Y-114425000D01*
X110000000Y-122091267D02*
X110000000Y-121748733D01*
X108980000Y-122091267D02*
X108980000Y-121748733D01*
X118620000Y-125901267D02*
X118620000Y-125558733D01*
X117600000Y-125901267D02*
X117600000Y-125558733D01*
X163658733Y-123700000D02*
X164001267Y-123700000D01*
X163658733Y-122680000D02*
X164001267Y-122680000D01*
X159848733Y-132590000D02*
X160191267Y-132590000D01*
X159848733Y-131570000D02*
X160191267Y-131570000D01*
X131273733Y-112270000D02*
X131616267Y-112270000D01*
X131273733Y-111250000D02*
X131616267Y-111250000D01*
X127463733Y-121160000D02*
X127806267Y-121160000D01*
X127463733Y-120140000D02*
X127806267Y-120140000D01*
X112223733Y-111635000D02*
X112566267Y-111635000D01*
X112223733Y-110615000D02*
X112566267Y-110615000D01*
X109064759Y-103891000D02*
X109064759Y-104521000D01*
X108749759Y-104206000D02*
X109379759Y-104206000D01*
X115491000Y-105643000D02*
X115491000Y-106447000D01*
X115451000Y-105412000D02*
X115451000Y-106678000D01*
X115411000Y-105243000D02*
X115411000Y-106847000D01*
X115371000Y-105105000D02*
X115371000Y-106985000D01*
X115331000Y-104986000D02*
X115331000Y-107104000D01*
X115291000Y-104880000D02*
X115291000Y-107210000D01*
X115251000Y-104783000D02*
X115251000Y-107307000D01*
X115211000Y-104695000D02*
X115211000Y-107395000D01*
X115171000Y-104613000D02*
X115171000Y-107477000D01*
X115131000Y-104536000D02*
X115131000Y-107554000D01*
X115091000Y-104464000D02*
X115091000Y-107626000D01*
X115051000Y-104395000D02*
X115051000Y-107695000D01*
X115011000Y-104331000D02*
X115011000Y-107759000D01*
X114971000Y-104269000D02*
X114971000Y-107821000D01*
X114931000Y-104211000D02*
X114931000Y-107879000D01*
X114891000Y-104155000D02*
X114891000Y-107935000D01*
X114851000Y-104101000D02*
X114851000Y-107989000D01*
X114811000Y-104050000D02*
X114811000Y-108040000D01*
X114771000Y-104001000D02*
X114771000Y-108089000D01*
X114731000Y-103953000D02*
X114731000Y-108137000D01*
X114691000Y-103908000D02*
X114691000Y-108182000D01*
X114651000Y-103863000D02*
X114651000Y-108227000D01*
X114611000Y-103821000D02*
X114611000Y-108269000D01*
X114571000Y-103780000D02*
X114571000Y-108310000D01*
X114531000Y-107085000D02*
X114531000Y-108350000D01*
X114531000Y-103740000D02*
X114531000Y-105005000D01*
X114491000Y-107085000D02*
X114491000Y-108388000D01*
X114491000Y-103702000D02*
X114491000Y-105005000D01*
X114451000Y-107085000D02*
X114451000Y-108425000D01*
X114451000Y-103665000D02*
X114451000Y-105005000D01*
X114411000Y-107085000D02*
X114411000Y-108461000D01*
X114411000Y-103629000D02*
X114411000Y-105005000D01*
X114371000Y-107085000D02*
X114371000Y-108495000D01*
X114371000Y-103595000D02*
X114371000Y-105005000D01*
X114331000Y-107085000D02*
X114331000Y-108529000D01*
X114331000Y-103561000D02*
X114331000Y-105005000D01*
X114291000Y-107085000D02*
X114291000Y-108561000D01*
X114291000Y-103529000D02*
X114291000Y-105005000D01*
X114251000Y-107085000D02*
X114251000Y-108593000D01*
X114251000Y-103497000D02*
X114251000Y-105005000D01*
X114211000Y-107085000D02*
X114211000Y-108623000D01*
X114211000Y-103467000D02*
X114211000Y-105005000D01*
X114171000Y-107085000D02*
X114171000Y-108652000D01*
X114171000Y-103438000D02*
X114171000Y-105005000D01*
X114131000Y-107085000D02*
X114131000Y-108681000D01*
X114131000Y-103409000D02*
X114131000Y-105005000D01*
X114091000Y-107085000D02*
X114091000Y-108709000D01*
X114091000Y-103381000D02*
X114091000Y-105005000D01*
X114051000Y-107085000D02*
X114051000Y-108735000D01*
X114051000Y-103355000D02*
X114051000Y-105005000D01*
X114011000Y-107085000D02*
X114011000Y-108761000D01*
X114011000Y-103329000D02*
X114011000Y-105005000D01*
X113971000Y-107085000D02*
X113971000Y-108787000D01*
X113971000Y-103303000D02*
X113971000Y-105005000D01*
X113931000Y-107085000D02*
X113931000Y-108811000D01*
X113931000Y-103279000D02*
X113931000Y-105005000D01*
X113891000Y-107085000D02*
X113891000Y-108835000D01*
X113891000Y-103255000D02*
X113891000Y-105005000D01*
X113851000Y-107085000D02*
X113851000Y-108857000D01*
X113851000Y-103233000D02*
X113851000Y-105005000D01*
X113811000Y-107085000D02*
X113811000Y-108879000D01*
X113811000Y-103211000D02*
X113811000Y-105005000D01*
X113771000Y-107085000D02*
X113771000Y-108901000D01*
X113771000Y-103189000D02*
X113771000Y-105005000D01*
X113731000Y-107085000D02*
X113731000Y-108921000D01*
X113731000Y-103169000D02*
X113731000Y-105005000D01*
X113691000Y-107085000D02*
X113691000Y-108941000D01*
X113691000Y-103149000D02*
X113691000Y-105005000D01*
X113651000Y-107085000D02*
X113651000Y-108961000D01*
X113651000Y-103129000D02*
X113651000Y-105005000D01*
X113611000Y-107085000D02*
X113611000Y-108979000D01*
X113611000Y-103111000D02*
X113611000Y-105005000D01*
X113571000Y-107085000D02*
X113571000Y-108997000D01*
X113571000Y-103093000D02*
X113571000Y-105005000D01*
X113531000Y-107085000D02*
X113531000Y-109015000D01*
X113531000Y-103075000D02*
X113531000Y-105005000D01*
X113491000Y-107085000D02*
X113491000Y-109031000D01*
X113491000Y-103059000D02*
X113491000Y-105005000D01*
X113451000Y-107085000D02*
X113451000Y-109047000D01*
X113451000Y-103043000D02*
X113451000Y-105005000D01*
X113411000Y-107085000D02*
X113411000Y-109063000D01*
X113411000Y-103027000D02*
X113411000Y-105005000D01*
X113371000Y-107085000D02*
X113371000Y-109078000D01*
X113371000Y-103012000D02*
X113371000Y-105005000D01*
X113331000Y-107085000D02*
X113331000Y-109092000D01*
X113331000Y-102998000D02*
X113331000Y-105005000D01*
X113291000Y-107085000D02*
X113291000Y-109106000D01*
X113291000Y-102984000D02*
X113291000Y-105005000D01*
X113251000Y-107085000D02*
X113251000Y-109119000D01*
X113251000Y-102971000D02*
X113251000Y-105005000D01*
X113211000Y-107085000D02*
X113211000Y-109131000D01*
X113211000Y-102959000D02*
X113211000Y-105005000D01*
X113171000Y-107085000D02*
X113171000Y-109143000D01*
X113171000Y-102947000D02*
X113171000Y-105005000D01*
X113131000Y-107085000D02*
X113131000Y-109155000D01*
X113131000Y-102935000D02*
X113131000Y-105005000D01*
X113091000Y-107085000D02*
X113091000Y-109166000D01*
X113091000Y-102924000D02*
X113091000Y-105005000D01*
X113051000Y-107085000D02*
X113051000Y-109176000D01*
X113051000Y-102914000D02*
X113051000Y-105005000D01*
X113011000Y-107085000D02*
X113011000Y-109186000D01*
X113011000Y-102904000D02*
X113011000Y-105005000D01*
X112971000Y-107085000D02*
X112971000Y-109195000D01*
X112971000Y-102895000D02*
X112971000Y-105005000D01*
X112930000Y-107085000D02*
X112930000Y-109204000D01*
X112930000Y-102886000D02*
X112930000Y-105005000D01*
X112890000Y-107085000D02*
X112890000Y-109212000D01*
X112890000Y-102878000D02*
X112890000Y-105005000D01*
X112850000Y-107085000D02*
X112850000Y-109220000D01*
X112850000Y-102870000D02*
X112850000Y-105005000D01*
X112810000Y-107085000D02*
X112810000Y-109227000D01*
X112810000Y-102863000D02*
X112810000Y-105005000D01*
X112770000Y-107085000D02*
X112770000Y-109234000D01*
X112770000Y-102856000D02*
X112770000Y-105005000D01*
X112730000Y-107085000D02*
X112730000Y-109240000D01*
X112730000Y-102850000D02*
X112730000Y-105005000D01*
X112690000Y-107085000D02*
X112690000Y-109246000D01*
X112690000Y-102844000D02*
X112690000Y-105005000D01*
X112650000Y-107085000D02*
X112650000Y-109251000D01*
X112650000Y-102839000D02*
X112650000Y-105005000D01*
X112610000Y-107085000D02*
X112610000Y-109256000D01*
X112610000Y-102834000D02*
X112610000Y-105005000D01*
X112570000Y-107085000D02*
X112570000Y-109260000D01*
X112570000Y-102830000D02*
X112570000Y-105005000D01*
X112530000Y-107085000D02*
X112530000Y-109263000D01*
X112530000Y-102827000D02*
X112530000Y-105005000D01*
X112490000Y-107085000D02*
X112490000Y-109267000D01*
X112490000Y-102823000D02*
X112490000Y-105005000D01*
X112450000Y-102821000D02*
X112450000Y-109269000D01*
X112410000Y-102818000D02*
X112410000Y-109272000D01*
X112370000Y-102817000D02*
X112370000Y-109273000D01*
X112330000Y-102815000D02*
X112330000Y-109275000D01*
X112290000Y-102815000D02*
X112290000Y-109275000D01*
X112250000Y-102815000D02*
X112250000Y-109275000D01*
X115520000Y-106045000D02*
G75*
G03*
X115520000Y-106045000I-3270000J0D01*
G01*
X143441267Y-136015000D02*
X143098733Y-136015000D01*
X143441267Y-137035000D02*
X143098733Y-137035000D01*
X143441267Y-122045000D02*
X143098733Y-122045000D01*
X143441267Y-123065000D02*
X143098733Y-123065000D01*
X127806267Y-111250000D02*
X127463733Y-111250000D01*
X127806267Y-112270000D02*
X127463733Y-112270000D01*
X131273733Y-121160000D02*
X131616267Y-121160000D01*
X131273733Y-120140000D02*
X131616267Y-120140000D01*
X178366267Y-135490000D02*
X178023733Y-135490000D01*
X178366267Y-136510000D02*
X178023733Y-136510000D01*
X178366267Y-121410000D02*
X178023733Y-121410000D01*
X178366267Y-122430000D02*
X178023733Y-122430000D01*
D10*
X107148380Y-112708333D02*
X107862666Y-112708333D01*
X108005523Y-112755952D01*
X108100761Y-112851190D01*
X108148380Y-112994047D01*
X108148380Y-113089285D01*
X107148380Y-111803571D02*
X107148380Y-111994047D01*
X107196000Y-112089285D01*
X107243619Y-112136904D01*
X107386476Y-112232142D01*
X107576952Y-112279761D01*
X107957904Y-112279761D01*
X108053142Y-112232142D01*
X108100761Y-112184523D01*
X108148380Y-112089285D01*
X108148380Y-111898809D01*
X108100761Y-111803571D01*
X108053142Y-111755952D01*
X107957904Y-111708333D01*
X107719809Y-111708333D01*
X107624571Y-111755952D01*
X107576952Y-111803571D01*
X107529333Y-111898809D01*
X107529333Y-112089285D01*
X107576952Y-112184523D01*
X107624571Y-112232142D01*
X107719809Y-112279761D01*
X115443095Y-128357380D02*
X115443095Y-129166904D01*
X115490714Y-129262142D01*
X115538333Y-129309761D01*
X115633571Y-129357380D01*
X115824047Y-129357380D01*
X115919285Y-129309761D01*
X115966904Y-129262142D01*
X116014523Y-129166904D01*
X116014523Y-128357380D01*
X116395476Y-128357380D02*
X117014523Y-128357380D01*
X116681190Y-128738333D01*
X116824047Y-128738333D01*
X116919285Y-128785952D01*
X116966904Y-128833571D01*
X117014523Y-128928809D01*
X117014523Y-129166904D01*
X116966904Y-129262142D01*
X116919285Y-129309761D01*
X116824047Y-129357380D01*
X116538333Y-129357380D01*
X116443095Y-129309761D01*
X116395476Y-129262142D01*
X167386095Y-120610380D02*
X167386095Y-121419904D01*
X167433714Y-121515142D01*
X167481333Y-121562761D01*
X167576571Y-121610380D01*
X167767047Y-121610380D01*
X167862285Y-121562761D01*
X167909904Y-121515142D01*
X167957523Y-121419904D01*
X167957523Y-120610380D01*
X168386095Y-120705619D02*
X168433714Y-120658000D01*
X168528952Y-120610380D01*
X168767047Y-120610380D01*
X168862285Y-120658000D01*
X168909904Y-120705619D01*
X168957523Y-120800857D01*
X168957523Y-120896095D01*
X168909904Y-121038952D01*
X168338476Y-121610380D01*
X168957523Y-121610380D01*
X134874095Y-109688380D02*
X134874095Y-110497904D01*
X134921714Y-110593142D01*
X134969333Y-110640761D01*
X135064571Y-110688380D01*
X135255047Y-110688380D01*
X135350285Y-110640761D01*
X135397904Y-110593142D01*
X135445523Y-110497904D01*
X135445523Y-109688380D01*
X136445523Y-110688380D02*
X135874095Y-110688380D01*
X136159809Y-110688380D02*
X136159809Y-109688380D01*
X136064571Y-109831238D01*
X135969333Y-109926476D01*
X135874095Y-109974095D01*
X108354761Y-123253333D02*
X108402380Y-123110476D01*
X108402380Y-122872380D01*
X108354761Y-122777142D01*
X108307142Y-122729523D01*
X108211904Y-122681904D01*
X108116666Y-122681904D01*
X108021428Y-122729523D01*
X107973809Y-122777142D01*
X107926190Y-122872380D01*
X107878571Y-123062857D01*
X107830952Y-123158095D01*
X107783333Y-123205714D01*
X107688095Y-123253333D01*
X107592857Y-123253333D01*
X107497619Y-123205714D01*
X107450000Y-123158095D01*
X107402380Y-123062857D01*
X107402380Y-122824761D01*
X107450000Y-122681904D01*
X107402380Y-122348571D02*
X108402380Y-122110476D01*
X107688095Y-121920000D01*
X108402380Y-121729523D01*
X107402380Y-121491428D01*
X107497619Y-121158095D02*
X107450000Y-121110476D01*
X107402380Y-121015238D01*
X107402380Y-120777142D01*
X107450000Y-120681904D01*
X107497619Y-120634285D01*
X107592857Y-120586666D01*
X107688095Y-120586666D01*
X107830952Y-120634285D01*
X108402380Y-121205714D01*
X108402380Y-120586666D01*
X126174666Y-131468761D02*
X126317523Y-131516380D01*
X126555619Y-131516380D01*
X126650857Y-131468761D01*
X126698476Y-131421142D01*
X126746095Y-131325904D01*
X126746095Y-131230666D01*
X126698476Y-131135428D01*
X126650857Y-131087809D01*
X126555619Y-131040190D01*
X126365142Y-130992571D01*
X126269904Y-130944952D01*
X126222285Y-130897333D01*
X126174666Y-130802095D01*
X126174666Y-130706857D01*
X126222285Y-130611619D01*
X126269904Y-130564000D01*
X126365142Y-130516380D01*
X126603238Y-130516380D01*
X126746095Y-130564000D01*
X127079428Y-130516380D02*
X127317523Y-131516380D01*
X127508000Y-130802095D01*
X127698476Y-131516380D01*
X127936571Y-130516380D01*
X128841333Y-131516380D02*
X128269904Y-131516380D01*
X128555619Y-131516380D02*
X128555619Y-130516380D01*
X128460380Y-130659238D01*
X128365142Y-130754476D01*
X128269904Y-130802095D01*
X115609761Y-136342380D02*
X115276428Y-135866190D01*
X115038333Y-136342380D02*
X115038333Y-135342380D01*
X115419285Y-135342380D01*
X115514523Y-135390000D01*
X115562142Y-135437619D01*
X115609761Y-135532857D01*
X115609761Y-135675714D01*
X115562142Y-135770952D01*
X115514523Y-135818571D01*
X115419285Y-135866190D01*
X115038333Y-135866190D01*
X115895476Y-135342380D02*
X116228809Y-136342380D01*
X116562142Y-135342380D01*
X116943095Y-136342380D02*
X117133571Y-136342380D01*
X117228809Y-136294761D01*
X117276428Y-136247142D01*
X117371666Y-136104285D01*
X117419285Y-135913809D01*
X117419285Y-135532857D01*
X117371666Y-135437619D01*
X117324047Y-135390000D01*
X117228809Y-135342380D01*
X117038333Y-135342380D01*
X116943095Y-135390000D01*
X116895476Y-135437619D01*
X116847857Y-135532857D01*
X116847857Y-135770952D01*
X116895476Y-135866190D01*
X116943095Y-135913809D01*
X117038333Y-135961428D01*
X117228809Y-135961428D01*
X117324047Y-135913809D01*
X117371666Y-135866190D01*
X117419285Y-135770952D01*
X153582761Y-121610380D02*
X153249428Y-121134190D01*
X153011333Y-121610380D02*
X153011333Y-120610380D01*
X153392285Y-120610380D01*
X153487523Y-120658000D01*
X153535142Y-120705619D01*
X153582761Y-120800857D01*
X153582761Y-120943714D01*
X153535142Y-121038952D01*
X153487523Y-121086571D01*
X153392285Y-121134190D01*
X153011333Y-121134190D01*
X153868476Y-120610380D02*
X154201809Y-121610380D01*
X154535142Y-120610380D01*
X155011333Y-121038952D02*
X154916095Y-120991333D01*
X154868476Y-120943714D01*
X154820857Y-120848476D01*
X154820857Y-120800857D01*
X154868476Y-120705619D01*
X154916095Y-120658000D01*
X155011333Y-120610380D01*
X155201809Y-120610380D01*
X155297047Y-120658000D01*
X155344666Y-120705619D01*
X155392285Y-120800857D01*
X155392285Y-120848476D01*
X155344666Y-120943714D01*
X155297047Y-120991333D01*
X155201809Y-121038952D01*
X155011333Y-121038952D01*
X154916095Y-121086571D01*
X154868476Y-121134190D01*
X154820857Y-121229428D01*
X154820857Y-121419904D01*
X154868476Y-121515142D01*
X154916095Y-121562761D01*
X155011333Y-121610380D01*
X155201809Y-121610380D01*
X155297047Y-121562761D01*
X155344666Y-121515142D01*
X155392285Y-121419904D01*
X155392285Y-121229428D01*
X155344666Y-121134190D01*
X155297047Y-121086571D01*
X155201809Y-121038952D01*
X170346761Y-121610380D02*
X170013428Y-121134190D01*
X169775333Y-121610380D02*
X169775333Y-120610380D01*
X170156285Y-120610380D01*
X170251523Y-120658000D01*
X170299142Y-120705619D01*
X170346761Y-120800857D01*
X170346761Y-120943714D01*
X170299142Y-121038952D01*
X170251523Y-121086571D01*
X170156285Y-121134190D01*
X169775333Y-121134190D01*
X170632476Y-120610380D02*
X170965809Y-121610380D01*
X171299142Y-120610380D01*
X171537238Y-120610380D02*
X172203904Y-120610380D01*
X171775333Y-121610380D01*
X146978761Y-136977380D02*
X146645428Y-136501190D01*
X146407333Y-136977380D02*
X146407333Y-135977380D01*
X146788285Y-135977380D01*
X146883523Y-136025000D01*
X146931142Y-136072619D01*
X146978761Y-136167857D01*
X146978761Y-136310714D01*
X146931142Y-136405952D01*
X146883523Y-136453571D01*
X146788285Y-136501190D01*
X146407333Y-136501190D01*
X147264476Y-135977380D02*
X147597809Y-136977380D01*
X147931142Y-135977380D01*
X148693047Y-135977380D02*
X148502571Y-135977380D01*
X148407333Y-136025000D01*
X148359714Y-136072619D01*
X148264476Y-136215476D01*
X148216857Y-136405952D01*
X148216857Y-136786904D01*
X148264476Y-136882142D01*
X148312095Y-136929761D01*
X148407333Y-136977380D01*
X148597809Y-136977380D01*
X148693047Y-136929761D01*
X148740666Y-136882142D01*
X148788285Y-136786904D01*
X148788285Y-136548809D01*
X148740666Y-136453571D01*
X148693047Y-136405952D01*
X148597809Y-136358333D01*
X148407333Y-136358333D01*
X148312095Y-136405952D01*
X148264476Y-136453571D01*
X148216857Y-136548809D01*
X147232761Y-123134380D02*
X146899428Y-122658190D01*
X146661333Y-123134380D02*
X146661333Y-122134380D01*
X147042285Y-122134380D01*
X147137523Y-122182000D01*
X147185142Y-122229619D01*
X147232761Y-122324857D01*
X147232761Y-122467714D01*
X147185142Y-122562952D01*
X147137523Y-122610571D01*
X147042285Y-122658190D01*
X146661333Y-122658190D01*
X147518476Y-122134380D02*
X147851809Y-123134380D01*
X148185142Y-122134380D01*
X148994666Y-122134380D02*
X148518476Y-122134380D01*
X148470857Y-122610571D01*
X148518476Y-122562952D01*
X148613714Y-122515333D01*
X148851809Y-122515333D01*
X148947047Y-122562952D01*
X148994666Y-122610571D01*
X149042285Y-122705809D01*
X149042285Y-122943904D01*
X148994666Y-123039142D01*
X148947047Y-123086761D01*
X148851809Y-123134380D01*
X148613714Y-123134380D01*
X148518476Y-123086761D01*
X148470857Y-123039142D01*
X119038761Y-110688380D02*
X118705428Y-110212190D01*
X118467333Y-110688380D02*
X118467333Y-109688380D01*
X118848285Y-109688380D01*
X118943523Y-109736000D01*
X118991142Y-109783619D01*
X119038761Y-109878857D01*
X119038761Y-110021714D01*
X118991142Y-110116952D01*
X118943523Y-110164571D01*
X118848285Y-110212190D01*
X118467333Y-110212190D01*
X119324476Y-109688380D02*
X119657809Y-110688380D01*
X119991142Y-109688380D01*
X120753047Y-110021714D02*
X120753047Y-110688380D01*
X120514952Y-109640761D02*
X120276857Y-110355047D01*
X120895904Y-110355047D01*
X137834761Y-110688380D02*
X137501428Y-110212190D01*
X137263333Y-110688380D02*
X137263333Y-109688380D01*
X137644285Y-109688380D01*
X137739523Y-109736000D01*
X137787142Y-109783619D01*
X137834761Y-109878857D01*
X137834761Y-110021714D01*
X137787142Y-110116952D01*
X137739523Y-110164571D01*
X137644285Y-110212190D01*
X137263333Y-110212190D01*
X138120476Y-109688380D02*
X138453809Y-110688380D01*
X138787142Y-109688380D01*
X139025238Y-109688380D02*
X139644285Y-109688380D01*
X139310952Y-110069333D01*
X139453809Y-110069333D01*
X139549047Y-110116952D01*
X139596666Y-110164571D01*
X139644285Y-110259809D01*
X139644285Y-110497904D01*
X139596666Y-110593142D01*
X139549047Y-110640761D01*
X139453809Y-110688380D01*
X139168095Y-110688380D01*
X139072857Y-110640761D01*
X139025238Y-110593142D01*
X181776761Y-136596380D02*
X181443428Y-136120190D01*
X181205333Y-136596380D02*
X181205333Y-135596380D01*
X181586285Y-135596380D01*
X181681523Y-135644000D01*
X181729142Y-135691619D01*
X181776761Y-135786857D01*
X181776761Y-135929714D01*
X181729142Y-136024952D01*
X181681523Y-136072571D01*
X181586285Y-136120190D01*
X181205333Y-136120190D01*
X182062476Y-135596380D02*
X182395809Y-136596380D01*
X182729142Y-135596380D01*
X183014857Y-135691619D02*
X183062476Y-135644000D01*
X183157714Y-135596380D01*
X183395809Y-135596380D01*
X183491047Y-135644000D01*
X183538666Y-135691619D01*
X183586285Y-135786857D01*
X183586285Y-135882095D01*
X183538666Y-136024952D01*
X182967238Y-136596380D01*
X183586285Y-136596380D01*
X182030761Y-122372380D02*
X181697428Y-121896190D01*
X181459333Y-122372380D02*
X181459333Y-121372380D01*
X181840285Y-121372380D01*
X181935523Y-121420000D01*
X181983142Y-121467619D01*
X182030761Y-121562857D01*
X182030761Y-121705714D01*
X181983142Y-121800952D01*
X181935523Y-121848571D01*
X181840285Y-121896190D01*
X181459333Y-121896190D01*
X182316476Y-121372380D02*
X182649809Y-122372380D01*
X182983142Y-121372380D01*
X183840285Y-122372380D02*
X183268857Y-122372380D01*
X183554571Y-122372380D02*
X183554571Y-121372380D01*
X183459333Y-121515238D01*
X183364095Y-121610476D01*
X183268857Y-121658095D01*
X114292142Y-117132380D02*
X113958809Y-116656190D01*
X113720714Y-117132380D02*
X113720714Y-116132380D01*
X114101666Y-116132380D01*
X114196904Y-116180000D01*
X114244523Y-116227619D01*
X114292142Y-116322857D01*
X114292142Y-116465714D01*
X114244523Y-116560952D01*
X114196904Y-116608571D01*
X114101666Y-116656190D01*
X113720714Y-116656190D01*
X114625476Y-116132380D02*
X115244523Y-116132380D01*
X114911190Y-116513333D01*
X115054047Y-116513333D01*
X115149285Y-116560952D01*
X115196904Y-116608571D01*
X115244523Y-116703809D01*
X115244523Y-116941904D01*
X115196904Y-117037142D01*
X115149285Y-117084761D01*
X115054047Y-117132380D01*
X114768333Y-117132380D01*
X114673095Y-117084761D01*
X114625476Y-117037142D01*
X116101666Y-116465714D02*
X116101666Y-117132380D01*
X115863571Y-116084761D02*
X115625476Y-116799047D01*
X116244523Y-116799047D01*
X110482142Y-117132380D02*
X110148809Y-116656190D01*
X109910714Y-117132380D02*
X109910714Y-116132380D01*
X110291666Y-116132380D01*
X110386904Y-116180000D01*
X110434523Y-116227619D01*
X110482142Y-116322857D01*
X110482142Y-116465714D01*
X110434523Y-116560952D01*
X110386904Y-116608571D01*
X110291666Y-116656190D01*
X109910714Y-116656190D01*
X110815476Y-116132380D02*
X111434523Y-116132380D01*
X111101190Y-116513333D01*
X111244047Y-116513333D01*
X111339285Y-116560952D01*
X111386904Y-116608571D01*
X111434523Y-116703809D01*
X111434523Y-116941904D01*
X111386904Y-117037142D01*
X111339285Y-117084761D01*
X111244047Y-117132380D01*
X110958333Y-117132380D01*
X110863095Y-117084761D01*
X110815476Y-117037142D01*
X111767857Y-116132380D02*
X112386904Y-116132380D01*
X112053571Y-116513333D01*
X112196428Y-116513333D01*
X112291666Y-116560952D01*
X112339285Y-116608571D01*
X112386904Y-116703809D01*
X112386904Y-116941904D01*
X112339285Y-117037142D01*
X112291666Y-117084761D01*
X112196428Y-117132380D01*
X111910714Y-117132380D01*
X111815476Y-117084761D01*
X111767857Y-117037142D01*
X159677380Y-137167857D02*
X159201190Y-137501190D01*
X159677380Y-137739285D02*
X158677380Y-137739285D01*
X158677380Y-137358333D01*
X158725000Y-137263095D01*
X158772619Y-137215476D01*
X158867857Y-137167857D01*
X159010714Y-137167857D01*
X159105952Y-137215476D01*
X159153571Y-137263095D01*
X159201190Y-137358333D01*
X159201190Y-137739285D01*
X158677380Y-136834523D02*
X158677380Y-136215476D01*
X159058333Y-136548809D01*
X159058333Y-136405952D01*
X159105952Y-136310714D01*
X159153571Y-136263095D01*
X159248809Y-136215476D01*
X159486904Y-136215476D01*
X159582142Y-136263095D01*
X159629761Y-136310714D01*
X159677380Y-136405952D01*
X159677380Y-136691666D01*
X159629761Y-136786904D01*
X159582142Y-136834523D01*
X158772619Y-135834523D02*
X158725000Y-135786904D01*
X158677380Y-135691666D01*
X158677380Y-135453571D01*
X158725000Y-135358333D01*
X158772619Y-135310714D01*
X158867857Y-135263095D01*
X158963095Y-135263095D01*
X159105952Y-135310714D01*
X159677380Y-135882142D01*
X159677380Y-135263095D01*
X162852380Y-137167857D02*
X162376190Y-137501190D01*
X162852380Y-137739285D02*
X161852380Y-137739285D01*
X161852380Y-137358333D01*
X161900000Y-137263095D01*
X161947619Y-137215476D01*
X162042857Y-137167857D01*
X162185714Y-137167857D01*
X162280952Y-137215476D01*
X162328571Y-137263095D01*
X162376190Y-137358333D01*
X162376190Y-137739285D01*
X161852380Y-136834523D02*
X161852380Y-136215476D01*
X162233333Y-136548809D01*
X162233333Y-136405952D01*
X162280952Y-136310714D01*
X162328571Y-136263095D01*
X162423809Y-136215476D01*
X162661904Y-136215476D01*
X162757142Y-136263095D01*
X162804761Y-136310714D01*
X162852380Y-136405952D01*
X162852380Y-136691666D01*
X162804761Y-136786904D01*
X162757142Y-136834523D01*
X162852380Y-135263095D02*
X162852380Y-135834523D01*
X162852380Y-135548809D02*
X161852380Y-135548809D01*
X161995238Y-135644047D01*
X162090476Y-135739285D01*
X162138095Y-135834523D01*
X159377142Y-122212380D02*
X159043809Y-121736190D01*
X158805714Y-122212380D02*
X158805714Y-121212380D01*
X159186666Y-121212380D01*
X159281904Y-121260000D01*
X159329523Y-121307619D01*
X159377142Y-121402857D01*
X159377142Y-121545714D01*
X159329523Y-121640952D01*
X159281904Y-121688571D01*
X159186666Y-121736190D01*
X158805714Y-121736190D01*
X159710476Y-121212380D02*
X160329523Y-121212380D01*
X159996190Y-121593333D01*
X160139047Y-121593333D01*
X160234285Y-121640952D01*
X160281904Y-121688571D01*
X160329523Y-121783809D01*
X160329523Y-122021904D01*
X160281904Y-122117142D01*
X160234285Y-122164761D01*
X160139047Y-122212380D01*
X159853333Y-122212380D01*
X159758095Y-122164761D01*
X159710476Y-122117142D01*
X160948571Y-121212380D02*
X161043809Y-121212380D01*
X161139047Y-121260000D01*
X161186666Y-121307619D01*
X161234285Y-121402857D01*
X161281904Y-121593333D01*
X161281904Y-121831428D01*
X161234285Y-122021904D01*
X161186666Y-122117142D01*
X161139047Y-122164761D01*
X161043809Y-122212380D01*
X160948571Y-122212380D01*
X160853333Y-122164761D01*
X160805714Y-122117142D01*
X160758095Y-122021904D01*
X160710476Y-121831428D01*
X160710476Y-121593333D01*
X160758095Y-121402857D01*
X160805714Y-121307619D01*
X160853333Y-121260000D01*
X160948571Y-121212380D01*
X163187142Y-134056380D02*
X162853809Y-133580190D01*
X162615714Y-134056380D02*
X162615714Y-133056380D01*
X162996666Y-133056380D01*
X163091904Y-133104000D01*
X163139523Y-133151619D01*
X163187142Y-133246857D01*
X163187142Y-133389714D01*
X163139523Y-133484952D01*
X163091904Y-133532571D01*
X162996666Y-133580190D01*
X162615714Y-133580190D01*
X163568095Y-133151619D02*
X163615714Y-133104000D01*
X163710952Y-133056380D01*
X163949047Y-133056380D01*
X164044285Y-133104000D01*
X164091904Y-133151619D01*
X164139523Y-133246857D01*
X164139523Y-133342095D01*
X164091904Y-133484952D01*
X163520476Y-134056380D01*
X164139523Y-134056380D01*
X164615714Y-134056380D02*
X164806190Y-134056380D01*
X164901428Y-134008761D01*
X164949047Y-133961142D01*
X165044285Y-133818285D01*
X165091904Y-133627809D01*
X165091904Y-133246857D01*
X165044285Y-133151619D01*
X164996666Y-133104000D01*
X164901428Y-133056380D01*
X164710952Y-133056380D01*
X164615714Y-133104000D01*
X164568095Y-133151619D01*
X164520476Y-133246857D01*
X164520476Y-133484952D01*
X164568095Y-133580190D01*
X164615714Y-133627809D01*
X164710952Y-133675428D01*
X164901428Y-133675428D01*
X164996666Y-133627809D01*
X165044285Y-133580190D01*
X165091904Y-133484952D01*
X159837380Y-119387857D02*
X159361190Y-119721190D01*
X159837380Y-119959285D02*
X158837380Y-119959285D01*
X158837380Y-119578333D01*
X158885000Y-119483095D01*
X158932619Y-119435476D01*
X159027857Y-119387857D01*
X159170714Y-119387857D01*
X159265952Y-119435476D01*
X159313571Y-119483095D01*
X159361190Y-119578333D01*
X159361190Y-119959285D01*
X158932619Y-119006904D02*
X158885000Y-118959285D01*
X158837380Y-118864047D01*
X158837380Y-118625952D01*
X158885000Y-118530714D01*
X158932619Y-118483095D01*
X159027857Y-118435476D01*
X159123095Y-118435476D01*
X159265952Y-118483095D01*
X159837380Y-119054523D01*
X159837380Y-118435476D01*
X159265952Y-117864047D02*
X159218333Y-117959285D01*
X159170714Y-118006904D01*
X159075476Y-118054523D01*
X159027857Y-118054523D01*
X158932619Y-118006904D01*
X158885000Y-117959285D01*
X158837380Y-117864047D01*
X158837380Y-117673571D01*
X158885000Y-117578333D01*
X158932619Y-117530714D01*
X159027857Y-117483095D01*
X159075476Y-117483095D01*
X159170714Y-117530714D01*
X159218333Y-117578333D01*
X159265952Y-117673571D01*
X159265952Y-117864047D01*
X159313571Y-117959285D01*
X159361190Y-118006904D01*
X159456428Y-118054523D01*
X159646904Y-118054523D01*
X159742142Y-118006904D01*
X159789761Y-117959285D01*
X159837380Y-117864047D01*
X159837380Y-117673571D01*
X159789761Y-117578333D01*
X159742142Y-117530714D01*
X159646904Y-117483095D01*
X159456428Y-117483095D01*
X159361190Y-117530714D01*
X159313571Y-117578333D01*
X159265952Y-117673571D01*
X157297380Y-119387857D02*
X156821190Y-119721190D01*
X157297380Y-119959285D02*
X156297380Y-119959285D01*
X156297380Y-119578333D01*
X156345000Y-119483095D01*
X156392619Y-119435476D01*
X156487857Y-119387857D01*
X156630714Y-119387857D01*
X156725952Y-119435476D01*
X156773571Y-119483095D01*
X156821190Y-119578333D01*
X156821190Y-119959285D01*
X156392619Y-119006904D02*
X156345000Y-118959285D01*
X156297380Y-118864047D01*
X156297380Y-118625952D01*
X156345000Y-118530714D01*
X156392619Y-118483095D01*
X156487857Y-118435476D01*
X156583095Y-118435476D01*
X156725952Y-118483095D01*
X157297380Y-119054523D01*
X157297380Y-118435476D01*
X156297380Y-118102142D02*
X156297380Y-117435476D01*
X157297380Y-117864047D01*
X154757380Y-119387857D02*
X154281190Y-119721190D01*
X154757380Y-119959285D02*
X153757380Y-119959285D01*
X153757380Y-119578333D01*
X153805000Y-119483095D01*
X153852619Y-119435476D01*
X153947857Y-119387857D01*
X154090714Y-119387857D01*
X154185952Y-119435476D01*
X154233571Y-119483095D01*
X154281190Y-119578333D01*
X154281190Y-119959285D01*
X153852619Y-119006904D02*
X153805000Y-118959285D01*
X153757380Y-118864047D01*
X153757380Y-118625952D01*
X153805000Y-118530714D01*
X153852619Y-118483095D01*
X153947857Y-118435476D01*
X154043095Y-118435476D01*
X154185952Y-118483095D01*
X154757380Y-119054523D01*
X154757380Y-118435476D01*
X153757380Y-117578333D02*
X153757380Y-117768809D01*
X153805000Y-117864047D01*
X153852619Y-117911666D01*
X153995476Y-118006904D01*
X154185952Y-118054523D01*
X154566904Y-118054523D01*
X154662142Y-118006904D01*
X154709761Y-117959285D01*
X154757380Y-117864047D01*
X154757380Y-117673571D01*
X154709761Y-117578333D01*
X154662142Y-117530714D01*
X154566904Y-117483095D01*
X154328809Y-117483095D01*
X154233571Y-117530714D01*
X154185952Y-117578333D01*
X154138333Y-117673571D01*
X154138333Y-117864047D01*
X154185952Y-117959285D01*
X154233571Y-118006904D01*
X154328809Y-118054523D01*
X152217380Y-119387857D02*
X151741190Y-119721190D01*
X152217380Y-119959285D02*
X151217380Y-119959285D01*
X151217380Y-119578333D01*
X151265000Y-119483095D01*
X151312619Y-119435476D01*
X151407857Y-119387857D01*
X151550714Y-119387857D01*
X151645952Y-119435476D01*
X151693571Y-119483095D01*
X151741190Y-119578333D01*
X151741190Y-119959285D01*
X151312619Y-119006904D02*
X151265000Y-118959285D01*
X151217380Y-118864047D01*
X151217380Y-118625952D01*
X151265000Y-118530714D01*
X151312619Y-118483095D01*
X151407857Y-118435476D01*
X151503095Y-118435476D01*
X151645952Y-118483095D01*
X152217380Y-119054523D01*
X152217380Y-118435476D01*
X151217380Y-117530714D02*
X151217380Y-118006904D01*
X151693571Y-118054523D01*
X151645952Y-118006904D01*
X151598333Y-117911666D01*
X151598333Y-117673571D01*
X151645952Y-117578333D01*
X151693571Y-117530714D01*
X151788809Y-117483095D01*
X152026904Y-117483095D01*
X152122142Y-117530714D01*
X152169761Y-117578333D01*
X152217380Y-117673571D01*
X152217380Y-117911666D01*
X152169761Y-118006904D01*
X152122142Y-118054523D01*
X149677380Y-119387857D02*
X149201190Y-119721190D01*
X149677380Y-119959285D02*
X148677380Y-119959285D01*
X148677380Y-119578333D01*
X148725000Y-119483095D01*
X148772619Y-119435476D01*
X148867857Y-119387857D01*
X149010714Y-119387857D01*
X149105952Y-119435476D01*
X149153571Y-119483095D01*
X149201190Y-119578333D01*
X149201190Y-119959285D01*
X148772619Y-119006904D02*
X148725000Y-118959285D01*
X148677380Y-118864047D01*
X148677380Y-118625952D01*
X148725000Y-118530714D01*
X148772619Y-118483095D01*
X148867857Y-118435476D01*
X148963095Y-118435476D01*
X149105952Y-118483095D01*
X149677380Y-119054523D01*
X149677380Y-118435476D01*
X149010714Y-117578333D02*
X149677380Y-117578333D01*
X148629761Y-117816428D02*
X149344047Y-118054523D01*
X149344047Y-117435476D01*
X147137380Y-119387857D02*
X146661190Y-119721190D01*
X147137380Y-119959285D02*
X146137380Y-119959285D01*
X146137380Y-119578333D01*
X146185000Y-119483095D01*
X146232619Y-119435476D01*
X146327857Y-119387857D01*
X146470714Y-119387857D01*
X146565952Y-119435476D01*
X146613571Y-119483095D01*
X146661190Y-119578333D01*
X146661190Y-119959285D01*
X146232619Y-119006904D02*
X146185000Y-118959285D01*
X146137380Y-118864047D01*
X146137380Y-118625952D01*
X146185000Y-118530714D01*
X146232619Y-118483095D01*
X146327857Y-118435476D01*
X146423095Y-118435476D01*
X146565952Y-118483095D01*
X147137380Y-119054523D01*
X147137380Y-118435476D01*
X146137380Y-118102142D02*
X146137380Y-117483095D01*
X146518333Y-117816428D01*
X146518333Y-117673571D01*
X146565952Y-117578333D01*
X146613571Y-117530714D01*
X146708809Y-117483095D01*
X146946904Y-117483095D01*
X147042142Y-117530714D01*
X147089761Y-117578333D01*
X147137380Y-117673571D01*
X147137380Y-117959285D01*
X147089761Y-118054523D01*
X147042142Y-118102142D01*
X182697380Y-119387857D02*
X182221190Y-119721190D01*
X182697380Y-119959285D02*
X181697380Y-119959285D01*
X181697380Y-119578333D01*
X181745000Y-119483095D01*
X181792619Y-119435476D01*
X181887857Y-119387857D01*
X182030714Y-119387857D01*
X182125952Y-119435476D01*
X182173571Y-119483095D01*
X182221190Y-119578333D01*
X182221190Y-119959285D01*
X181792619Y-119006904D02*
X181745000Y-118959285D01*
X181697380Y-118864047D01*
X181697380Y-118625952D01*
X181745000Y-118530714D01*
X181792619Y-118483095D01*
X181887857Y-118435476D01*
X181983095Y-118435476D01*
X182125952Y-118483095D01*
X182697380Y-119054523D01*
X182697380Y-118435476D01*
X181792619Y-118054523D02*
X181745000Y-118006904D01*
X181697380Y-117911666D01*
X181697380Y-117673571D01*
X181745000Y-117578333D01*
X181792619Y-117530714D01*
X181887857Y-117483095D01*
X181983095Y-117483095D01*
X182125952Y-117530714D01*
X182697380Y-118102142D01*
X182697380Y-117483095D01*
X180157380Y-119387857D02*
X179681190Y-119721190D01*
X180157380Y-119959285D02*
X179157380Y-119959285D01*
X179157380Y-119578333D01*
X179205000Y-119483095D01*
X179252619Y-119435476D01*
X179347857Y-119387857D01*
X179490714Y-119387857D01*
X179585952Y-119435476D01*
X179633571Y-119483095D01*
X179681190Y-119578333D01*
X179681190Y-119959285D01*
X179252619Y-119006904D02*
X179205000Y-118959285D01*
X179157380Y-118864047D01*
X179157380Y-118625952D01*
X179205000Y-118530714D01*
X179252619Y-118483095D01*
X179347857Y-118435476D01*
X179443095Y-118435476D01*
X179585952Y-118483095D01*
X180157380Y-119054523D01*
X180157380Y-118435476D01*
X180157380Y-117483095D02*
X180157380Y-118054523D01*
X180157380Y-117768809D02*
X179157380Y-117768809D01*
X179300238Y-117864047D01*
X179395476Y-117959285D01*
X179443095Y-118054523D01*
X177617380Y-119387857D02*
X177141190Y-119721190D01*
X177617380Y-119959285D02*
X176617380Y-119959285D01*
X176617380Y-119578333D01*
X176665000Y-119483095D01*
X176712619Y-119435476D01*
X176807857Y-119387857D01*
X176950714Y-119387857D01*
X177045952Y-119435476D01*
X177093571Y-119483095D01*
X177141190Y-119578333D01*
X177141190Y-119959285D01*
X176712619Y-119006904D02*
X176665000Y-118959285D01*
X176617380Y-118864047D01*
X176617380Y-118625952D01*
X176665000Y-118530714D01*
X176712619Y-118483095D01*
X176807857Y-118435476D01*
X176903095Y-118435476D01*
X177045952Y-118483095D01*
X177617380Y-119054523D01*
X177617380Y-118435476D01*
X176617380Y-117816428D02*
X176617380Y-117721190D01*
X176665000Y-117625952D01*
X176712619Y-117578333D01*
X176807857Y-117530714D01*
X176998333Y-117483095D01*
X177236428Y-117483095D01*
X177426904Y-117530714D01*
X177522142Y-117578333D01*
X177569761Y-117625952D01*
X177617380Y-117721190D01*
X177617380Y-117816428D01*
X177569761Y-117911666D01*
X177522142Y-117959285D01*
X177426904Y-118006904D01*
X177236428Y-118054523D01*
X176998333Y-118054523D01*
X176807857Y-118006904D01*
X176712619Y-117959285D01*
X176665000Y-117911666D01*
X176617380Y-117816428D01*
X175077380Y-119387857D02*
X174601190Y-119721190D01*
X175077380Y-119959285D02*
X174077380Y-119959285D01*
X174077380Y-119578333D01*
X174125000Y-119483095D01*
X174172619Y-119435476D01*
X174267857Y-119387857D01*
X174410714Y-119387857D01*
X174505952Y-119435476D01*
X174553571Y-119483095D01*
X174601190Y-119578333D01*
X174601190Y-119959285D01*
X175077380Y-118435476D02*
X175077380Y-119006904D01*
X175077380Y-118721190D02*
X174077380Y-118721190D01*
X174220238Y-118816428D01*
X174315476Y-118911666D01*
X174363095Y-119006904D01*
X175077380Y-117959285D02*
X175077380Y-117768809D01*
X175029761Y-117673571D01*
X174982142Y-117625952D01*
X174839285Y-117530714D01*
X174648809Y-117483095D01*
X174267857Y-117483095D01*
X174172619Y-117530714D01*
X174125000Y-117578333D01*
X174077380Y-117673571D01*
X174077380Y-117864047D01*
X174125000Y-117959285D01*
X174172619Y-118006904D01*
X174267857Y-118054523D01*
X174505952Y-118054523D01*
X174601190Y-118006904D01*
X174648809Y-117959285D01*
X174696428Y-117864047D01*
X174696428Y-117673571D01*
X174648809Y-117578333D01*
X174601190Y-117530714D01*
X174505952Y-117483095D01*
X172537380Y-119387857D02*
X172061190Y-119721190D01*
X172537380Y-119959285D02*
X171537380Y-119959285D01*
X171537380Y-119578333D01*
X171585000Y-119483095D01*
X171632619Y-119435476D01*
X171727857Y-119387857D01*
X171870714Y-119387857D01*
X171965952Y-119435476D01*
X172013571Y-119483095D01*
X172061190Y-119578333D01*
X172061190Y-119959285D01*
X172537380Y-118435476D02*
X172537380Y-119006904D01*
X172537380Y-118721190D02*
X171537380Y-118721190D01*
X171680238Y-118816428D01*
X171775476Y-118911666D01*
X171823095Y-119006904D01*
X171965952Y-117864047D02*
X171918333Y-117959285D01*
X171870714Y-118006904D01*
X171775476Y-118054523D01*
X171727857Y-118054523D01*
X171632619Y-118006904D01*
X171585000Y-117959285D01*
X171537380Y-117864047D01*
X171537380Y-117673571D01*
X171585000Y-117578333D01*
X171632619Y-117530714D01*
X171727857Y-117483095D01*
X171775476Y-117483095D01*
X171870714Y-117530714D01*
X171918333Y-117578333D01*
X171965952Y-117673571D01*
X171965952Y-117864047D01*
X172013571Y-117959285D01*
X172061190Y-118006904D01*
X172156428Y-118054523D01*
X172346904Y-118054523D01*
X172442142Y-118006904D01*
X172489761Y-117959285D01*
X172537380Y-117864047D01*
X172537380Y-117673571D01*
X172489761Y-117578333D01*
X172442142Y-117530714D01*
X172346904Y-117483095D01*
X172156428Y-117483095D01*
X172061190Y-117530714D01*
X172013571Y-117578333D01*
X171965952Y-117673571D01*
X169997380Y-119387857D02*
X169521190Y-119721190D01*
X169997380Y-119959285D02*
X168997380Y-119959285D01*
X168997380Y-119578333D01*
X169045000Y-119483095D01*
X169092619Y-119435476D01*
X169187857Y-119387857D01*
X169330714Y-119387857D01*
X169425952Y-119435476D01*
X169473571Y-119483095D01*
X169521190Y-119578333D01*
X169521190Y-119959285D01*
X169997380Y-118435476D02*
X169997380Y-119006904D01*
X169997380Y-118721190D02*
X168997380Y-118721190D01*
X169140238Y-118816428D01*
X169235476Y-118911666D01*
X169283095Y-119006904D01*
X168997380Y-118102142D02*
X168997380Y-117435476D01*
X169997380Y-117864047D01*
X159837380Y-113037857D02*
X159361190Y-113371190D01*
X159837380Y-113609285D02*
X158837380Y-113609285D01*
X158837380Y-113228333D01*
X158885000Y-113133095D01*
X158932619Y-113085476D01*
X159027857Y-113037857D01*
X159170714Y-113037857D01*
X159265952Y-113085476D01*
X159313571Y-113133095D01*
X159361190Y-113228333D01*
X159361190Y-113609285D01*
X159837380Y-112085476D02*
X159837380Y-112656904D01*
X159837380Y-112371190D02*
X158837380Y-112371190D01*
X158980238Y-112466428D01*
X159075476Y-112561666D01*
X159123095Y-112656904D01*
X158837380Y-111228333D02*
X158837380Y-111418809D01*
X158885000Y-111514047D01*
X158932619Y-111561666D01*
X159075476Y-111656904D01*
X159265952Y-111704523D01*
X159646904Y-111704523D01*
X159742142Y-111656904D01*
X159789761Y-111609285D01*
X159837380Y-111514047D01*
X159837380Y-111323571D01*
X159789761Y-111228333D01*
X159742142Y-111180714D01*
X159646904Y-111133095D01*
X159408809Y-111133095D01*
X159313571Y-111180714D01*
X159265952Y-111228333D01*
X159218333Y-111323571D01*
X159218333Y-111514047D01*
X159265952Y-111609285D01*
X159313571Y-111656904D01*
X159408809Y-111704523D01*
X157297380Y-113037857D02*
X156821190Y-113371190D01*
X157297380Y-113609285D02*
X156297380Y-113609285D01*
X156297380Y-113228333D01*
X156345000Y-113133095D01*
X156392619Y-113085476D01*
X156487857Y-113037857D01*
X156630714Y-113037857D01*
X156725952Y-113085476D01*
X156773571Y-113133095D01*
X156821190Y-113228333D01*
X156821190Y-113609285D01*
X157297380Y-112085476D02*
X157297380Y-112656904D01*
X157297380Y-112371190D02*
X156297380Y-112371190D01*
X156440238Y-112466428D01*
X156535476Y-112561666D01*
X156583095Y-112656904D01*
X156297380Y-111180714D02*
X156297380Y-111656904D01*
X156773571Y-111704523D01*
X156725952Y-111656904D01*
X156678333Y-111561666D01*
X156678333Y-111323571D01*
X156725952Y-111228333D01*
X156773571Y-111180714D01*
X156868809Y-111133095D01*
X157106904Y-111133095D01*
X157202142Y-111180714D01*
X157249761Y-111228333D01*
X157297380Y-111323571D01*
X157297380Y-111561666D01*
X157249761Y-111656904D01*
X157202142Y-111704523D01*
X154757380Y-113037857D02*
X154281190Y-113371190D01*
X154757380Y-113609285D02*
X153757380Y-113609285D01*
X153757380Y-113228333D01*
X153805000Y-113133095D01*
X153852619Y-113085476D01*
X153947857Y-113037857D01*
X154090714Y-113037857D01*
X154185952Y-113085476D01*
X154233571Y-113133095D01*
X154281190Y-113228333D01*
X154281190Y-113609285D01*
X154757380Y-112085476D02*
X154757380Y-112656904D01*
X154757380Y-112371190D02*
X153757380Y-112371190D01*
X153900238Y-112466428D01*
X153995476Y-112561666D01*
X154043095Y-112656904D01*
X154090714Y-111228333D02*
X154757380Y-111228333D01*
X153709761Y-111466428D02*
X154424047Y-111704523D01*
X154424047Y-111085476D01*
X152217380Y-113037857D02*
X151741190Y-113371190D01*
X152217380Y-113609285D02*
X151217380Y-113609285D01*
X151217380Y-113228333D01*
X151265000Y-113133095D01*
X151312619Y-113085476D01*
X151407857Y-113037857D01*
X151550714Y-113037857D01*
X151645952Y-113085476D01*
X151693571Y-113133095D01*
X151741190Y-113228333D01*
X151741190Y-113609285D01*
X152217380Y-112085476D02*
X152217380Y-112656904D01*
X152217380Y-112371190D02*
X151217380Y-112371190D01*
X151360238Y-112466428D01*
X151455476Y-112561666D01*
X151503095Y-112656904D01*
X151217380Y-111752142D02*
X151217380Y-111133095D01*
X151598333Y-111466428D01*
X151598333Y-111323571D01*
X151645952Y-111228333D01*
X151693571Y-111180714D01*
X151788809Y-111133095D01*
X152026904Y-111133095D01*
X152122142Y-111180714D01*
X152169761Y-111228333D01*
X152217380Y-111323571D01*
X152217380Y-111609285D01*
X152169761Y-111704523D01*
X152122142Y-111752142D01*
X149677380Y-113037857D02*
X149201190Y-113371190D01*
X149677380Y-113609285D02*
X148677380Y-113609285D01*
X148677380Y-113228333D01*
X148725000Y-113133095D01*
X148772619Y-113085476D01*
X148867857Y-113037857D01*
X149010714Y-113037857D01*
X149105952Y-113085476D01*
X149153571Y-113133095D01*
X149201190Y-113228333D01*
X149201190Y-113609285D01*
X149677380Y-112085476D02*
X149677380Y-112656904D01*
X149677380Y-112371190D02*
X148677380Y-112371190D01*
X148820238Y-112466428D01*
X148915476Y-112561666D01*
X148963095Y-112656904D01*
X148772619Y-111704523D02*
X148725000Y-111656904D01*
X148677380Y-111561666D01*
X148677380Y-111323571D01*
X148725000Y-111228333D01*
X148772619Y-111180714D01*
X148867857Y-111133095D01*
X148963095Y-111133095D01*
X149105952Y-111180714D01*
X149677380Y-111752142D01*
X149677380Y-111133095D01*
X147137380Y-113037857D02*
X146661190Y-113371190D01*
X147137380Y-113609285D02*
X146137380Y-113609285D01*
X146137380Y-113228333D01*
X146185000Y-113133095D01*
X146232619Y-113085476D01*
X146327857Y-113037857D01*
X146470714Y-113037857D01*
X146565952Y-113085476D01*
X146613571Y-113133095D01*
X146661190Y-113228333D01*
X146661190Y-113609285D01*
X147137380Y-112085476D02*
X147137380Y-112656904D01*
X147137380Y-112371190D02*
X146137380Y-112371190D01*
X146280238Y-112466428D01*
X146375476Y-112561666D01*
X146423095Y-112656904D01*
X147137380Y-111133095D02*
X147137380Y-111704523D01*
X147137380Y-111418809D02*
X146137380Y-111418809D01*
X146280238Y-111514047D01*
X146375476Y-111609285D01*
X146423095Y-111704523D01*
X182697380Y-113037857D02*
X182221190Y-113371190D01*
X182697380Y-113609285D02*
X181697380Y-113609285D01*
X181697380Y-113228333D01*
X181745000Y-113133095D01*
X181792619Y-113085476D01*
X181887857Y-113037857D01*
X182030714Y-113037857D01*
X182125952Y-113085476D01*
X182173571Y-113133095D01*
X182221190Y-113228333D01*
X182221190Y-113609285D01*
X182697380Y-112085476D02*
X182697380Y-112656904D01*
X182697380Y-112371190D02*
X181697380Y-112371190D01*
X181840238Y-112466428D01*
X181935476Y-112561666D01*
X181983095Y-112656904D01*
X181697380Y-111466428D02*
X181697380Y-111371190D01*
X181745000Y-111275952D01*
X181792619Y-111228333D01*
X181887857Y-111180714D01*
X182078333Y-111133095D01*
X182316428Y-111133095D01*
X182506904Y-111180714D01*
X182602142Y-111228333D01*
X182649761Y-111275952D01*
X182697380Y-111371190D01*
X182697380Y-111466428D01*
X182649761Y-111561666D01*
X182602142Y-111609285D01*
X182506904Y-111656904D01*
X182316428Y-111704523D01*
X182078333Y-111704523D01*
X181887857Y-111656904D01*
X181792619Y-111609285D01*
X181745000Y-111561666D01*
X181697380Y-111466428D01*
X180157380Y-112561666D02*
X179681190Y-112895000D01*
X180157380Y-113133095D02*
X179157380Y-113133095D01*
X179157380Y-112752142D01*
X179205000Y-112656904D01*
X179252619Y-112609285D01*
X179347857Y-112561666D01*
X179490714Y-112561666D01*
X179585952Y-112609285D01*
X179633571Y-112656904D01*
X179681190Y-112752142D01*
X179681190Y-113133095D01*
X180157380Y-112085476D02*
X180157380Y-111895000D01*
X180109761Y-111799761D01*
X180062142Y-111752142D01*
X179919285Y-111656904D01*
X179728809Y-111609285D01*
X179347857Y-111609285D01*
X179252619Y-111656904D01*
X179205000Y-111704523D01*
X179157380Y-111799761D01*
X179157380Y-111990238D01*
X179205000Y-112085476D01*
X179252619Y-112133095D01*
X179347857Y-112180714D01*
X179585952Y-112180714D01*
X179681190Y-112133095D01*
X179728809Y-112085476D01*
X179776428Y-111990238D01*
X179776428Y-111799761D01*
X179728809Y-111704523D01*
X179681190Y-111656904D01*
X179585952Y-111609285D01*
X177617380Y-112561666D02*
X177141190Y-112895000D01*
X177617380Y-113133095D02*
X176617380Y-113133095D01*
X176617380Y-112752142D01*
X176665000Y-112656904D01*
X176712619Y-112609285D01*
X176807857Y-112561666D01*
X176950714Y-112561666D01*
X177045952Y-112609285D01*
X177093571Y-112656904D01*
X177141190Y-112752142D01*
X177141190Y-113133095D01*
X177045952Y-111990238D02*
X176998333Y-112085476D01*
X176950714Y-112133095D01*
X176855476Y-112180714D01*
X176807857Y-112180714D01*
X176712619Y-112133095D01*
X176665000Y-112085476D01*
X176617380Y-111990238D01*
X176617380Y-111799761D01*
X176665000Y-111704523D01*
X176712619Y-111656904D01*
X176807857Y-111609285D01*
X176855476Y-111609285D01*
X176950714Y-111656904D01*
X176998333Y-111704523D01*
X177045952Y-111799761D01*
X177045952Y-111990238D01*
X177093571Y-112085476D01*
X177141190Y-112133095D01*
X177236428Y-112180714D01*
X177426904Y-112180714D01*
X177522142Y-112133095D01*
X177569761Y-112085476D01*
X177617380Y-111990238D01*
X177617380Y-111799761D01*
X177569761Y-111704523D01*
X177522142Y-111656904D01*
X177426904Y-111609285D01*
X177236428Y-111609285D01*
X177141190Y-111656904D01*
X177093571Y-111704523D01*
X177045952Y-111799761D01*
X175077380Y-112561666D02*
X174601190Y-112895000D01*
X175077380Y-113133095D02*
X174077380Y-113133095D01*
X174077380Y-112752142D01*
X174125000Y-112656904D01*
X174172619Y-112609285D01*
X174267857Y-112561666D01*
X174410714Y-112561666D01*
X174505952Y-112609285D01*
X174553571Y-112656904D01*
X174601190Y-112752142D01*
X174601190Y-113133095D01*
X174077380Y-112228333D02*
X174077380Y-111561666D01*
X175077380Y-111990238D01*
X172537380Y-112561666D02*
X172061190Y-112895000D01*
X172537380Y-113133095D02*
X171537380Y-113133095D01*
X171537380Y-112752142D01*
X171585000Y-112656904D01*
X171632619Y-112609285D01*
X171727857Y-112561666D01*
X171870714Y-112561666D01*
X171965952Y-112609285D01*
X172013571Y-112656904D01*
X172061190Y-112752142D01*
X172061190Y-113133095D01*
X171537380Y-111704523D02*
X171537380Y-111895000D01*
X171585000Y-111990238D01*
X171632619Y-112037857D01*
X171775476Y-112133095D01*
X171965952Y-112180714D01*
X172346904Y-112180714D01*
X172442142Y-112133095D01*
X172489761Y-112085476D01*
X172537380Y-111990238D01*
X172537380Y-111799761D01*
X172489761Y-111704523D01*
X172442142Y-111656904D01*
X172346904Y-111609285D01*
X172108809Y-111609285D01*
X172013571Y-111656904D01*
X171965952Y-111704523D01*
X171918333Y-111799761D01*
X171918333Y-111990238D01*
X171965952Y-112085476D01*
X172013571Y-112133095D01*
X172108809Y-112180714D01*
X169997380Y-112561666D02*
X169521190Y-112895000D01*
X169997380Y-113133095D02*
X168997380Y-113133095D01*
X168997380Y-112752142D01*
X169045000Y-112656904D01*
X169092619Y-112609285D01*
X169187857Y-112561666D01*
X169330714Y-112561666D01*
X169425952Y-112609285D01*
X169473571Y-112656904D01*
X169521190Y-112752142D01*
X169521190Y-113133095D01*
X168997380Y-111656904D02*
X168997380Y-112133095D01*
X169473571Y-112180714D01*
X169425952Y-112133095D01*
X169378333Y-112037857D01*
X169378333Y-111799761D01*
X169425952Y-111704523D01*
X169473571Y-111656904D01*
X169568809Y-111609285D01*
X169806904Y-111609285D01*
X169902142Y-111656904D01*
X169949761Y-111704523D01*
X169997380Y-111799761D01*
X169997380Y-112037857D01*
X169949761Y-112133095D01*
X169902142Y-112180714D01*
X144597380Y-112688666D02*
X144121190Y-113022000D01*
X144597380Y-113260095D02*
X143597380Y-113260095D01*
X143597380Y-112879142D01*
X143645000Y-112783904D01*
X143692619Y-112736285D01*
X143787857Y-112688666D01*
X143930714Y-112688666D01*
X144025952Y-112736285D01*
X144073571Y-112783904D01*
X144121190Y-112879142D01*
X144121190Y-113260095D01*
X143930714Y-111831523D02*
X144597380Y-111831523D01*
X143549761Y-112069619D02*
X144264047Y-112307714D01*
X144264047Y-111688666D01*
X167457380Y-112561666D02*
X166981190Y-112895000D01*
X167457380Y-113133095D02*
X166457380Y-113133095D01*
X166457380Y-112752142D01*
X166505000Y-112656904D01*
X166552619Y-112609285D01*
X166647857Y-112561666D01*
X166790714Y-112561666D01*
X166885952Y-112609285D01*
X166933571Y-112656904D01*
X166981190Y-112752142D01*
X166981190Y-113133095D01*
X166457380Y-112228333D02*
X166457380Y-111609285D01*
X166838333Y-111942619D01*
X166838333Y-111799761D01*
X166885952Y-111704523D01*
X166933571Y-111656904D01*
X167028809Y-111609285D01*
X167266904Y-111609285D01*
X167362142Y-111656904D01*
X167409761Y-111704523D01*
X167457380Y-111799761D01*
X167457380Y-112085476D01*
X167409761Y-112180714D01*
X167362142Y-112228333D01*
X122388333Y-110688380D02*
X122055000Y-110212190D01*
X121816904Y-110688380D02*
X121816904Y-109688380D01*
X122197857Y-109688380D01*
X122293095Y-109736000D01*
X122340714Y-109783619D01*
X122388333Y-109878857D01*
X122388333Y-110021714D01*
X122340714Y-110116952D01*
X122293095Y-110164571D01*
X122197857Y-110212190D01*
X121816904Y-110212190D01*
X122769285Y-109783619D02*
X122816904Y-109736000D01*
X122912142Y-109688380D01*
X123150238Y-109688380D01*
X123245476Y-109736000D01*
X123293095Y-109783619D01*
X123340714Y-109878857D01*
X123340714Y-109974095D01*
X123293095Y-110116952D01*
X122721666Y-110688380D01*
X123340714Y-110688380D01*
X125563333Y-110688380D02*
X125230000Y-110212190D01*
X124991904Y-110688380D02*
X124991904Y-109688380D01*
X125372857Y-109688380D01*
X125468095Y-109736000D01*
X125515714Y-109783619D01*
X125563333Y-109878857D01*
X125563333Y-110021714D01*
X125515714Y-110116952D01*
X125468095Y-110164571D01*
X125372857Y-110212190D01*
X124991904Y-110212190D01*
X126515714Y-110688380D02*
X125944285Y-110688380D01*
X126230000Y-110688380D02*
X126230000Y-109688380D01*
X126134761Y-109831238D01*
X126039523Y-109926476D01*
X125944285Y-109974095D01*
X107402380Y-127841333D02*
X108116666Y-127841333D01*
X108259523Y-127888952D01*
X108354761Y-127984190D01*
X108402380Y-128127047D01*
X108402380Y-128222285D01*
X107402380Y-127460380D02*
X107402380Y-126793714D01*
X108402380Y-127222285D01*
X136064666Y-130770380D02*
X136064666Y-131484666D01*
X136017047Y-131627523D01*
X135921809Y-131722761D01*
X135778952Y-131770380D01*
X135683714Y-131770380D01*
X137017047Y-130770380D02*
X136540857Y-130770380D01*
X136493238Y-131246571D01*
X136540857Y-131198952D01*
X136636095Y-131151333D01*
X136874190Y-131151333D01*
X136969428Y-131198952D01*
X137017047Y-131246571D01*
X137064666Y-131341809D01*
X137064666Y-131579904D01*
X137017047Y-131675142D01*
X136969428Y-131722761D01*
X136874190Y-131770380D01*
X136636095Y-131770380D01*
X136540857Y-131722761D01*
X136493238Y-131675142D01*
X141906666Y-107402380D02*
X141906666Y-108116666D01*
X141859047Y-108259523D01*
X141763809Y-108354761D01*
X141620952Y-108402380D01*
X141525714Y-108402380D01*
X142811428Y-107735714D02*
X142811428Y-108402380D01*
X142573333Y-107354761D02*
X142335238Y-108069047D01*
X142954285Y-108069047D01*
X164766666Y-107402380D02*
X164766666Y-108116666D01*
X164719047Y-108259523D01*
X164623809Y-108354761D01*
X164480952Y-108402380D01*
X164385714Y-108402380D01*
X165147619Y-107402380D02*
X165766666Y-107402380D01*
X165433333Y-107783333D01*
X165576190Y-107783333D01*
X165671428Y-107830952D01*
X165719047Y-107878571D01*
X165766666Y-107973809D01*
X165766666Y-108211904D01*
X165719047Y-108307142D01*
X165671428Y-108354761D01*
X165576190Y-108402380D01*
X165290476Y-108402380D01*
X165195238Y-108354761D01*
X165147619Y-108307142D01*
X138858666Y-107402380D02*
X138858666Y-108116666D01*
X138811047Y-108259523D01*
X138715809Y-108354761D01*
X138572952Y-108402380D01*
X138477714Y-108402380D01*
X139287238Y-107497619D02*
X139334857Y-107450000D01*
X139430095Y-107402380D01*
X139668190Y-107402380D01*
X139763428Y-107450000D01*
X139811047Y-107497619D01*
X139858666Y-107592857D01*
X139858666Y-107688095D01*
X139811047Y-107830952D01*
X139239619Y-108402380D01*
X139858666Y-108402380D01*
X115236666Y-101687380D02*
X115236666Y-102401666D01*
X115189047Y-102544523D01*
X115093809Y-102639761D01*
X114950952Y-102687380D01*
X114855714Y-102687380D01*
X116236666Y-102687380D02*
X115665238Y-102687380D01*
X115950952Y-102687380D02*
X115950952Y-101687380D01*
X115855714Y-101830238D01*
X115760476Y-101925476D01*
X115665238Y-101973095D01*
X151582380Y-137898095D02*
X150582380Y-137898095D01*
X150582380Y-137660000D01*
X150630000Y-137517142D01*
X150725238Y-137421904D01*
X150820476Y-137374285D01*
X151010952Y-137326666D01*
X151153809Y-137326666D01*
X151344285Y-137374285D01*
X151439523Y-137421904D01*
X151534761Y-137517142D01*
X151582380Y-137660000D01*
X151582380Y-137898095D01*
X150915714Y-136469523D02*
X151582380Y-136469523D01*
X150534761Y-136707619D02*
X151249047Y-136945714D01*
X151249047Y-136326666D01*
X151582380Y-134723095D02*
X150582380Y-134723095D01*
X150582380Y-134485000D01*
X150630000Y-134342142D01*
X150725238Y-134246904D01*
X150820476Y-134199285D01*
X151010952Y-134151666D01*
X151153809Y-134151666D01*
X151344285Y-134199285D01*
X151439523Y-134246904D01*
X151534761Y-134342142D01*
X151582380Y-134485000D01*
X151582380Y-134723095D01*
X150582380Y-133818333D02*
X150582380Y-133199285D01*
X150963333Y-133532619D01*
X150963333Y-133389761D01*
X151010952Y-133294523D01*
X151058571Y-133246904D01*
X151153809Y-133199285D01*
X151391904Y-133199285D01*
X151487142Y-133246904D01*
X151534761Y-133294523D01*
X151582380Y-133389761D01*
X151582380Y-133675476D01*
X151534761Y-133770714D01*
X151487142Y-133818333D01*
X166822380Y-137898095D02*
X165822380Y-137898095D01*
X165822380Y-137660000D01*
X165870000Y-137517142D01*
X165965238Y-137421904D01*
X166060476Y-137374285D01*
X166250952Y-137326666D01*
X166393809Y-137326666D01*
X166584285Y-137374285D01*
X166679523Y-137421904D01*
X166774761Y-137517142D01*
X166822380Y-137660000D01*
X166822380Y-137898095D01*
X165917619Y-136945714D02*
X165870000Y-136898095D01*
X165822380Y-136802857D01*
X165822380Y-136564761D01*
X165870000Y-136469523D01*
X165917619Y-136421904D01*
X166012857Y-136374285D01*
X166108095Y-136374285D01*
X166250952Y-136421904D01*
X166822380Y-136993333D01*
X166822380Y-136374285D01*
X166822380Y-134723095D02*
X165822380Y-134723095D01*
X165822380Y-134485000D01*
X165870000Y-134342142D01*
X165965238Y-134246904D01*
X166060476Y-134199285D01*
X166250952Y-134151666D01*
X166393809Y-134151666D01*
X166584285Y-134199285D01*
X166679523Y-134246904D01*
X166774761Y-134342142D01*
X166822380Y-134485000D01*
X166822380Y-134723095D01*
X166822380Y-133199285D02*
X166822380Y-133770714D01*
X166822380Y-133485000D02*
X165822380Y-133485000D01*
X165965238Y-133580238D01*
X166060476Y-133675476D01*
X166108095Y-133770714D01*
X108972142Y-129897142D02*
X108924523Y-129944761D01*
X108781666Y-129992380D01*
X108686428Y-129992380D01*
X108543571Y-129944761D01*
X108448333Y-129849523D01*
X108400714Y-129754285D01*
X108353095Y-129563809D01*
X108353095Y-129420952D01*
X108400714Y-129230476D01*
X108448333Y-129135238D01*
X108543571Y-129040000D01*
X108686428Y-128992380D01*
X108781666Y-128992380D01*
X108924523Y-129040000D01*
X108972142Y-129087619D01*
X109924523Y-129992380D02*
X109353095Y-129992380D01*
X109638809Y-129992380D02*
X109638809Y-128992380D01*
X109543571Y-129135238D01*
X109448333Y-129230476D01*
X109353095Y-129278095D01*
X110257857Y-128992380D02*
X110924523Y-128992380D01*
X110495952Y-129992380D01*
X114292142Y-113862142D02*
X114244523Y-113909761D01*
X114101666Y-113957380D01*
X114006428Y-113957380D01*
X113863571Y-113909761D01*
X113768333Y-113814523D01*
X113720714Y-113719285D01*
X113673095Y-113528809D01*
X113673095Y-113385952D01*
X113720714Y-113195476D01*
X113768333Y-113100238D01*
X113863571Y-113005000D01*
X114006428Y-112957380D01*
X114101666Y-112957380D01*
X114244523Y-113005000D01*
X114292142Y-113052619D01*
X115244523Y-113957380D02*
X114673095Y-113957380D01*
X114958809Y-113957380D02*
X114958809Y-112957380D01*
X114863571Y-113100238D01*
X114768333Y-113195476D01*
X114673095Y-113243095D01*
X116101666Y-112957380D02*
X115911190Y-112957380D01*
X115815952Y-113005000D01*
X115768333Y-113052619D01*
X115673095Y-113195476D01*
X115625476Y-113385952D01*
X115625476Y-113766904D01*
X115673095Y-113862142D01*
X115720714Y-113909761D01*
X115815952Y-113957380D01*
X116006428Y-113957380D01*
X116101666Y-113909761D01*
X116149285Y-113862142D01*
X116196904Y-113766904D01*
X116196904Y-113528809D01*
X116149285Y-113433571D01*
X116101666Y-113385952D01*
X116006428Y-113338333D01*
X115815952Y-113338333D01*
X115720714Y-113385952D01*
X115673095Y-113433571D01*
X115625476Y-113528809D01*
X110482142Y-113862142D02*
X110434523Y-113909761D01*
X110291666Y-113957380D01*
X110196428Y-113957380D01*
X110053571Y-113909761D01*
X109958333Y-113814523D01*
X109910714Y-113719285D01*
X109863095Y-113528809D01*
X109863095Y-113385952D01*
X109910714Y-113195476D01*
X109958333Y-113100238D01*
X110053571Y-113005000D01*
X110196428Y-112957380D01*
X110291666Y-112957380D01*
X110434523Y-113005000D01*
X110482142Y-113052619D01*
X111434523Y-113957380D02*
X110863095Y-113957380D01*
X111148809Y-113957380D02*
X111148809Y-112957380D01*
X111053571Y-113100238D01*
X110958333Y-113195476D01*
X110863095Y-113243095D01*
X112339285Y-112957380D02*
X111863095Y-112957380D01*
X111815476Y-113433571D01*
X111863095Y-113385952D01*
X111958333Y-113338333D01*
X112196428Y-113338333D01*
X112291666Y-113385952D01*
X112339285Y-113433571D01*
X112386904Y-113528809D01*
X112386904Y-113766904D01*
X112339285Y-113862142D01*
X112291666Y-113909761D01*
X112196428Y-113957380D01*
X111958333Y-113957380D01*
X111863095Y-113909761D01*
X111815476Y-113862142D01*
X109847142Y-125737857D02*
X109894761Y-125785476D01*
X109942380Y-125928333D01*
X109942380Y-126023571D01*
X109894761Y-126166428D01*
X109799523Y-126261666D01*
X109704285Y-126309285D01*
X109513809Y-126356904D01*
X109370952Y-126356904D01*
X109180476Y-126309285D01*
X109085238Y-126261666D01*
X108990000Y-126166428D01*
X108942380Y-126023571D01*
X108942380Y-125928333D01*
X108990000Y-125785476D01*
X109037619Y-125737857D01*
X109942380Y-124785476D02*
X109942380Y-125356904D01*
X109942380Y-125071190D02*
X108942380Y-125071190D01*
X109085238Y-125166428D01*
X109180476Y-125261666D01*
X109228095Y-125356904D01*
X109275714Y-123928333D02*
X109942380Y-123928333D01*
X108894761Y-124166428D02*
X109609047Y-124404523D01*
X109609047Y-123785476D01*
X118467142Y-122816857D02*
X118514761Y-122864476D01*
X118562380Y-123007333D01*
X118562380Y-123102571D01*
X118514761Y-123245428D01*
X118419523Y-123340666D01*
X118324285Y-123388285D01*
X118133809Y-123435904D01*
X117990952Y-123435904D01*
X117800476Y-123388285D01*
X117705238Y-123340666D01*
X117610000Y-123245428D01*
X117562380Y-123102571D01*
X117562380Y-123007333D01*
X117610000Y-122864476D01*
X117657619Y-122816857D01*
X118562380Y-121864476D02*
X118562380Y-122435904D01*
X118562380Y-122150190D02*
X117562380Y-122150190D01*
X117705238Y-122245428D01*
X117800476Y-122340666D01*
X117848095Y-122435904D01*
X117562380Y-121531142D02*
X117562380Y-120912095D01*
X117943333Y-121245428D01*
X117943333Y-121102571D01*
X117990952Y-121007333D01*
X118038571Y-120959714D01*
X118133809Y-120912095D01*
X118371904Y-120912095D01*
X118467142Y-120959714D01*
X118514761Y-121007333D01*
X118562380Y-121102571D01*
X118562380Y-121388285D01*
X118514761Y-121483523D01*
X118467142Y-121531142D01*
X163187142Y-122117142D02*
X163139523Y-122164761D01*
X162996666Y-122212380D01*
X162901428Y-122212380D01*
X162758571Y-122164761D01*
X162663333Y-122069523D01*
X162615714Y-121974285D01*
X162568095Y-121783809D01*
X162568095Y-121640952D01*
X162615714Y-121450476D01*
X162663333Y-121355238D01*
X162758571Y-121260000D01*
X162901428Y-121212380D01*
X162996666Y-121212380D01*
X163139523Y-121260000D01*
X163187142Y-121307619D01*
X164139523Y-122212380D02*
X163568095Y-122212380D01*
X163853809Y-122212380D02*
X163853809Y-121212380D01*
X163758571Y-121355238D01*
X163663333Y-121450476D01*
X163568095Y-121498095D01*
X164520476Y-121307619D02*
X164568095Y-121260000D01*
X164663333Y-121212380D01*
X164901428Y-121212380D01*
X164996666Y-121260000D01*
X165044285Y-121307619D01*
X165091904Y-121402857D01*
X165091904Y-121498095D01*
X165044285Y-121640952D01*
X164472857Y-122212380D01*
X165091904Y-122212380D01*
X159377142Y-133961142D02*
X159329523Y-134008761D01*
X159186666Y-134056380D01*
X159091428Y-134056380D01*
X158948571Y-134008761D01*
X158853333Y-133913523D01*
X158805714Y-133818285D01*
X158758095Y-133627809D01*
X158758095Y-133484952D01*
X158805714Y-133294476D01*
X158853333Y-133199238D01*
X158948571Y-133104000D01*
X159091428Y-133056380D01*
X159186666Y-133056380D01*
X159329523Y-133104000D01*
X159377142Y-133151619D01*
X160329523Y-134056380D02*
X159758095Y-134056380D01*
X160043809Y-134056380D02*
X160043809Y-133056380D01*
X159948571Y-133199238D01*
X159853333Y-133294476D01*
X159758095Y-133342095D01*
X161281904Y-134056380D02*
X160710476Y-134056380D01*
X160996190Y-134056380D02*
X160996190Y-133056380D01*
X160900952Y-133199238D01*
X160805714Y-133294476D01*
X160710476Y-133342095D01*
X130802142Y-110593142D02*
X130754523Y-110640761D01*
X130611666Y-110688380D01*
X130516428Y-110688380D01*
X130373571Y-110640761D01*
X130278333Y-110545523D01*
X130230714Y-110450285D01*
X130183095Y-110259809D01*
X130183095Y-110116952D01*
X130230714Y-109926476D01*
X130278333Y-109831238D01*
X130373571Y-109736000D01*
X130516428Y-109688380D01*
X130611666Y-109688380D01*
X130754523Y-109736000D01*
X130802142Y-109783619D01*
X131754523Y-110688380D02*
X131183095Y-110688380D01*
X131468809Y-110688380D02*
X131468809Y-109688380D01*
X131373571Y-109831238D01*
X131278333Y-109926476D01*
X131183095Y-109974095D01*
X132373571Y-109688380D02*
X132468809Y-109688380D01*
X132564047Y-109736000D01*
X132611666Y-109783619D01*
X132659285Y-109878857D01*
X132706904Y-110069333D01*
X132706904Y-110307428D01*
X132659285Y-110497904D01*
X132611666Y-110593142D01*
X132564047Y-110640761D01*
X132468809Y-110688380D01*
X132373571Y-110688380D01*
X132278333Y-110640761D01*
X132230714Y-110593142D01*
X132183095Y-110497904D01*
X132135476Y-110307428D01*
X132135476Y-110069333D01*
X132183095Y-109878857D01*
X132230714Y-109783619D01*
X132278333Y-109736000D01*
X132373571Y-109688380D01*
X127468333Y-122912142D02*
X127420714Y-122959761D01*
X127277857Y-123007380D01*
X127182619Y-123007380D01*
X127039761Y-122959761D01*
X126944523Y-122864523D01*
X126896904Y-122769285D01*
X126849285Y-122578809D01*
X126849285Y-122435952D01*
X126896904Y-122245476D01*
X126944523Y-122150238D01*
X127039761Y-122055000D01*
X127182619Y-122007380D01*
X127277857Y-122007380D01*
X127420714Y-122055000D01*
X127468333Y-122102619D01*
X127944523Y-123007380D02*
X128135000Y-123007380D01*
X128230238Y-122959761D01*
X128277857Y-122912142D01*
X128373095Y-122769285D01*
X128420714Y-122578809D01*
X128420714Y-122197857D01*
X128373095Y-122102619D01*
X128325476Y-122055000D01*
X128230238Y-122007380D01*
X128039761Y-122007380D01*
X127944523Y-122055000D01*
X127896904Y-122102619D01*
X127849285Y-122197857D01*
X127849285Y-122435952D01*
X127896904Y-122531190D01*
X127944523Y-122578809D01*
X128039761Y-122626428D01*
X128230238Y-122626428D01*
X128325476Y-122578809D01*
X128373095Y-122531190D01*
X128420714Y-122435952D01*
X114833333Y-111482142D02*
X114785714Y-111529761D01*
X114642857Y-111577380D01*
X114547619Y-111577380D01*
X114404761Y-111529761D01*
X114309523Y-111434523D01*
X114261904Y-111339285D01*
X114214285Y-111148809D01*
X114214285Y-111005952D01*
X114261904Y-110815476D01*
X114309523Y-110720238D01*
X114404761Y-110625000D01*
X114547619Y-110577380D01*
X114642857Y-110577380D01*
X114785714Y-110625000D01*
X114833333Y-110672619D01*
X115404761Y-111005952D02*
X115309523Y-110958333D01*
X115261904Y-110910714D01*
X115214285Y-110815476D01*
X115214285Y-110767857D01*
X115261904Y-110672619D01*
X115309523Y-110625000D01*
X115404761Y-110577380D01*
X115595238Y-110577380D01*
X115690476Y-110625000D01*
X115738095Y-110672619D01*
X115785714Y-110767857D01*
X115785714Y-110815476D01*
X115738095Y-110910714D01*
X115690476Y-110958333D01*
X115595238Y-111005952D01*
X115404761Y-111005952D01*
X115309523Y-111053571D01*
X115261904Y-111101190D01*
X115214285Y-111196428D01*
X115214285Y-111386904D01*
X115261904Y-111482142D01*
X115309523Y-111529761D01*
X115404761Y-111577380D01*
X115595238Y-111577380D01*
X115690476Y-111529761D01*
X115738095Y-111482142D01*
X115785714Y-111386904D01*
X115785714Y-111196428D01*
X115738095Y-111101190D01*
X115690476Y-111053571D01*
X115595238Y-111005952D01*
X112083333Y-102002142D02*
X112035714Y-102049761D01*
X111892857Y-102097380D01*
X111797619Y-102097380D01*
X111654761Y-102049761D01*
X111559523Y-101954523D01*
X111511904Y-101859285D01*
X111464285Y-101668809D01*
X111464285Y-101525952D01*
X111511904Y-101335476D01*
X111559523Y-101240238D01*
X111654761Y-101145000D01*
X111797619Y-101097380D01*
X111892857Y-101097380D01*
X112035714Y-101145000D01*
X112083333Y-101192619D01*
X112416666Y-101097380D02*
X113083333Y-101097380D01*
X112654761Y-102097380D01*
X140295333Y-136882142D02*
X140247714Y-136929761D01*
X140104857Y-136977380D01*
X140009619Y-136977380D01*
X139866761Y-136929761D01*
X139771523Y-136834523D01*
X139723904Y-136739285D01*
X139676285Y-136548809D01*
X139676285Y-136405952D01*
X139723904Y-136215476D01*
X139771523Y-136120238D01*
X139866761Y-136025000D01*
X140009619Y-135977380D01*
X140104857Y-135977380D01*
X140247714Y-136025000D01*
X140295333Y-136072619D01*
X141152476Y-135977380D02*
X140962000Y-135977380D01*
X140866761Y-136025000D01*
X140819142Y-136072619D01*
X140723904Y-136215476D01*
X140676285Y-136405952D01*
X140676285Y-136786904D01*
X140723904Y-136882142D01*
X140771523Y-136929761D01*
X140866761Y-136977380D01*
X141057238Y-136977380D01*
X141152476Y-136929761D01*
X141200095Y-136882142D01*
X141247714Y-136786904D01*
X141247714Y-136548809D01*
X141200095Y-136453571D01*
X141152476Y-136405952D01*
X141057238Y-136358333D01*
X140866761Y-136358333D01*
X140771523Y-136405952D01*
X140723904Y-136453571D01*
X140676285Y-136548809D01*
X140295333Y-123039142D02*
X140247714Y-123086761D01*
X140104857Y-123134380D01*
X140009619Y-123134380D01*
X139866761Y-123086761D01*
X139771523Y-122991523D01*
X139723904Y-122896285D01*
X139676285Y-122705809D01*
X139676285Y-122562952D01*
X139723904Y-122372476D01*
X139771523Y-122277238D01*
X139866761Y-122182000D01*
X140009619Y-122134380D01*
X140104857Y-122134380D01*
X140247714Y-122182000D01*
X140295333Y-122229619D01*
X141200095Y-122134380D02*
X140723904Y-122134380D01*
X140676285Y-122610571D01*
X140723904Y-122562952D01*
X140819142Y-122515333D01*
X141057238Y-122515333D01*
X141152476Y-122562952D01*
X141200095Y-122610571D01*
X141247714Y-122705809D01*
X141247714Y-122943904D01*
X141200095Y-123039142D01*
X141152476Y-123086761D01*
X141057238Y-123134380D01*
X140819142Y-123134380D01*
X140723904Y-123086761D01*
X140676285Y-123039142D01*
X128103333Y-110593142D02*
X128055714Y-110640761D01*
X127912857Y-110688380D01*
X127817619Y-110688380D01*
X127674761Y-110640761D01*
X127579523Y-110545523D01*
X127531904Y-110450285D01*
X127484285Y-110259809D01*
X127484285Y-110116952D01*
X127531904Y-109926476D01*
X127579523Y-109831238D01*
X127674761Y-109736000D01*
X127817619Y-109688380D01*
X127912857Y-109688380D01*
X128055714Y-109736000D01*
X128103333Y-109783619D01*
X128960476Y-110021714D02*
X128960476Y-110688380D01*
X128722380Y-109640761D02*
X128484285Y-110355047D01*
X129103333Y-110355047D01*
X131278333Y-122912142D02*
X131230714Y-122959761D01*
X131087857Y-123007380D01*
X130992619Y-123007380D01*
X130849761Y-122959761D01*
X130754523Y-122864523D01*
X130706904Y-122769285D01*
X130659285Y-122578809D01*
X130659285Y-122435952D01*
X130706904Y-122245476D01*
X130754523Y-122150238D01*
X130849761Y-122055000D01*
X130992619Y-122007380D01*
X131087857Y-122007380D01*
X131230714Y-122055000D01*
X131278333Y-122102619D01*
X131611666Y-122007380D02*
X132230714Y-122007380D01*
X131897380Y-122388333D01*
X132040238Y-122388333D01*
X132135476Y-122435952D01*
X132183095Y-122483571D01*
X132230714Y-122578809D01*
X132230714Y-122816904D01*
X132183095Y-122912142D01*
X132135476Y-122959761D01*
X132040238Y-123007380D01*
X131754523Y-123007380D01*
X131659285Y-122959761D01*
X131611666Y-122912142D01*
X175093333Y-136357142D02*
X175045714Y-136404761D01*
X174902857Y-136452380D01*
X174807619Y-136452380D01*
X174664761Y-136404761D01*
X174569523Y-136309523D01*
X174521904Y-136214285D01*
X174474285Y-136023809D01*
X174474285Y-135880952D01*
X174521904Y-135690476D01*
X174569523Y-135595238D01*
X174664761Y-135500000D01*
X174807619Y-135452380D01*
X174902857Y-135452380D01*
X175045714Y-135500000D01*
X175093333Y-135547619D01*
X175474285Y-135547619D02*
X175521904Y-135500000D01*
X175617142Y-135452380D01*
X175855238Y-135452380D01*
X175950476Y-135500000D01*
X175998095Y-135547619D01*
X176045714Y-135642857D01*
X176045714Y-135738095D01*
X175998095Y-135880952D01*
X175426666Y-136452380D01*
X176045714Y-136452380D01*
X175093333Y-122277142D02*
X175045714Y-122324761D01*
X174902857Y-122372380D01*
X174807619Y-122372380D01*
X174664761Y-122324761D01*
X174569523Y-122229523D01*
X174521904Y-122134285D01*
X174474285Y-121943809D01*
X174474285Y-121800952D01*
X174521904Y-121610476D01*
X174569523Y-121515238D01*
X174664761Y-121420000D01*
X174807619Y-121372380D01*
X174902857Y-121372380D01*
X175045714Y-121420000D01*
X175093333Y-121467619D01*
X176045714Y-122372380D02*
X175474285Y-122372380D01*
X175760000Y-122372380D02*
X175760000Y-121372380D01*
X175664761Y-121515238D01*
X175569523Y-121610476D01*
X175474285Y-121658095D01*
%LPC*%
D12*
X104140000Y-113625000D03*
G36*
G01*
X103354706Y-110225000D02*
X104925294Y-110225000D01*
G75*
G02*
X105190000Y-110489706I0J-264706D01*
G01*
X105190000Y-111760294D01*
G75*
G02*
X104925294Y-112025000I-264706J0D01*
G01*
X103354706Y-112025000D01*
G75*
G02*
X103090000Y-111760294I0J264706D01*
G01*
X103090000Y-110489706D01*
G75*
G02*
X103354706Y-110225000I264706J0D01*
G01*
G37*
D13*
X164000000Y-117000000D03*
X104000000Y-104000000D03*
X122555000Y-134000000D03*
G36*
G01*
X115395000Y-125475000D02*
X115745000Y-125475000D01*
G75*
G02*
X115920000Y-125650000I0J-175000D01*
G01*
X115920000Y-127150000D01*
G75*
G02*
X115745000Y-127325000I-175000J0D01*
G01*
X115395000Y-127325000D01*
G75*
G02*
X115220000Y-127150000I0J175000D01*
G01*
X115220000Y-125650000D01*
G75*
G02*
X115395000Y-125475000I175000J0D01*
G01*
G37*
G36*
G01*
X114125000Y-125475000D02*
X114475000Y-125475000D01*
G75*
G02*
X114650000Y-125650000I0J-175000D01*
G01*
X114650000Y-127150000D01*
G75*
G02*
X114475000Y-127325000I-175000J0D01*
G01*
X114125000Y-127325000D01*
G75*
G02*
X113950000Y-127150000I0J175000D01*
G01*
X113950000Y-125650000D01*
G75*
G02*
X114125000Y-125475000I175000J0D01*
G01*
G37*
G36*
G01*
X112855000Y-125475000D02*
X113205000Y-125475000D01*
G75*
G02*
X113380000Y-125650000I0J-175000D01*
G01*
X113380000Y-127150000D01*
G75*
G02*
X113205000Y-127325000I-175000J0D01*
G01*
X112855000Y-127325000D01*
G75*
G02*
X112680000Y-127150000I0J175000D01*
G01*
X112680000Y-125650000D01*
G75*
G02*
X112855000Y-125475000I175000J0D01*
G01*
G37*
G36*
G01*
X111585000Y-125475000D02*
X111935000Y-125475000D01*
G75*
G02*
X112110000Y-125650000I0J-175000D01*
G01*
X112110000Y-127150000D01*
G75*
G02*
X111935000Y-127325000I-175000J0D01*
G01*
X111585000Y-127325000D01*
G75*
G02*
X111410000Y-127150000I0J175000D01*
G01*
X111410000Y-125650000D01*
G75*
G02*
X111585000Y-125475000I175000J0D01*
G01*
G37*
G36*
G01*
X111585000Y-120325000D02*
X111935000Y-120325000D01*
G75*
G02*
X112110000Y-120500000I0J-175000D01*
G01*
X112110000Y-122000000D01*
G75*
G02*
X111935000Y-122175000I-175000J0D01*
G01*
X111585000Y-122175000D01*
G75*
G02*
X111410000Y-122000000I0J175000D01*
G01*
X111410000Y-120500000D01*
G75*
G02*
X111585000Y-120325000I175000J0D01*
G01*
G37*
G36*
G01*
X112855000Y-120325000D02*
X113205000Y-120325000D01*
G75*
G02*
X113380000Y-120500000I0J-175000D01*
G01*
X113380000Y-122000000D01*
G75*
G02*
X113205000Y-122175000I-175000J0D01*
G01*
X112855000Y-122175000D01*
G75*
G02*
X112680000Y-122000000I0J175000D01*
G01*
X112680000Y-120500000D01*
G75*
G02*
X112855000Y-120325000I175000J0D01*
G01*
G37*
G36*
G01*
X114125000Y-120325000D02*
X114475000Y-120325000D01*
G75*
G02*
X114650000Y-120500000I0J-175000D01*
G01*
X114650000Y-122000000D01*
G75*
G02*
X114475000Y-122175000I-175000J0D01*
G01*
X114125000Y-122175000D01*
G75*
G02*
X113950000Y-122000000I0J175000D01*
G01*
X113950000Y-120500000D01*
G75*
G02*
X114125000Y-120325000I175000J0D01*
G01*
G37*
G36*
G01*
X115395000Y-120325000D02*
X115745000Y-120325000D01*
G75*
G02*
X115920000Y-120500000I0J-175000D01*
G01*
X115920000Y-122000000D01*
G75*
G02*
X115745000Y-122175000I-175000J0D01*
G01*
X115395000Y-122175000D01*
G75*
G02*
X115220000Y-122000000I0J175000D01*
G01*
X115220000Y-120500000D01*
G75*
G02*
X115395000Y-120325000I175000J0D01*
G01*
G37*
G36*
G01*
X160275000Y-129365000D02*
X160275000Y-129715000D01*
G75*
G02*
X160100000Y-129890000I-175000J0D01*
G01*
X158600000Y-129890000D01*
G75*
G02*
X158425000Y-129715000I0J175000D01*
G01*
X158425000Y-129365000D01*
G75*
G02*
X158600000Y-129190000I175000J0D01*
G01*
X160100000Y-129190000D01*
G75*
G02*
X160275000Y-129365000I0J-175000D01*
G01*
G37*
G36*
G01*
X160275000Y-128095000D02*
X160275000Y-128445000D01*
G75*
G02*
X160100000Y-128620000I-175000J0D01*
G01*
X158600000Y-128620000D01*
G75*
G02*
X158425000Y-128445000I0J175000D01*
G01*
X158425000Y-128095000D01*
G75*
G02*
X158600000Y-127920000I175000J0D01*
G01*
X160100000Y-127920000D01*
G75*
G02*
X160275000Y-128095000I0J-175000D01*
G01*
G37*
G36*
G01*
X160275000Y-126825000D02*
X160275000Y-127175000D01*
G75*
G02*
X160100000Y-127350000I-175000J0D01*
G01*
X158600000Y-127350000D01*
G75*
G02*
X158425000Y-127175000I0J175000D01*
G01*
X158425000Y-126825000D01*
G75*
G02*
X158600000Y-126650000I175000J0D01*
G01*
X160100000Y-126650000D01*
G75*
G02*
X160275000Y-126825000I0J-175000D01*
G01*
G37*
G36*
G01*
X160275000Y-125555000D02*
X160275000Y-125905000D01*
G75*
G02*
X160100000Y-126080000I-175000J0D01*
G01*
X158600000Y-126080000D01*
G75*
G02*
X158425000Y-125905000I0J175000D01*
G01*
X158425000Y-125555000D01*
G75*
G02*
X158600000Y-125380000I175000J0D01*
G01*
X160100000Y-125380000D01*
G75*
G02*
X160275000Y-125555000I0J-175000D01*
G01*
G37*
G36*
G01*
X165425000Y-125555000D02*
X165425000Y-125905000D01*
G75*
G02*
X165250000Y-126080000I-175000J0D01*
G01*
X163750000Y-126080000D01*
G75*
G02*
X163575000Y-125905000I0J175000D01*
G01*
X163575000Y-125555000D01*
G75*
G02*
X163750000Y-125380000I175000J0D01*
G01*
X165250000Y-125380000D01*
G75*
G02*
X165425000Y-125555000I0J-175000D01*
G01*
G37*
G36*
G01*
X165425000Y-126825000D02*
X165425000Y-127175000D01*
G75*
G02*
X165250000Y-127350000I-175000J0D01*
G01*
X163750000Y-127350000D01*
G75*
G02*
X163575000Y-127175000I0J175000D01*
G01*
X163575000Y-126825000D01*
G75*
G02*
X163750000Y-126650000I175000J0D01*
G01*
X165250000Y-126650000D01*
G75*
G02*
X165425000Y-126825000I0J-175000D01*
G01*
G37*
G36*
G01*
X165425000Y-128095000D02*
X165425000Y-128445000D01*
G75*
G02*
X165250000Y-128620000I-175000J0D01*
G01*
X163750000Y-128620000D01*
G75*
G02*
X163575000Y-128445000I0J175000D01*
G01*
X163575000Y-128095000D01*
G75*
G02*
X163750000Y-127920000I175000J0D01*
G01*
X165250000Y-127920000D01*
G75*
G02*
X165425000Y-128095000I0J-175000D01*
G01*
G37*
G36*
G01*
X165425000Y-129365000D02*
X165425000Y-129715000D01*
G75*
G02*
X165250000Y-129890000I-175000J0D01*
G01*
X163750000Y-129890000D01*
G75*
G02*
X163575000Y-129715000I0J175000D01*
G01*
X163575000Y-129365000D01*
G75*
G02*
X163750000Y-129190000I175000J0D01*
G01*
X165250000Y-129190000D01*
G75*
G02*
X165425000Y-129365000I0J-175000D01*
G01*
G37*
G36*
G01*
X127890000Y-117935000D02*
X127890000Y-118285000D01*
G75*
G02*
X127715000Y-118460000I-175000J0D01*
G01*
X126215000Y-118460000D01*
G75*
G02*
X126040000Y-118285000I0J175000D01*
G01*
X126040000Y-117935000D01*
G75*
G02*
X126215000Y-117760000I175000J0D01*
G01*
X127715000Y-117760000D01*
G75*
G02*
X127890000Y-117935000I0J-175000D01*
G01*
G37*
G36*
G01*
X127890000Y-116665000D02*
X127890000Y-117015000D01*
G75*
G02*
X127715000Y-117190000I-175000J0D01*
G01*
X126215000Y-117190000D01*
G75*
G02*
X126040000Y-117015000I0J175000D01*
G01*
X126040000Y-116665000D01*
G75*
G02*
X126215000Y-116490000I175000J0D01*
G01*
X127715000Y-116490000D01*
G75*
G02*
X127890000Y-116665000I0J-175000D01*
G01*
G37*
G36*
G01*
X127890000Y-115395000D02*
X127890000Y-115745000D01*
G75*
G02*
X127715000Y-115920000I-175000J0D01*
G01*
X126215000Y-115920000D01*
G75*
G02*
X126040000Y-115745000I0J175000D01*
G01*
X126040000Y-115395000D01*
G75*
G02*
X126215000Y-115220000I175000J0D01*
G01*
X127715000Y-115220000D01*
G75*
G02*
X127890000Y-115395000I0J-175000D01*
G01*
G37*
G36*
G01*
X127890000Y-114125000D02*
X127890000Y-114475000D01*
G75*
G02*
X127715000Y-114650000I-175000J0D01*
G01*
X126215000Y-114650000D01*
G75*
G02*
X126040000Y-114475000I0J175000D01*
G01*
X126040000Y-114125000D01*
G75*
G02*
X126215000Y-113950000I175000J0D01*
G01*
X127715000Y-113950000D01*
G75*
G02*
X127890000Y-114125000I0J-175000D01*
G01*
G37*
G36*
G01*
X133040000Y-114125000D02*
X133040000Y-114475000D01*
G75*
G02*
X132865000Y-114650000I-175000J0D01*
G01*
X131365000Y-114650000D01*
G75*
G02*
X131190000Y-114475000I0J175000D01*
G01*
X131190000Y-114125000D01*
G75*
G02*
X131365000Y-113950000I175000J0D01*
G01*
X132865000Y-113950000D01*
G75*
G02*
X133040000Y-114125000I0J-175000D01*
G01*
G37*
G36*
G01*
X133040000Y-115395000D02*
X133040000Y-115745000D01*
G75*
G02*
X132865000Y-115920000I-175000J0D01*
G01*
X131365000Y-115920000D01*
G75*
G02*
X131190000Y-115745000I0J175000D01*
G01*
X131190000Y-115395000D01*
G75*
G02*
X131365000Y-115220000I175000J0D01*
G01*
X132865000Y-115220000D01*
G75*
G02*
X133040000Y-115395000I0J-175000D01*
G01*
G37*
G36*
G01*
X133040000Y-116665000D02*
X133040000Y-117015000D01*
G75*
G02*
X132865000Y-117190000I-175000J0D01*
G01*
X131365000Y-117190000D01*
G75*
G02*
X131190000Y-117015000I0J175000D01*
G01*
X131190000Y-116665000D01*
G75*
G02*
X131365000Y-116490000I175000J0D01*
G01*
X132865000Y-116490000D01*
G75*
G02*
X133040000Y-116665000I0J-175000D01*
G01*
G37*
G36*
G01*
X133040000Y-117935000D02*
X133040000Y-118285000D01*
G75*
G02*
X132865000Y-118460000I-175000J0D01*
G01*
X131365000Y-118460000D01*
G75*
G02*
X131190000Y-118285000I0J175000D01*
G01*
X131190000Y-117935000D01*
G75*
G02*
X131365000Y-117760000I175000J0D01*
G01*
X132865000Y-117760000D01*
G75*
G02*
X133040000Y-117935000I0J-175000D01*
G01*
G37*
D12*
X104140000Y-123150000D03*
G36*
G01*
X103354706Y-119750000D02*
X104925294Y-119750000D01*
G75*
G02*
X105190000Y-120014706I0J-264706D01*
G01*
X105190000Y-121285294D01*
G75*
G02*
X104925294Y-121550000I-264706J0D01*
G01*
X103354706Y-121550000D01*
G75*
G02*
X103090000Y-121285294I0J264706D01*
G01*
X103090000Y-120014706D01*
G75*
G02*
X103354706Y-119750000I264706J0D01*
G01*
G37*
D14*
X127120000Y-127254000D03*
X129620000Y-127254000D03*
X132120000Y-127254000D03*
G36*
G01*
X135520000Y-126493706D02*
X135520000Y-128014294D01*
G75*
G02*
X135255294Y-128279000I-264706J0D01*
G01*
X133984706Y-128279000D01*
G75*
G02*
X133720000Y-128014294I0J264706D01*
G01*
X133720000Y-126493706D01*
G75*
G02*
X133984706Y-126229000I264706J0D01*
G01*
X135255294Y-126229000D01*
G75*
G02*
X135520000Y-126493706I0J-264706D01*
G01*
G37*
D15*
X110490000Y-133985000D03*
X113030000Y-133985000D03*
X115570000Y-133985000D03*
X154305000Y-129540000D03*
X154305000Y-127000000D03*
X154305000Y-124460000D03*
X169545000Y-129540000D03*
X169545000Y-127000000D03*
X169545000Y-124460000D03*
X141605000Y-132715000D03*
X144145000Y-132715000D03*
X146685000Y-132715000D03*
X141605000Y-126365000D03*
X144145000Y-126365000D03*
X146685000Y-126365000D03*
X121920000Y-118745000D03*
X121920000Y-116205000D03*
X121920000Y-113665000D03*
X137160000Y-118745000D03*
X137160000Y-116205000D03*
X137160000Y-113665000D03*
X181610000Y-132080000D03*
X179070000Y-132080000D03*
X176530000Y-132080000D03*
X181610000Y-125730000D03*
X179070000Y-125730000D03*
X176530000Y-125730000D03*
G36*
G01*
X115235000Y-118372500D02*
X115235000Y-117847500D01*
G75*
G02*
X115497500Y-117585000I262500J0D01*
G01*
X116122500Y-117585000D01*
G75*
G02*
X116385000Y-117847500I0J-262500D01*
G01*
X116385000Y-118372500D01*
G75*
G02*
X116122500Y-118635000I-262500J0D01*
G01*
X115497500Y-118635000D01*
G75*
G02*
X115235000Y-118372500I0J262500D01*
G01*
G37*
G36*
G01*
X113485000Y-118372500D02*
X113485000Y-117847500D01*
G75*
G02*
X113747500Y-117585000I262500J0D01*
G01*
X114372500Y-117585000D01*
G75*
G02*
X114635000Y-117847500I0J-262500D01*
G01*
X114635000Y-118372500D01*
G75*
G02*
X114372500Y-118635000I-262500J0D01*
G01*
X113747500Y-118635000D01*
G75*
G02*
X113485000Y-118372500I0J262500D01*
G01*
G37*
G36*
G01*
X111425000Y-118372500D02*
X111425000Y-117847500D01*
G75*
G02*
X111687500Y-117585000I262500J0D01*
G01*
X112312500Y-117585000D01*
G75*
G02*
X112575000Y-117847500I0J-262500D01*
G01*
X112575000Y-118372500D01*
G75*
G02*
X112312500Y-118635000I-262500J0D01*
G01*
X111687500Y-118635000D01*
G75*
G02*
X111425000Y-118372500I0J262500D01*
G01*
G37*
G36*
G01*
X109675000Y-118372500D02*
X109675000Y-117847500D01*
G75*
G02*
X109937500Y-117585000I262500J0D01*
G01*
X110562500Y-117585000D01*
G75*
G02*
X110825000Y-117847500I0J-262500D01*
G01*
X110825000Y-118372500D01*
G75*
G02*
X110562500Y-118635000I-262500J0D01*
G01*
X109937500Y-118635000D01*
G75*
G02*
X109675000Y-118372500I0J262500D01*
G01*
G37*
G36*
G01*
X160917500Y-136225000D02*
X160392500Y-136225000D01*
G75*
G02*
X160130000Y-135962500I0J262500D01*
G01*
X160130000Y-135337500D01*
G75*
G02*
X160392500Y-135075000I262500J0D01*
G01*
X160917500Y-135075000D01*
G75*
G02*
X161180000Y-135337500I0J-262500D01*
G01*
X161180000Y-135962500D01*
G75*
G02*
X160917500Y-136225000I-262500J0D01*
G01*
G37*
G36*
G01*
X160917500Y-137975000D02*
X160392500Y-137975000D01*
G75*
G02*
X160130000Y-137712500I0J262500D01*
G01*
X160130000Y-137087500D01*
G75*
G02*
X160392500Y-136825000I262500J0D01*
G01*
X160917500Y-136825000D01*
G75*
G02*
X161180000Y-137087500I0J-262500D01*
G01*
X161180000Y-137712500D01*
G75*
G02*
X160917500Y-137975000I-262500J0D01*
G01*
G37*
G36*
G01*
X164092500Y-136225000D02*
X163567500Y-136225000D01*
G75*
G02*
X163305000Y-135962500I0J262500D01*
G01*
X163305000Y-135337500D01*
G75*
G02*
X163567500Y-135075000I262500J0D01*
G01*
X164092500Y-135075000D01*
G75*
G02*
X164355000Y-135337500I0J-262500D01*
G01*
X164355000Y-135962500D01*
G75*
G02*
X164092500Y-136225000I-262500J0D01*
G01*
G37*
G36*
G01*
X164092500Y-137975000D02*
X163567500Y-137975000D01*
G75*
G02*
X163305000Y-137712500I0J262500D01*
G01*
X163305000Y-137087500D01*
G75*
G02*
X163567500Y-136825000I262500J0D01*
G01*
X164092500Y-136825000D01*
G75*
G02*
X164355000Y-137087500I0J-262500D01*
G01*
X164355000Y-137712500D01*
G75*
G02*
X164092500Y-137975000I-262500J0D01*
G01*
G37*
G36*
G01*
X160320000Y-123452500D02*
X160320000Y-122927500D01*
G75*
G02*
X160582500Y-122665000I262500J0D01*
G01*
X161207500Y-122665000D01*
G75*
G02*
X161470000Y-122927500I0J-262500D01*
G01*
X161470000Y-123452500D01*
G75*
G02*
X161207500Y-123715000I-262500J0D01*
G01*
X160582500Y-123715000D01*
G75*
G02*
X160320000Y-123452500I0J262500D01*
G01*
G37*
G36*
G01*
X158570000Y-123452500D02*
X158570000Y-122927500D01*
G75*
G02*
X158832500Y-122665000I262500J0D01*
G01*
X159457500Y-122665000D01*
G75*
G02*
X159720000Y-122927500I0J-262500D01*
G01*
X159720000Y-123452500D01*
G75*
G02*
X159457500Y-123715000I-262500J0D01*
G01*
X158832500Y-123715000D01*
G75*
G02*
X158570000Y-123452500I0J262500D01*
G01*
G37*
G36*
G01*
X163530000Y-131817500D02*
X163530000Y-132342500D01*
G75*
G02*
X163267500Y-132605000I-262500J0D01*
G01*
X162642500Y-132605000D01*
G75*
G02*
X162380000Y-132342500I0J262500D01*
G01*
X162380000Y-131817500D01*
G75*
G02*
X162642500Y-131555000I262500J0D01*
G01*
X163267500Y-131555000D01*
G75*
G02*
X163530000Y-131817500I0J-262500D01*
G01*
G37*
G36*
G01*
X165280000Y-131817500D02*
X165280000Y-132342500D01*
G75*
G02*
X165017500Y-132605000I-262500J0D01*
G01*
X164392500Y-132605000D01*
G75*
G02*
X164130000Y-132342500I0J262500D01*
G01*
X164130000Y-131817500D01*
G75*
G02*
X164392500Y-131555000I262500J0D01*
G01*
X165017500Y-131555000D01*
G75*
G02*
X165280000Y-131817500I0J-262500D01*
G01*
G37*
G36*
G01*
X159647500Y-115270000D02*
X159122500Y-115270000D01*
G75*
G02*
X158860000Y-115007500I0J262500D01*
G01*
X158860000Y-114382500D01*
G75*
G02*
X159122500Y-114120000I262500J0D01*
G01*
X159647500Y-114120000D01*
G75*
G02*
X159910000Y-114382500I0J-262500D01*
G01*
X159910000Y-115007500D01*
G75*
G02*
X159647500Y-115270000I-262500J0D01*
G01*
G37*
G36*
G01*
X159647500Y-117020000D02*
X159122500Y-117020000D01*
G75*
G02*
X158860000Y-116757500I0J262500D01*
G01*
X158860000Y-116132500D01*
G75*
G02*
X159122500Y-115870000I262500J0D01*
G01*
X159647500Y-115870000D01*
G75*
G02*
X159910000Y-116132500I0J-262500D01*
G01*
X159910000Y-116757500D01*
G75*
G02*
X159647500Y-117020000I-262500J0D01*
G01*
G37*
G36*
G01*
X157107500Y-115270000D02*
X156582500Y-115270000D01*
G75*
G02*
X156320000Y-115007500I0J262500D01*
G01*
X156320000Y-114382500D01*
G75*
G02*
X156582500Y-114120000I262500J0D01*
G01*
X157107500Y-114120000D01*
G75*
G02*
X157370000Y-114382500I0J-262500D01*
G01*
X157370000Y-115007500D01*
G75*
G02*
X157107500Y-115270000I-262500J0D01*
G01*
G37*
G36*
G01*
X157107500Y-117020000D02*
X156582500Y-117020000D01*
G75*
G02*
X156320000Y-116757500I0J262500D01*
G01*
X156320000Y-116132500D01*
G75*
G02*
X156582500Y-115870000I262500J0D01*
G01*
X157107500Y-115870000D01*
G75*
G02*
X157370000Y-116132500I0J-262500D01*
G01*
X157370000Y-116757500D01*
G75*
G02*
X157107500Y-117020000I-262500J0D01*
G01*
G37*
G36*
G01*
X154567500Y-115270000D02*
X154042500Y-115270000D01*
G75*
G02*
X153780000Y-115007500I0J262500D01*
G01*
X153780000Y-114382500D01*
G75*
G02*
X154042500Y-114120000I262500J0D01*
G01*
X154567500Y-114120000D01*
G75*
G02*
X154830000Y-114382500I0J-262500D01*
G01*
X154830000Y-115007500D01*
G75*
G02*
X154567500Y-115270000I-262500J0D01*
G01*
G37*
G36*
G01*
X154567500Y-117020000D02*
X154042500Y-117020000D01*
G75*
G02*
X153780000Y-116757500I0J262500D01*
G01*
X153780000Y-116132500D01*
G75*
G02*
X154042500Y-115870000I262500J0D01*
G01*
X154567500Y-115870000D01*
G75*
G02*
X154830000Y-116132500I0J-262500D01*
G01*
X154830000Y-116757500D01*
G75*
G02*
X154567500Y-117020000I-262500J0D01*
G01*
G37*
G36*
G01*
X152027500Y-115270000D02*
X151502500Y-115270000D01*
G75*
G02*
X151240000Y-115007500I0J262500D01*
G01*
X151240000Y-114382500D01*
G75*
G02*
X151502500Y-114120000I262500J0D01*
G01*
X152027500Y-114120000D01*
G75*
G02*
X152290000Y-114382500I0J-262500D01*
G01*
X152290000Y-115007500D01*
G75*
G02*
X152027500Y-115270000I-262500J0D01*
G01*
G37*
G36*
G01*
X152027500Y-117020000D02*
X151502500Y-117020000D01*
G75*
G02*
X151240000Y-116757500I0J262500D01*
G01*
X151240000Y-116132500D01*
G75*
G02*
X151502500Y-115870000I262500J0D01*
G01*
X152027500Y-115870000D01*
G75*
G02*
X152290000Y-116132500I0J-262500D01*
G01*
X152290000Y-116757500D01*
G75*
G02*
X152027500Y-117020000I-262500J0D01*
G01*
G37*
G36*
G01*
X149487500Y-115270000D02*
X148962500Y-115270000D01*
G75*
G02*
X148700000Y-115007500I0J262500D01*
G01*
X148700000Y-114382500D01*
G75*
G02*
X148962500Y-114120000I262500J0D01*
G01*
X149487500Y-114120000D01*
G75*
G02*
X149750000Y-114382500I0J-262500D01*
G01*
X149750000Y-115007500D01*
G75*
G02*
X149487500Y-115270000I-262500J0D01*
G01*
G37*
G36*
G01*
X149487500Y-117020000D02*
X148962500Y-117020000D01*
G75*
G02*
X148700000Y-116757500I0J262500D01*
G01*
X148700000Y-116132500D01*
G75*
G02*
X148962500Y-115870000I262500J0D01*
G01*
X149487500Y-115870000D01*
G75*
G02*
X149750000Y-116132500I0J-262500D01*
G01*
X149750000Y-116757500D01*
G75*
G02*
X149487500Y-117020000I-262500J0D01*
G01*
G37*
G36*
G01*
X146947500Y-115270000D02*
X146422500Y-115270000D01*
G75*
G02*
X146160000Y-115007500I0J262500D01*
G01*
X146160000Y-114382500D01*
G75*
G02*
X146422500Y-114120000I262500J0D01*
G01*
X146947500Y-114120000D01*
G75*
G02*
X147210000Y-114382500I0J-262500D01*
G01*
X147210000Y-115007500D01*
G75*
G02*
X146947500Y-115270000I-262500J0D01*
G01*
G37*
G36*
G01*
X146947500Y-117020000D02*
X146422500Y-117020000D01*
G75*
G02*
X146160000Y-116757500I0J262500D01*
G01*
X146160000Y-116132500D01*
G75*
G02*
X146422500Y-115870000I262500J0D01*
G01*
X146947500Y-115870000D01*
G75*
G02*
X147210000Y-116132500I0J-262500D01*
G01*
X147210000Y-116757500D01*
G75*
G02*
X146947500Y-117020000I-262500J0D01*
G01*
G37*
G36*
G01*
X182507500Y-115270000D02*
X181982500Y-115270000D01*
G75*
G02*
X181720000Y-115007500I0J262500D01*
G01*
X181720000Y-114382500D01*
G75*
G02*
X181982500Y-114120000I262500J0D01*
G01*
X182507500Y-114120000D01*
G75*
G02*
X182770000Y-114382500I0J-262500D01*
G01*
X182770000Y-115007500D01*
G75*
G02*
X182507500Y-115270000I-262500J0D01*
G01*
G37*
G36*
G01*
X182507500Y-117020000D02*
X181982500Y-117020000D01*
G75*
G02*
X181720000Y-116757500I0J262500D01*
G01*
X181720000Y-116132500D01*
G75*
G02*
X181982500Y-115870000I262500J0D01*
G01*
X182507500Y-115870000D01*
G75*
G02*
X182770000Y-116132500I0J-262500D01*
G01*
X182770000Y-116757500D01*
G75*
G02*
X182507500Y-117020000I-262500J0D01*
G01*
G37*
G36*
G01*
X179967500Y-115270000D02*
X179442500Y-115270000D01*
G75*
G02*
X179180000Y-115007500I0J262500D01*
G01*
X179180000Y-114382500D01*
G75*
G02*
X179442500Y-114120000I262500J0D01*
G01*
X179967500Y-114120000D01*
G75*
G02*
X180230000Y-114382500I0J-262500D01*
G01*
X180230000Y-115007500D01*
G75*
G02*
X179967500Y-115270000I-262500J0D01*
G01*
G37*
G36*
G01*
X179967500Y-117020000D02*
X179442500Y-117020000D01*
G75*
G02*
X179180000Y-116757500I0J262500D01*
G01*
X179180000Y-116132500D01*
G75*
G02*
X179442500Y-115870000I262500J0D01*
G01*
X179967500Y-115870000D01*
G75*
G02*
X180230000Y-116132500I0J-262500D01*
G01*
X180230000Y-116757500D01*
G75*
G02*
X179967500Y-117020000I-262500J0D01*
G01*
G37*
G36*
G01*
X177427500Y-115270000D02*
X176902500Y-115270000D01*
G75*
G02*
X176640000Y-115007500I0J262500D01*
G01*
X176640000Y-114382500D01*
G75*
G02*
X176902500Y-114120000I262500J0D01*
G01*
X177427500Y-114120000D01*
G75*
G02*
X177690000Y-114382500I0J-262500D01*
G01*
X177690000Y-115007500D01*
G75*
G02*
X177427500Y-115270000I-262500J0D01*
G01*
G37*
G36*
G01*
X177427500Y-117020000D02*
X176902500Y-117020000D01*
G75*
G02*
X176640000Y-116757500I0J262500D01*
G01*
X176640000Y-116132500D01*
G75*
G02*
X176902500Y-115870000I262500J0D01*
G01*
X177427500Y-115870000D01*
G75*
G02*
X177690000Y-116132500I0J-262500D01*
G01*
X177690000Y-116757500D01*
G75*
G02*
X177427500Y-117020000I-262500J0D01*
G01*
G37*
G36*
G01*
X174887500Y-115270000D02*
X174362500Y-115270000D01*
G75*
G02*
X174100000Y-115007500I0J262500D01*
G01*
X174100000Y-114382500D01*
G75*
G02*
X174362500Y-114120000I262500J0D01*
G01*
X174887500Y-114120000D01*
G75*
G02*
X175150000Y-114382500I0J-262500D01*
G01*
X175150000Y-115007500D01*
G75*
G02*
X174887500Y-115270000I-262500J0D01*
G01*
G37*
G36*
G01*
X174887500Y-117020000D02*
X174362500Y-117020000D01*
G75*
G02*
X174100000Y-116757500I0J262500D01*
G01*
X174100000Y-116132500D01*
G75*
G02*
X174362500Y-115870000I262500J0D01*
G01*
X174887500Y-115870000D01*
G75*
G02*
X175150000Y-116132500I0J-262500D01*
G01*
X175150000Y-116757500D01*
G75*
G02*
X174887500Y-117020000I-262500J0D01*
G01*
G37*
G36*
G01*
X172347500Y-115270000D02*
X171822500Y-115270000D01*
G75*
G02*
X171560000Y-115007500I0J262500D01*
G01*
X171560000Y-114382500D01*
G75*
G02*
X171822500Y-114120000I262500J0D01*
G01*
X172347500Y-114120000D01*
G75*
G02*
X172610000Y-114382500I0J-262500D01*
G01*
X172610000Y-115007500D01*
G75*
G02*
X172347500Y-115270000I-262500J0D01*
G01*
G37*
G36*
G01*
X172347500Y-117020000D02*
X171822500Y-117020000D01*
G75*
G02*
X171560000Y-116757500I0J262500D01*
G01*
X171560000Y-116132500D01*
G75*
G02*
X171822500Y-115870000I262500J0D01*
G01*
X172347500Y-115870000D01*
G75*
G02*
X172610000Y-116132500I0J-262500D01*
G01*
X172610000Y-116757500D01*
G75*
G02*
X172347500Y-117020000I-262500J0D01*
G01*
G37*
G36*
G01*
X169807500Y-115270000D02*
X169282500Y-115270000D01*
G75*
G02*
X169020000Y-115007500I0J262500D01*
G01*
X169020000Y-114382500D01*
G75*
G02*
X169282500Y-114120000I262500J0D01*
G01*
X169807500Y-114120000D01*
G75*
G02*
X170070000Y-114382500I0J-262500D01*
G01*
X170070000Y-115007500D01*
G75*
G02*
X169807500Y-115270000I-262500J0D01*
G01*
G37*
G36*
G01*
X169807500Y-117020000D02*
X169282500Y-117020000D01*
G75*
G02*
X169020000Y-116757500I0J262500D01*
G01*
X169020000Y-116132500D01*
G75*
G02*
X169282500Y-115870000I262500J0D01*
G01*
X169807500Y-115870000D01*
G75*
G02*
X170070000Y-116132500I0J-262500D01*
G01*
X170070000Y-116757500D01*
G75*
G02*
X169807500Y-117020000I-262500J0D01*
G01*
G37*
G36*
G01*
X159647500Y-108920000D02*
X159122500Y-108920000D01*
G75*
G02*
X158860000Y-108657500I0J262500D01*
G01*
X158860000Y-108032500D01*
G75*
G02*
X159122500Y-107770000I262500J0D01*
G01*
X159647500Y-107770000D01*
G75*
G02*
X159910000Y-108032500I0J-262500D01*
G01*
X159910000Y-108657500D01*
G75*
G02*
X159647500Y-108920000I-262500J0D01*
G01*
G37*
G36*
G01*
X159647500Y-110670000D02*
X159122500Y-110670000D01*
G75*
G02*
X158860000Y-110407500I0J262500D01*
G01*
X158860000Y-109782500D01*
G75*
G02*
X159122500Y-109520000I262500J0D01*
G01*
X159647500Y-109520000D01*
G75*
G02*
X159910000Y-109782500I0J-262500D01*
G01*
X159910000Y-110407500D01*
G75*
G02*
X159647500Y-110670000I-262500J0D01*
G01*
G37*
G36*
G01*
X157107500Y-108920000D02*
X156582500Y-108920000D01*
G75*
G02*
X156320000Y-108657500I0J262500D01*
G01*
X156320000Y-108032500D01*
G75*
G02*
X156582500Y-107770000I262500J0D01*
G01*
X157107500Y-107770000D01*
G75*
G02*
X157370000Y-108032500I0J-262500D01*
G01*
X157370000Y-108657500D01*
G75*
G02*
X157107500Y-108920000I-262500J0D01*
G01*
G37*
G36*
G01*
X157107500Y-110670000D02*
X156582500Y-110670000D01*
G75*
G02*
X156320000Y-110407500I0J262500D01*
G01*
X156320000Y-109782500D01*
G75*
G02*
X156582500Y-109520000I262500J0D01*
G01*
X157107500Y-109520000D01*
G75*
G02*
X157370000Y-109782500I0J-262500D01*
G01*
X157370000Y-110407500D01*
G75*
G02*
X157107500Y-110670000I-262500J0D01*
G01*
G37*
G36*
G01*
X154567500Y-108920000D02*
X154042500Y-108920000D01*
G75*
G02*
X153780000Y-108657500I0J262500D01*
G01*
X153780000Y-108032500D01*
G75*
G02*
X154042500Y-107770000I262500J0D01*
G01*
X154567500Y-107770000D01*
G75*
G02*
X154830000Y-108032500I0J-262500D01*
G01*
X154830000Y-108657500D01*
G75*
G02*
X154567500Y-108920000I-262500J0D01*
G01*
G37*
G36*
G01*
X154567500Y-110670000D02*
X154042500Y-110670000D01*
G75*
G02*
X153780000Y-110407500I0J262500D01*
G01*
X153780000Y-109782500D01*
G75*
G02*
X154042500Y-109520000I262500J0D01*
G01*
X154567500Y-109520000D01*
G75*
G02*
X154830000Y-109782500I0J-262500D01*
G01*
X154830000Y-110407500D01*
G75*
G02*
X154567500Y-110670000I-262500J0D01*
G01*
G37*
G36*
G01*
X152027500Y-108920000D02*
X151502500Y-108920000D01*
G75*
G02*
X151240000Y-108657500I0J262500D01*
G01*
X151240000Y-108032500D01*
G75*
G02*
X151502500Y-107770000I262500J0D01*
G01*
X152027500Y-107770000D01*
G75*
G02*
X152290000Y-108032500I0J-262500D01*
G01*
X152290000Y-108657500D01*
G75*
G02*
X152027500Y-108920000I-262500J0D01*
G01*
G37*
G36*
G01*
X152027500Y-110670000D02*
X151502500Y-110670000D01*
G75*
G02*
X151240000Y-110407500I0J262500D01*
G01*
X151240000Y-109782500D01*
G75*
G02*
X151502500Y-109520000I262500J0D01*
G01*
X152027500Y-109520000D01*
G75*
G02*
X152290000Y-109782500I0J-262500D01*
G01*
X152290000Y-110407500D01*
G75*
G02*
X152027500Y-110670000I-262500J0D01*
G01*
G37*
G36*
G01*
X149487500Y-108920000D02*
X148962500Y-108920000D01*
G75*
G02*
X148700000Y-108657500I0J262500D01*
G01*
X148700000Y-108032500D01*
G75*
G02*
X148962500Y-107770000I262500J0D01*
G01*
X149487500Y-107770000D01*
G75*
G02*
X149750000Y-108032500I0J-262500D01*
G01*
X149750000Y-108657500D01*
G75*
G02*
X149487500Y-108920000I-262500J0D01*
G01*
G37*
G36*
G01*
X149487500Y-110670000D02*
X148962500Y-110670000D01*
G75*
G02*
X148700000Y-110407500I0J262500D01*
G01*
X148700000Y-109782500D01*
G75*
G02*
X148962500Y-109520000I262500J0D01*
G01*
X149487500Y-109520000D01*
G75*
G02*
X149750000Y-109782500I0J-262500D01*
G01*
X149750000Y-110407500D01*
G75*
G02*
X149487500Y-110670000I-262500J0D01*
G01*
G37*
G36*
G01*
X146947500Y-108920000D02*
X146422500Y-108920000D01*
G75*
G02*
X146160000Y-108657500I0J262500D01*
G01*
X146160000Y-108032500D01*
G75*
G02*
X146422500Y-107770000I262500J0D01*
G01*
X146947500Y-107770000D01*
G75*
G02*
X147210000Y-108032500I0J-262500D01*
G01*
X147210000Y-108657500D01*
G75*
G02*
X146947500Y-108920000I-262500J0D01*
G01*
G37*
G36*
G01*
X146947500Y-110670000D02*
X146422500Y-110670000D01*
G75*
G02*
X146160000Y-110407500I0J262500D01*
G01*
X146160000Y-109782500D01*
G75*
G02*
X146422500Y-109520000I262500J0D01*
G01*
X146947500Y-109520000D01*
G75*
G02*
X147210000Y-109782500I0J-262500D01*
G01*
X147210000Y-110407500D01*
G75*
G02*
X146947500Y-110670000I-262500J0D01*
G01*
G37*
G36*
G01*
X182507500Y-108920000D02*
X181982500Y-108920000D01*
G75*
G02*
X181720000Y-108657500I0J262500D01*
G01*
X181720000Y-108032500D01*
G75*
G02*
X181982500Y-107770000I262500J0D01*
G01*
X182507500Y-107770000D01*
G75*
G02*
X182770000Y-108032500I0J-262500D01*
G01*
X182770000Y-108657500D01*
G75*
G02*
X182507500Y-108920000I-262500J0D01*
G01*
G37*
G36*
G01*
X182507500Y-110670000D02*
X181982500Y-110670000D01*
G75*
G02*
X181720000Y-110407500I0J262500D01*
G01*
X181720000Y-109782500D01*
G75*
G02*
X181982500Y-109520000I262500J0D01*
G01*
X182507500Y-109520000D01*
G75*
G02*
X182770000Y-109782500I0J-262500D01*
G01*
X182770000Y-110407500D01*
G75*
G02*
X182507500Y-110670000I-262500J0D01*
G01*
G37*
G36*
G01*
X179967500Y-108920000D02*
X179442500Y-108920000D01*
G75*
G02*
X179180000Y-108657500I0J262500D01*
G01*
X179180000Y-108032500D01*
G75*
G02*
X179442500Y-107770000I262500J0D01*
G01*
X179967500Y-107770000D01*
G75*
G02*
X180230000Y-108032500I0J-262500D01*
G01*
X180230000Y-108657500D01*
G75*
G02*
X179967500Y-108920000I-262500J0D01*
G01*
G37*
G36*
G01*
X179967500Y-110670000D02*
X179442500Y-110670000D01*
G75*
G02*
X179180000Y-110407500I0J262500D01*
G01*
X179180000Y-109782500D01*
G75*
G02*
X179442500Y-109520000I262500J0D01*
G01*
X179967500Y-109520000D01*
G75*
G02*
X180230000Y-109782500I0J-262500D01*
G01*
X180230000Y-110407500D01*
G75*
G02*
X179967500Y-110670000I-262500J0D01*
G01*
G37*
G36*
G01*
X177427500Y-108920000D02*
X176902500Y-108920000D01*
G75*
G02*
X176640000Y-108657500I0J262500D01*
G01*
X176640000Y-108032500D01*
G75*
G02*
X176902500Y-107770000I262500J0D01*
G01*
X177427500Y-107770000D01*
G75*
G02*
X177690000Y-108032500I0J-262500D01*
G01*
X177690000Y-108657500D01*
G75*
G02*
X177427500Y-108920000I-262500J0D01*
G01*
G37*
G36*
G01*
X177427500Y-110670000D02*
X176902500Y-110670000D01*
G75*
G02*
X176640000Y-110407500I0J262500D01*
G01*
X176640000Y-109782500D01*
G75*
G02*
X176902500Y-109520000I262500J0D01*
G01*
X177427500Y-109520000D01*
G75*
G02*
X177690000Y-109782500I0J-262500D01*
G01*
X177690000Y-110407500D01*
G75*
G02*
X177427500Y-110670000I-262500J0D01*
G01*
G37*
G36*
G01*
X174887500Y-108920000D02*
X174362500Y-108920000D01*
G75*
G02*
X174100000Y-108657500I0J262500D01*
G01*
X174100000Y-108032500D01*
G75*
G02*
X174362500Y-107770000I262500J0D01*
G01*
X174887500Y-107770000D01*
G75*
G02*
X175150000Y-108032500I0J-262500D01*
G01*
X175150000Y-108657500D01*
G75*
G02*
X174887500Y-108920000I-262500J0D01*
G01*
G37*
G36*
G01*
X174887500Y-110670000D02*
X174362500Y-110670000D01*
G75*
G02*
X174100000Y-110407500I0J262500D01*
G01*
X174100000Y-109782500D01*
G75*
G02*
X174362500Y-109520000I262500J0D01*
G01*
X174887500Y-109520000D01*
G75*
G02*
X175150000Y-109782500I0J-262500D01*
G01*
X175150000Y-110407500D01*
G75*
G02*
X174887500Y-110670000I-262500J0D01*
G01*
G37*
G36*
G01*
X172347500Y-108920000D02*
X171822500Y-108920000D01*
G75*
G02*
X171560000Y-108657500I0J262500D01*
G01*
X171560000Y-108032500D01*
G75*
G02*
X171822500Y-107770000I262500J0D01*
G01*
X172347500Y-107770000D01*
G75*
G02*
X172610000Y-108032500I0J-262500D01*
G01*
X172610000Y-108657500D01*
G75*
G02*
X172347500Y-108920000I-262500J0D01*
G01*
G37*
G36*
G01*
X172347500Y-110670000D02*
X171822500Y-110670000D01*
G75*
G02*
X171560000Y-110407500I0J262500D01*
G01*
X171560000Y-109782500D01*
G75*
G02*
X171822500Y-109520000I262500J0D01*
G01*
X172347500Y-109520000D01*
G75*
G02*
X172610000Y-109782500I0J-262500D01*
G01*
X172610000Y-110407500D01*
G75*
G02*
X172347500Y-110670000I-262500J0D01*
G01*
G37*
G36*
G01*
X169807500Y-108920000D02*
X169282500Y-108920000D01*
G75*
G02*
X169020000Y-108657500I0J262500D01*
G01*
X169020000Y-108032500D01*
G75*
G02*
X169282500Y-107770000I262500J0D01*
G01*
X169807500Y-107770000D01*
G75*
G02*
X170070000Y-108032500I0J-262500D01*
G01*
X170070000Y-108657500D01*
G75*
G02*
X169807500Y-108920000I-262500J0D01*
G01*
G37*
G36*
G01*
X169807500Y-110670000D02*
X169282500Y-110670000D01*
G75*
G02*
X169020000Y-110407500I0J262500D01*
G01*
X169020000Y-109782500D01*
G75*
G02*
X169282500Y-109520000I262500J0D01*
G01*
X169807500Y-109520000D01*
G75*
G02*
X170070000Y-109782500I0J-262500D01*
G01*
X170070000Y-110407500D01*
G75*
G02*
X169807500Y-110670000I-262500J0D01*
G01*
G37*
G36*
G01*
X143882500Y-109520000D02*
X144407500Y-109520000D01*
G75*
G02*
X144670000Y-109782500I0J-262500D01*
G01*
X144670000Y-110407500D01*
G75*
G02*
X144407500Y-110670000I-262500J0D01*
G01*
X143882500Y-110670000D01*
G75*
G02*
X143620000Y-110407500I0J262500D01*
G01*
X143620000Y-109782500D01*
G75*
G02*
X143882500Y-109520000I262500J0D01*
G01*
G37*
G36*
G01*
X143882500Y-107770000D02*
X144407500Y-107770000D01*
G75*
G02*
X144670000Y-108032500I0J-262500D01*
G01*
X144670000Y-108657500D01*
G75*
G02*
X144407500Y-108920000I-262500J0D01*
G01*
X143882500Y-108920000D01*
G75*
G02*
X143620000Y-108657500I0J262500D01*
G01*
X143620000Y-108032500D01*
G75*
G02*
X143882500Y-107770000I262500J0D01*
G01*
G37*
G36*
G01*
X166742500Y-109520000D02*
X167267500Y-109520000D01*
G75*
G02*
X167530000Y-109782500I0J-262500D01*
G01*
X167530000Y-110407500D01*
G75*
G02*
X167267500Y-110670000I-262500J0D01*
G01*
X166742500Y-110670000D01*
G75*
G02*
X166480000Y-110407500I0J262500D01*
G01*
X166480000Y-109782500D01*
G75*
G02*
X166742500Y-109520000I262500J0D01*
G01*
G37*
G36*
G01*
X166742500Y-107770000D02*
X167267500Y-107770000D01*
G75*
G02*
X167530000Y-108032500I0J-262500D01*
G01*
X167530000Y-108657500D01*
G75*
G02*
X167267500Y-108920000I-262500J0D01*
G01*
X166742500Y-108920000D01*
G75*
G02*
X166480000Y-108657500I0J262500D01*
G01*
X166480000Y-108032500D01*
G75*
G02*
X166742500Y-107770000I262500J0D01*
G01*
G37*
G36*
G01*
X122855000Y-108847500D02*
X122855000Y-108322500D01*
G75*
G02*
X123117500Y-108060000I262500J0D01*
G01*
X123742500Y-108060000D01*
G75*
G02*
X124005000Y-108322500I0J-262500D01*
G01*
X124005000Y-108847500D01*
G75*
G02*
X123742500Y-109110000I-262500J0D01*
G01*
X123117500Y-109110000D01*
G75*
G02*
X122855000Y-108847500I0J262500D01*
G01*
G37*
G36*
G01*
X121105000Y-108847500D02*
X121105000Y-108322500D01*
G75*
G02*
X121367500Y-108060000I262500J0D01*
G01*
X121992500Y-108060000D01*
G75*
G02*
X122255000Y-108322500I0J-262500D01*
G01*
X122255000Y-108847500D01*
G75*
G02*
X121992500Y-109110000I-262500J0D01*
G01*
X121367500Y-109110000D01*
G75*
G02*
X121105000Y-108847500I0J262500D01*
G01*
G37*
G36*
G01*
X126065000Y-108322500D02*
X126065000Y-108847500D01*
G75*
G02*
X125802500Y-109110000I-262500J0D01*
G01*
X125177500Y-109110000D01*
G75*
G02*
X124915000Y-108847500I0J262500D01*
G01*
X124915000Y-108322500D01*
G75*
G02*
X125177500Y-108060000I262500J0D01*
G01*
X125802500Y-108060000D01*
G75*
G02*
X126065000Y-108322500I0J-262500D01*
G01*
G37*
G36*
G01*
X127815000Y-108322500D02*
X127815000Y-108847500D01*
G75*
G02*
X127552500Y-109110000I-262500J0D01*
G01*
X126927500Y-109110000D01*
G75*
G02*
X126665000Y-108847500I0J262500D01*
G01*
X126665000Y-108322500D01*
G75*
G02*
X126927500Y-108060000I262500J0D01*
G01*
X127552500Y-108060000D01*
G75*
G02*
X127815000Y-108322500I0J-262500D01*
G01*
G37*
D16*
X105410000Y-128905000D03*
X102870000Y-128905000D03*
X105410000Y-131445000D03*
X102870000Y-131445000D03*
X105410000Y-133985000D03*
X102870000Y-133985000D03*
X105410000Y-136525000D03*
D17*
X102870000Y-136525000D03*
D14*
X129620000Y-135890000D03*
X132120000Y-135890000D03*
G36*
G01*
X135520000Y-135129706D02*
X135520000Y-136650294D01*
G75*
G02*
X135255294Y-136915000I-264706J0D01*
G01*
X133984706Y-136915000D01*
G75*
G02*
X133720000Y-136650294I0J264706D01*
G01*
X133720000Y-135129706D01*
G75*
G02*
X133984706Y-134865000I264706J0D01*
G01*
X135255294Y-134865000D01*
G75*
G02*
X135520000Y-135129706I0J-264706D01*
G01*
G37*
X144385000Y-104140000D03*
X146885000Y-104140000D03*
X149385000Y-104140000D03*
X151885000Y-104140000D03*
X154385000Y-104140000D03*
X156885000Y-104140000D03*
G36*
G01*
X160285000Y-103379706D02*
X160285000Y-104900294D01*
G75*
G02*
X160020294Y-105165000I-264706J0D01*
G01*
X158749706Y-105165000D01*
G75*
G02*
X158485000Y-104900294I0J264706D01*
G01*
X158485000Y-103379706D01*
G75*
G02*
X158749706Y-103115000I264706J0D01*
G01*
X160020294Y-103115000D01*
G75*
G02*
X160285000Y-103379706I0J-264706D01*
G01*
G37*
X167045000Y-104140000D03*
X169545000Y-104140000D03*
X172045000Y-104140000D03*
X174545000Y-104140000D03*
X177045000Y-104140000D03*
X179545000Y-104140000D03*
G36*
G01*
X182945000Y-103379706D02*
X182945000Y-104900294D01*
G75*
G02*
X182680294Y-105165000I-264706J0D01*
G01*
X181409706Y-105165000D01*
G75*
G02*
X181145000Y-104900294I0J264706D01*
G01*
X181145000Y-103379706D01*
G75*
G02*
X181409706Y-103115000I264706J0D01*
G01*
X182680294Y-103115000D01*
G75*
G02*
X182945000Y-103379706I0J-264706D01*
G01*
G37*
X132160000Y-104140000D03*
X134660000Y-104140000D03*
G36*
G01*
X138060000Y-103379706D02*
X138060000Y-104900294D01*
G75*
G02*
X137795294Y-105165000I-264706J0D01*
G01*
X136524706Y-105165000D01*
G75*
G02*
X136260000Y-104900294I0J264706D01*
G01*
X136260000Y-103379706D01*
G75*
G02*
X136524706Y-103115000I264706J0D01*
G01*
X137795294Y-103115000D01*
G75*
G02*
X138060000Y-103379706I0J-264706D01*
G01*
G37*
X120095000Y-104140000D03*
X122595000Y-104140000D03*
G36*
G01*
X125995000Y-103379706D02*
X125995000Y-104900294D01*
G75*
G02*
X125730294Y-105165000I-264706J0D01*
G01*
X124459706Y-105165000D01*
G75*
G02*
X124195000Y-104900294I0J264706D01*
G01*
X124195000Y-103379706D01*
G75*
G02*
X124459706Y-103115000I264706J0D01*
G01*
X125730294Y-103115000D01*
G75*
G02*
X125995000Y-103379706I0J-264706D01*
G01*
G37*
D18*
X152905000Y-137160000D03*
X155705000Y-137160000D03*
X155705000Y-133985000D03*
X152905000Y-133985000D03*
X170945000Y-137160000D03*
X168145000Y-137160000D03*
X168145000Y-133985000D03*
X170945000Y-133985000D03*
G36*
G01*
X113330000Y-129802500D02*
X113330000Y-129277500D01*
G75*
G02*
X113592500Y-129015000I262500J0D01*
G01*
X114217500Y-129015000D01*
G75*
G02*
X114480000Y-129277500I0J-262500D01*
G01*
X114480000Y-129802500D01*
G75*
G02*
X114217500Y-130065000I-262500J0D01*
G01*
X113592500Y-130065000D01*
G75*
G02*
X113330000Y-129802500I0J262500D01*
G01*
G37*
G36*
G01*
X111580000Y-129802500D02*
X111580000Y-129277500D01*
G75*
G02*
X111842500Y-129015000I262500J0D01*
G01*
X112467500Y-129015000D01*
G75*
G02*
X112730000Y-129277500I0J-262500D01*
G01*
X112730000Y-129802500D01*
G75*
G02*
X112467500Y-130065000I-262500J0D01*
G01*
X111842500Y-130065000D01*
G75*
G02*
X111580000Y-129802500I0J262500D01*
G01*
G37*
G36*
G01*
X115235000Y-115197500D02*
X115235000Y-114672500D01*
G75*
G02*
X115497500Y-114410000I262500J0D01*
G01*
X116122500Y-114410000D01*
G75*
G02*
X116385000Y-114672500I0J-262500D01*
G01*
X116385000Y-115197500D01*
G75*
G02*
X116122500Y-115460000I-262500J0D01*
G01*
X115497500Y-115460000D01*
G75*
G02*
X115235000Y-115197500I0J262500D01*
G01*
G37*
G36*
G01*
X113485000Y-115197500D02*
X113485000Y-114672500D01*
G75*
G02*
X113747500Y-114410000I262500J0D01*
G01*
X114372500Y-114410000D01*
G75*
G02*
X114635000Y-114672500I0J-262500D01*
G01*
X114635000Y-115197500D01*
G75*
G02*
X114372500Y-115460000I-262500J0D01*
G01*
X113747500Y-115460000D01*
G75*
G02*
X113485000Y-115197500I0J262500D01*
G01*
G37*
G36*
G01*
X111425000Y-115197500D02*
X111425000Y-114672500D01*
G75*
G02*
X111687500Y-114410000I262500J0D01*
G01*
X112312500Y-114410000D01*
G75*
G02*
X112575000Y-114672500I0J-262500D01*
G01*
X112575000Y-115197500D01*
G75*
G02*
X112312500Y-115460000I-262500J0D01*
G01*
X111687500Y-115460000D01*
G75*
G02*
X111425000Y-115197500I0J262500D01*
G01*
G37*
G36*
G01*
X109675000Y-115197500D02*
X109675000Y-114672500D01*
G75*
G02*
X109937500Y-114410000I262500J0D01*
G01*
X110562500Y-114410000D01*
G75*
G02*
X110825000Y-114672500I0J-262500D01*
G01*
X110825000Y-115197500D01*
G75*
G02*
X110562500Y-115460000I-262500J0D01*
G01*
X109937500Y-115460000D01*
G75*
G02*
X109675000Y-115197500I0J262500D01*
G01*
G37*
G36*
G01*
X109752500Y-121620000D02*
X109227500Y-121620000D01*
G75*
G02*
X108965000Y-121357500I0J262500D01*
G01*
X108965000Y-120732500D01*
G75*
G02*
X109227500Y-120470000I262500J0D01*
G01*
X109752500Y-120470000D01*
G75*
G02*
X110015000Y-120732500I0J-262500D01*
G01*
X110015000Y-121357500D01*
G75*
G02*
X109752500Y-121620000I-262500J0D01*
G01*
G37*
G36*
G01*
X109752500Y-123370000D02*
X109227500Y-123370000D01*
G75*
G02*
X108965000Y-123107500I0J262500D01*
G01*
X108965000Y-122482500D01*
G75*
G02*
X109227500Y-122220000I262500J0D01*
G01*
X109752500Y-122220000D01*
G75*
G02*
X110015000Y-122482500I0J-262500D01*
G01*
X110015000Y-123107500D01*
G75*
G02*
X109752500Y-123370000I-262500J0D01*
G01*
G37*
G36*
G01*
X118372500Y-125430000D02*
X117847500Y-125430000D01*
G75*
G02*
X117585000Y-125167500I0J262500D01*
G01*
X117585000Y-124542500D01*
G75*
G02*
X117847500Y-124280000I262500J0D01*
G01*
X118372500Y-124280000D01*
G75*
G02*
X118635000Y-124542500I0J-262500D01*
G01*
X118635000Y-125167500D01*
G75*
G02*
X118372500Y-125430000I-262500J0D01*
G01*
G37*
G36*
G01*
X118372500Y-127180000D02*
X117847500Y-127180000D01*
G75*
G02*
X117585000Y-126917500I0J262500D01*
G01*
X117585000Y-126292500D01*
G75*
G02*
X117847500Y-126030000I262500J0D01*
G01*
X118372500Y-126030000D01*
G75*
G02*
X118635000Y-126292500I0J-262500D01*
G01*
X118635000Y-126917500D01*
G75*
G02*
X118372500Y-127180000I-262500J0D01*
G01*
G37*
G36*
G01*
X164130000Y-123452500D02*
X164130000Y-122927500D01*
G75*
G02*
X164392500Y-122665000I262500J0D01*
G01*
X165017500Y-122665000D01*
G75*
G02*
X165280000Y-122927500I0J-262500D01*
G01*
X165280000Y-123452500D01*
G75*
G02*
X165017500Y-123715000I-262500J0D01*
G01*
X164392500Y-123715000D01*
G75*
G02*
X164130000Y-123452500I0J262500D01*
G01*
G37*
G36*
G01*
X162380000Y-123452500D02*
X162380000Y-122927500D01*
G75*
G02*
X162642500Y-122665000I262500J0D01*
G01*
X163267500Y-122665000D01*
G75*
G02*
X163530000Y-122927500I0J-262500D01*
G01*
X163530000Y-123452500D01*
G75*
G02*
X163267500Y-123715000I-262500J0D01*
G01*
X162642500Y-123715000D01*
G75*
G02*
X162380000Y-123452500I0J262500D01*
G01*
G37*
G36*
G01*
X160320000Y-132342500D02*
X160320000Y-131817500D01*
G75*
G02*
X160582500Y-131555000I262500J0D01*
G01*
X161207500Y-131555000D01*
G75*
G02*
X161470000Y-131817500I0J-262500D01*
G01*
X161470000Y-132342500D01*
G75*
G02*
X161207500Y-132605000I-262500J0D01*
G01*
X160582500Y-132605000D01*
G75*
G02*
X160320000Y-132342500I0J262500D01*
G01*
G37*
G36*
G01*
X158570000Y-132342500D02*
X158570000Y-131817500D01*
G75*
G02*
X158832500Y-131555000I262500J0D01*
G01*
X159457500Y-131555000D01*
G75*
G02*
X159720000Y-131817500I0J-262500D01*
G01*
X159720000Y-132342500D01*
G75*
G02*
X159457500Y-132605000I-262500J0D01*
G01*
X158832500Y-132605000D01*
G75*
G02*
X158570000Y-132342500I0J262500D01*
G01*
G37*
G36*
G01*
X131745000Y-112022500D02*
X131745000Y-111497500D01*
G75*
G02*
X132007500Y-111235000I262500J0D01*
G01*
X132632500Y-111235000D01*
G75*
G02*
X132895000Y-111497500I0J-262500D01*
G01*
X132895000Y-112022500D01*
G75*
G02*
X132632500Y-112285000I-262500J0D01*
G01*
X132007500Y-112285000D01*
G75*
G02*
X131745000Y-112022500I0J262500D01*
G01*
G37*
G36*
G01*
X129995000Y-112022500D02*
X129995000Y-111497500D01*
G75*
G02*
X130257500Y-111235000I262500J0D01*
G01*
X130882500Y-111235000D01*
G75*
G02*
X131145000Y-111497500I0J-262500D01*
G01*
X131145000Y-112022500D01*
G75*
G02*
X130882500Y-112285000I-262500J0D01*
G01*
X130257500Y-112285000D01*
G75*
G02*
X129995000Y-112022500I0J262500D01*
G01*
G37*
G36*
G01*
X127935000Y-120912500D02*
X127935000Y-120387500D01*
G75*
G02*
X128197500Y-120125000I262500J0D01*
G01*
X128822500Y-120125000D01*
G75*
G02*
X129085000Y-120387500I0J-262500D01*
G01*
X129085000Y-120912500D01*
G75*
G02*
X128822500Y-121175000I-262500J0D01*
G01*
X128197500Y-121175000D01*
G75*
G02*
X127935000Y-120912500I0J262500D01*
G01*
G37*
G36*
G01*
X126185000Y-120912500D02*
X126185000Y-120387500D01*
G75*
G02*
X126447500Y-120125000I262500J0D01*
G01*
X127072500Y-120125000D01*
G75*
G02*
X127335000Y-120387500I0J-262500D01*
G01*
X127335000Y-120912500D01*
G75*
G02*
X127072500Y-121175000I-262500J0D01*
G01*
X126447500Y-121175000D01*
G75*
G02*
X126185000Y-120912500I0J262500D01*
G01*
G37*
G36*
G01*
X112695000Y-111387500D02*
X112695000Y-110862500D01*
G75*
G02*
X112957500Y-110600000I262500J0D01*
G01*
X113582500Y-110600000D01*
G75*
G02*
X113845000Y-110862500I0J-262500D01*
G01*
X113845000Y-111387500D01*
G75*
G02*
X113582500Y-111650000I-262500J0D01*
G01*
X112957500Y-111650000D01*
G75*
G02*
X112695000Y-111387500I0J262500D01*
G01*
G37*
G36*
G01*
X110945000Y-111387500D02*
X110945000Y-110862500D01*
G75*
G02*
X111207500Y-110600000I262500J0D01*
G01*
X111832500Y-110600000D01*
G75*
G02*
X112095000Y-110862500I0J-262500D01*
G01*
X112095000Y-111387500D01*
G75*
G02*
X111832500Y-111650000I-262500J0D01*
G01*
X111207500Y-111650000D01*
G75*
G02*
X110945000Y-111387500I0J262500D01*
G01*
G37*
D19*
X113500000Y-106045000D03*
D20*
X111000000Y-106045000D03*
G36*
G01*
X142970000Y-136262500D02*
X142970000Y-136787500D01*
G75*
G02*
X142707500Y-137050000I-262500J0D01*
G01*
X142082500Y-137050000D01*
G75*
G02*
X141820000Y-136787500I0J262500D01*
G01*
X141820000Y-136262500D01*
G75*
G02*
X142082500Y-136000000I262500J0D01*
G01*
X142707500Y-136000000D01*
G75*
G02*
X142970000Y-136262500I0J-262500D01*
G01*
G37*
G36*
G01*
X144720000Y-136262500D02*
X144720000Y-136787500D01*
G75*
G02*
X144457500Y-137050000I-262500J0D01*
G01*
X143832500Y-137050000D01*
G75*
G02*
X143570000Y-136787500I0J262500D01*
G01*
X143570000Y-136262500D01*
G75*
G02*
X143832500Y-136000000I262500J0D01*
G01*
X144457500Y-136000000D01*
G75*
G02*
X144720000Y-136262500I0J-262500D01*
G01*
G37*
G36*
G01*
X142970000Y-122292500D02*
X142970000Y-122817500D01*
G75*
G02*
X142707500Y-123080000I-262500J0D01*
G01*
X142082500Y-123080000D01*
G75*
G02*
X141820000Y-122817500I0J262500D01*
G01*
X141820000Y-122292500D01*
G75*
G02*
X142082500Y-122030000I262500J0D01*
G01*
X142707500Y-122030000D01*
G75*
G02*
X142970000Y-122292500I0J-262500D01*
G01*
G37*
G36*
G01*
X144720000Y-122292500D02*
X144720000Y-122817500D01*
G75*
G02*
X144457500Y-123080000I-262500J0D01*
G01*
X143832500Y-123080000D01*
G75*
G02*
X143570000Y-122817500I0J262500D01*
G01*
X143570000Y-122292500D01*
G75*
G02*
X143832500Y-122030000I262500J0D01*
G01*
X144457500Y-122030000D01*
G75*
G02*
X144720000Y-122292500I0J-262500D01*
G01*
G37*
G36*
G01*
X127335000Y-111497500D02*
X127335000Y-112022500D01*
G75*
G02*
X127072500Y-112285000I-262500J0D01*
G01*
X126447500Y-112285000D01*
G75*
G02*
X126185000Y-112022500I0J262500D01*
G01*
X126185000Y-111497500D01*
G75*
G02*
X126447500Y-111235000I262500J0D01*
G01*
X127072500Y-111235000D01*
G75*
G02*
X127335000Y-111497500I0J-262500D01*
G01*
G37*
G36*
G01*
X129085000Y-111497500D02*
X129085000Y-112022500D01*
G75*
G02*
X128822500Y-112285000I-262500J0D01*
G01*
X128197500Y-112285000D01*
G75*
G02*
X127935000Y-112022500I0J262500D01*
G01*
X127935000Y-111497500D01*
G75*
G02*
X128197500Y-111235000I262500J0D01*
G01*
X128822500Y-111235000D01*
G75*
G02*
X129085000Y-111497500I0J-262500D01*
G01*
G37*
G36*
G01*
X131745000Y-120912500D02*
X131745000Y-120387500D01*
G75*
G02*
X132007500Y-120125000I262500J0D01*
G01*
X132632500Y-120125000D01*
G75*
G02*
X132895000Y-120387500I0J-262500D01*
G01*
X132895000Y-120912500D01*
G75*
G02*
X132632500Y-121175000I-262500J0D01*
G01*
X132007500Y-121175000D01*
G75*
G02*
X131745000Y-120912500I0J262500D01*
G01*
G37*
G36*
G01*
X129995000Y-120912500D02*
X129995000Y-120387500D01*
G75*
G02*
X130257500Y-120125000I262500J0D01*
G01*
X130882500Y-120125000D01*
G75*
G02*
X131145000Y-120387500I0J-262500D01*
G01*
X131145000Y-120912500D01*
G75*
G02*
X130882500Y-121175000I-262500J0D01*
G01*
X130257500Y-121175000D01*
G75*
G02*
X129995000Y-120912500I0J262500D01*
G01*
G37*
G36*
G01*
X177895000Y-135737500D02*
X177895000Y-136262500D01*
G75*
G02*
X177632500Y-136525000I-262500J0D01*
G01*
X177007500Y-136525000D01*
G75*
G02*
X176745000Y-136262500I0J262500D01*
G01*
X176745000Y-135737500D01*
G75*
G02*
X177007500Y-135475000I262500J0D01*
G01*
X177632500Y-135475000D01*
G75*
G02*
X177895000Y-135737500I0J-262500D01*
G01*
G37*
G36*
G01*
X179645000Y-135737500D02*
X179645000Y-136262500D01*
G75*
G02*
X179382500Y-136525000I-262500J0D01*
G01*
X178757500Y-136525000D01*
G75*
G02*
X178495000Y-136262500I0J262500D01*
G01*
X178495000Y-135737500D01*
G75*
G02*
X178757500Y-135475000I262500J0D01*
G01*
X179382500Y-135475000D01*
G75*
G02*
X179645000Y-135737500I0J-262500D01*
G01*
G37*
G36*
G01*
X177895000Y-121657500D02*
X177895000Y-122182500D01*
G75*
G02*
X177632500Y-122445000I-262500J0D01*
G01*
X177007500Y-122445000D01*
G75*
G02*
X176745000Y-122182500I0J262500D01*
G01*
X176745000Y-121657500D01*
G75*
G02*
X177007500Y-121395000I262500J0D01*
G01*
X177632500Y-121395000D01*
G75*
G02*
X177895000Y-121657500I0J-262500D01*
G01*
G37*
G36*
G01*
X179645000Y-121657500D02*
X179645000Y-122182500D01*
G75*
G02*
X179382500Y-122445000I-262500J0D01*
G01*
X178757500Y-122445000D01*
G75*
G02*
X178495000Y-122182500I0J262500D01*
G01*
X178495000Y-121657500D01*
G75*
G02*
X178757500Y-121395000I262500J0D01*
G01*
X179382500Y-121395000D01*
G75*
G02*
X179645000Y-121657500I0J-262500D01*
G01*
G37*
D21*
X132080000Y-137795000D03*
X132143500Y-129222500D03*
X127127000Y-129222500D03*
X119570500Y-124841000D03*
X115443000Y-129603500D03*
X108077000Y-122809000D03*
X115570000Y-122999500D03*
X129032000Y-118999000D03*
X132334000Y-122110500D03*
X126746000Y-110363000D03*
X123444000Y-110045500D03*
X122555000Y-106045000D03*
X128587500Y-104330500D03*
X134683500Y-105981500D03*
X130619500Y-110363000D03*
X142367000Y-135064500D03*
X154305000Y-135509000D03*
X145986500Y-123634500D03*
X142367000Y-121094500D03*
X147955000Y-106299000D03*
X150495000Y-106299000D03*
X153035000Y-106299000D03*
X155575000Y-106299000D03*
X158115000Y-106362500D03*
X147955000Y-116459000D03*
X153035000Y-116459000D03*
X150495000Y-116459000D03*
X155575000Y-116459000D03*
X159385000Y-117919500D03*
X170815000Y-106172000D03*
X173355000Y-106172000D03*
X175895000Y-106172000D03*
X178435000Y-106172000D03*
X180975000Y-106172000D03*
X170815000Y-116459000D03*
X173355000Y-116459000D03*
X175895000Y-116459000D03*
X178435000Y-116459000D03*
X180975000Y-116459000D03*
X177355500Y-120459500D03*
X160782000Y-133540500D03*
X163385500Y-133540500D03*
X162941000Y-121729500D03*
X175831500Y-135953500D03*
X165100000Y-138684000D03*
X105981500Y-119126000D03*
X101000000Y-110000000D03*
X110000000Y-138500000D03*
X120000000Y-138500000D03*
X130000000Y-138500000D03*
X180000000Y-138500000D03*
X184500000Y-130000000D03*
X184500000Y-120000000D03*
X184500000Y-110000000D03*
X110000000Y-101500000D03*
X120000000Y-101500000D03*
X140000000Y-101500000D03*
X150000000Y-101500000D03*
X160000000Y-101500000D03*
X170000000Y-101500000D03*
X180000000Y-101500000D03*
X152654000Y-125730000D03*
X141478000Y-111760000D03*
X125222000Y-119634000D03*
X146812000Y-120396000D03*
X169672000Y-120904000D03*
X173228000Y-129032000D03*
X150876000Y-128524000D03*
X116332000Y-107696000D03*
X116332000Y-104648000D03*
X107950000Y-112522000D03*
X107950000Y-109728000D03*
X110744000Y-119380000D03*
X115062000Y-119380000D03*
X130556000Y-114300000D03*
X166116000Y-123190000D03*
X134112000Y-123952000D03*
X157226000Y-129540000D03*
X164846000Y-110236000D03*
X128778000Y-116840000D03*
X137414000Y-110236000D03*
M02*
