G04 #@! TF.GenerationSoftware,KiCad,Pcbnew,(5.1.6)-1*
G04 #@! TF.CreationDate,2020-12-27T23:26:00+09:00*
G04 #@! TF.ProjectId,VUMeterAmp,56554d65-7465-4724-916d-702e6b696361,rev?*
G04 #@! TF.SameCoordinates,Original*
G04 #@! TF.FileFunction,Soldermask,Top*
G04 #@! TF.FilePolarity,Negative*
%FSLAX46Y46*%
G04 Gerber Fmt 4.6, Leading zero omitted, Abs format (unit mm)*
G04 Created by KiCad (PCBNEW (5.1.6)-1) date 2020-12-27 23:26:00*
%MOMM*%
%LPD*%
G01*
G04 APERTURE LIST*
%ADD10O,2.100000X1.800000*%
%ADD11C,3.300000*%
%ADD12O,1.800000X2.050000*%
%ADD13C,1.540000*%
%ADD14O,1.800000X1.800000*%
%ADD15R,1.800000X1.800000*%
%ADD16R,1.200000X1.200000*%
%ADD17C,1.700000*%
%ADD18R,1.700000X1.700000*%
%ADD19C,0.900000*%
G04 APERTURE END LIST*
D10*
X104140000Y-113625000D03*
G36*
G01*
X103354706Y-110225000D02*
X104925294Y-110225000D01*
G75*
G02*
X105190000Y-110489706I0J-264706D01*
G01*
X105190000Y-111760294D01*
G75*
G02*
X104925294Y-112025000I-264706J0D01*
G01*
X103354706Y-112025000D01*
G75*
G02*
X103090000Y-111760294I0J264706D01*
G01*
X103090000Y-110489706D01*
G75*
G02*
X103354706Y-110225000I264706J0D01*
G01*
G37*
D11*
X164000000Y-117000000D03*
X104000000Y-104000000D03*
X122555000Y-134000000D03*
G36*
G01*
X115395000Y-125475000D02*
X115745000Y-125475000D01*
G75*
G02*
X115920000Y-125650000I0J-175000D01*
G01*
X115920000Y-127150000D01*
G75*
G02*
X115745000Y-127325000I-175000J0D01*
G01*
X115395000Y-127325000D01*
G75*
G02*
X115220000Y-127150000I0J175000D01*
G01*
X115220000Y-125650000D01*
G75*
G02*
X115395000Y-125475000I175000J0D01*
G01*
G37*
G36*
G01*
X114125000Y-125475000D02*
X114475000Y-125475000D01*
G75*
G02*
X114650000Y-125650000I0J-175000D01*
G01*
X114650000Y-127150000D01*
G75*
G02*
X114475000Y-127325000I-175000J0D01*
G01*
X114125000Y-127325000D01*
G75*
G02*
X113950000Y-127150000I0J175000D01*
G01*
X113950000Y-125650000D01*
G75*
G02*
X114125000Y-125475000I175000J0D01*
G01*
G37*
G36*
G01*
X112855000Y-125475000D02*
X113205000Y-125475000D01*
G75*
G02*
X113380000Y-125650000I0J-175000D01*
G01*
X113380000Y-127150000D01*
G75*
G02*
X113205000Y-127325000I-175000J0D01*
G01*
X112855000Y-127325000D01*
G75*
G02*
X112680000Y-127150000I0J175000D01*
G01*
X112680000Y-125650000D01*
G75*
G02*
X112855000Y-125475000I175000J0D01*
G01*
G37*
G36*
G01*
X111585000Y-125475000D02*
X111935000Y-125475000D01*
G75*
G02*
X112110000Y-125650000I0J-175000D01*
G01*
X112110000Y-127150000D01*
G75*
G02*
X111935000Y-127325000I-175000J0D01*
G01*
X111585000Y-127325000D01*
G75*
G02*
X111410000Y-127150000I0J175000D01*
G01*
X111410000Y-125650000D01*
G75*
G02*
X111585000Y-125475000I175000J0D01*
G01*
G37*
G36*
G01*
X111585000Y-120325000D02*
X111935000Y-120325000D01*
G75*
G02*
X112110000Y-120500000I0J-175000D01*
G01*
X112110000Y-122000000D01*
G75*
G02*
X111935000Y-122175000I-175000J0D01*
G01*
X111585000Y-122175000D01*
G75*
G02*
X111410000Y-122000000I0J175000D01*
G01*
X111410000Y-120500000D01*
G75*
G02*
X111585000Y-120325000I175000J0D01*
G01*
G37*
G36*
G01*
X112855000Y-120325000D02*
X113205000Y-120325000D01*
G75*
G02*
X113380000Y-120500000I0J-175000D01*
G01*
X113380000Y-122000000D01*
G75*
G02*
X113205000Y-122175000I-175000J0D01*
G01*
X112855000Y-122175000D01*
G75*
G02*
X112680000Y-122000000I0J175000D01*
G01*
X112680000Y-120500000D01*
G75*
G02*
X112855000Y-120325000I175000J0D01*
G01*
G37*
G36*
G01*
X114125000Y-120325000D02*
X114475000Y-120325000D01*
G75*
G02*
X114650000Y-120500000I0J-175000D01*
G01*
X114650000Y-122000000D01*
G75*
G02*
X114475000Y-122175000I-175000J0D01*
G01*
X114125000Y-122175000D01*
G75*
G02*
X113950000Y-122000000I0J175000D01*
G01*
X113950000Y-120500000D01*
G75*
G02*
X114125000Y-120325000I175000J0D01*
G01*
G37*
G36*
G01*
X115395000Y-120325000D02*
X115745000Y-120325000D01*
G75*
G02*
X115920000Y-120500000I0J-175000D01*
G01*
X115920000Y-122000000D01*
G75*
G02*
X115745000Y-122175000I-175000J0D01*
G01*
X115395000Y-122175000D01*
G75*
G02*
X115220000Y-122000000I0J175000D01*
G01*
X115220000Y-120500000D01*
G75*
G02*
X115395000Y-120325000I175000J0D01*
G01*
G37*
G36*
G01*
X160275000Y-129365000D02*
X160275000Y-129715000D01*
G75*
G02*
X160100000Y-129890000I-175000J0D01*
G01*
X158600000Y-129890000D01*
G75*
G02*
X158425000Y-129715000I0J175000D01*
G01*
X158425000Y-129365000D01*
G75*
G02*
X158600000Y-129190000I175000J0D01*
G01*
X160100000Y-129190000D01*
G75*
G02*
X160275000Y-129365000I0J-175000D01*
G01*
G37*
G36*
G01*
X160275000Y-128095000D02*
X160275000Y-128445000D01*
G75*
G02*
X160100000Y-128620000I-175000J0D01*
G01*
X158600000Y-128620000D01*
G75*
G02*
X158425000Y-128445000I0J175000D01*
G01*
X158425000Y-128095000D01*
G75*
G02*
X158600000Y-127920000I175000J0D01*
G01*
X160100000Y-127920000D01*
G75*
G02*
X160275000Y-128095000I0J-175000D01*
G01*
G37*
G36*
G01*
X160275000Y-126825000D02*
X160275000Y-127175000D01*
G75*
G02*
X160100000Y-127350000I-175000J0D01*
G01*
X158600000Y-127350000D01*
G75*
G02*
X158425000Y-127175000I0J175000D01*
G01*
X158425000Y-126825000D01*
G75*
G02*
X158600000Y-126650000I175000J0D01*
G01*
X160100000Y-126650000D01*
G75*
G02*
X160275000Y-126825000I0J-175000D01*
G01*
G37*
G36*
G01*
X160275000Y-125555000D02*
X160275000Y-125905000D01*
G75*
G02*
X160100000Y-126080000I-175000J0D01*
G01*
X158600000Y-126080000D01*
G75*
G02*
X158425000Y-125905000I0J175000D01*
G01*
X158425000Y-125555000D01*
G75*
G02*
X158600000Y-125380000I175000J0D01*
G01*
X160100000Y-125380000D01*
G75*
G02*
X160275000Y-125555000I0J-175000D01*
G01*
G37*
G36*
G01*
X165425000Y-125555000D02*
X165425000Y-125905000D01*
G75*
G02*
X165250000Y-126080000I-175000J0D01*
G01*
X163750000Y-126080000D01*
G75*
G02*
X163575000Y-125905000I0J175000D01*
G01*
X163575000Y-125555000D01*
G75*
G02*
X163750000Y-125380000I175000J0D01*
G01*
X165250000Y-125380000D01*
G75*
G02*
X165425000Y-125555000I0J-175000D01*
G01*
G37*
G36*
G01*
X165425000Y-126825000D02*
X165425000Y-127175000D01*
G75*
G02*
X165250000Y-127350000I-175000J0D01*
G01*
X163750000Y-127350000D01*
G75*
G02*
X163575000Y-127175000I0J175000D01*
G01*
X163575000Y-126825000D01*
G75*
G02*
X163750000Y-126650000I175000J0D01*
G01*
X165250000Y-126650000D01*
G75*
G02*
X165425000Y-126825000I0J-175000D01*
G01*
G37*
G36*
G01*
X165425000Y-128095000D02*
X165425000Y-128445000D01*
G75*
G02*
X165250000Y-128620000I-175000J0D01*
G01*
X163750000Y-128620000D01*
G75*
G02*
X163575000Y-128445000I0J175000D01*
G01*
X163575000Y-128095000D01*
G75*
G02*
X163750000Y-127920000I175000J0D01*
G01*
X165250000Y-127920000D01*
G75*
G02*
X165425000Y-128095000I0J-175000D01*
G01*
G37*
G36*
G01*
X165425000Y-129365000D02*
X165425000Y-129715000D01*
G75*
G02*
X165250000Y-129890000I-175000J0D01*
G01*
X163750000Y-129890000D01*
G75*
G02*
X163575000Y-129715000I0J175000D01*
G01*
X163575000Y-129365000D01*
G75*
G02*
X163750000Y-129190000I175000J0D01*
G01*
X165250000Y-129190000D01*
G75*
G02*
X165425000Y-129365000I0J-175000D01*
G01*
G37*
G36*
G01*
X127890000Y-117935000D02*
X127890000Y-118285000D01*
G75*
G02*
X127715000Y-118460000I-175000J0D01*
G01*
X126215000Y-118460000D01*
G75*
G02*
X126040000Y-118285000I0J175000D01*
G01*
X126040000Y-117935000D01*
G75*
G02*
X126215000Y-117760000I175000J0D01*
G01*
X127715000Y-117760000D01*
G75*
G02*
X127890000Y-117935000I0J-175000D01*
G01*
G37*
G36*
G01*
X127890000Y-116665000D02*
X127890000Y-117015000D01*
G75*
G02*
X127715000Y-117190000I-175000J0D01*
G01*
X126215000Y-117190000D01*
G75*
G02*
X126040000Y-117015000I0J175000D01*
G01*
X126040000Y-116665000D01*
G75*
G02*
X126215000Y-116490000I175000J0D01*
G01*
X127715000Y-116490000D01*
G75*
G02*
X127890000Y-116665000I0J-175000D01*
G01*
G37*
G36*
G01*
X127890000Y-115395000D02*
X127890000Y-115745000D01*
G75*
G02*
X127715000Y-115920000I-175000J0D01*
G01*
X126215000Y-115920000D01*
G75*
G02*
X126040000Y-115745000I0J175000D01*
G01*
X126040000Y-115395000D01*
G75*
G02*
X126215000Y-115220000I175000J0D01*
G01*
X127715000Y-115220000D01*
G75*
G02*
X127890000Y-115395000I0J-175000D01*
G01*
G37*
G36*
G01*
X127890000Y-114125000D02*
X127890000Y-114475000D01*
G75*
G02*
X127715000Y-114650000I-175000J0D01*
G01*
X126215000Y-114650000D01*
G75*
G02*
X126040000Y-114475000I0J175000D01*
G01*
X126040000Y-114125000D01*
G75*
G02*
X126215000Y-113950000I175000J0D01*
G01*
X127715000Y-113950000D01*
G75*
G02*
X127890000Y-114125000I0J-175000D01*
G01*
G37*
G36*
G01*
X133040000Y-114125000D02*
X133040000Y-114475000D01*
G75*
G02*
X132865000Y-114650000I-175000J0D01*
G01*
X131365000Y-114650000D01*
G75*
G02*
X131190000Y-114475000I0J175000D01*
G01*
X131190000Y-114125000D01*
G75*
G02*
X131365000Y-113950000I175000J0D01*
G01*
X132865000Y-113950000D01*
G75*
G02*
X133040000Y-114125000I0J-175000D01*
G01*
G37*
G36*
G01*
X133040000Y-115395000D02*
X133040000Y-115745000D01*
G75*
G02*
X132865000Y-115920000I-175000J0D01*
G01*
X131365000Y-115920000D01*
G75*
G02*
X131190000Y-115745000I0J175000D01*
G01*
X131190000Y-115395000D01*
G75*
G02*
X131365000Y-115220000I175000J0D01*
G01*
X132865000Y-115220000D01*
G75*
G02*
X133040000Y-115395000I0J-175000D01*
G01*
G37*
G36*
G01*
X133040000Y-116665000D02*
X133040000Y-117015000D01*
G75*
G02*
X132865000Y-117190000I-175000J0D01*
G01*
X131365000Y-117190000D01*
G75*
G02*
X131190000Y-117015000I0J175000D01*
G01*
X131190000Y-116665000D01*
G75*
G02*
X131365000Y-116490000I175000J0D01*
G01*
X132865000Y-116490000D01*
G75*
G02*
X133040000Y-116665000I0J-175000D01*
G01*
G37*
G36*
G01*
X133040000Y-117935000D02*
X133040000Y-118285000D01*
G75*
G02*
X132865000Y-118460000I-175000J0D01*
G01*
X131365000Y-118460000D01*
G75*
G02*
X131190000Y-118285000I0J175000D01*
G01*
X131190000Y-117935000D01*
G75*
G02*
X131365000Y-117760000I175000J0D01*
G01*
X132865000Y-117760000D01*
G75*
G02*
X133040000Y-117935000I0J-175000D01*
G01*
G37*
D10*
X104140000Y-123150000D03*
G36*
G01*
X103354706Y-119750000D02*
X104925294Y-119750000D01*
G75*
G02*
X105190000Y-120014706I0J-264706D01*
G01*
X105190000Y-121285294D01*
G75*
G02*
X104925294Y-121550000I-264706J0D01*
G01*
X103354706Y-121550000D01*
G75*
G02*
X103090000Y-121285294I0J264706D01*
G01*
X103090000Y-120014706D01*
G75*
G02*
X103354706Y-119750000I264706J0D01*
G01*
G37*
D12*
X127120000Y-127254000D03*
X129620000Y-127254000D03*
X132120000Y-127254000D03*
G36*
G01*
X135520000Y-126493706D02*
X135520000Y-128014294D01*
G75*
G02*
X135255294Y-128279000I-264706J0D01*
G01*
X133984706Y-128279000D01*
G75*
G02*
X133720000Y-128014294I0J264706D01*
G01*
X133720000Y-126493706D01*
G75*
G02*
X133984706Y-126229000I264706J0D01*
G01*
X135255294Y-126229000D01*
G75*
G02*
X135520000Y-126493706I0J-264706D01*
G01*
G37*
D13*
X110490000Y-133985000D03*
X113030000Y-133985000D03*
X115570000Y-133985000D03*
X154305000Y-129540000D03*
X154305000Y-127000000D03*
X154305000Y-124460000D03*
X169545000Y-129540000D03*
X169545000Y-127000000D03*
X169545000Y-124460000D03*
X141605000Y-132715000D03*
X144145000Y-132715000D03*
X146685000Y-132715000D03*
X141605000Y-126365000D03*
X144145000Y-126365000D03*
X146685000Y-126365000D03*
X121920000Y-118745000D03*
X121920000Y-116205000D03*
X121920000Y-113665000D03*
X137160000Y-118745000D03*
X137160000Y-116205000D03*
X137160000Y-113665000D03*
X181610000Y-132080000D03*
X179070000Y-132080000D03*
X176530000Y-132080000D03*
X181610000Y-125730000D03*
X179070000Y-125730000D03*
X176530000Y-125730000D03*
G36*
G01*
X115235000Y-118372500D02*
X115235000Y-117847500D01*
G75*
G02*
X115497500Y-117585000I262500J0D01*
G01*
X116122500Y-117585000D01*
G75*
G02*
X116385000Y-117847500I0J-262500D01*
G01*
X116385000Y-118372500D01*
G75*
G02*
X116122500Y-118635000I-262500J0D01*
G01*
X115497500Y-118635000D01*
G75*
G02*
X115235000Y-118372500I0J262500D01*
G01*
G37*
G36*
G01*
X113485000Y-118372500D02*
X113485000Y-117847500D01*
G75*
G02*
X113747500Y-117585000I262500J0D01*
G01*
X114372500Y-117585000D01*
G75*
G02*
X114635000Y-117847500I0J-262500D01*
G01*
X114635000Y-118372500D01*
G75*
G02*
X114372500Y-118635000I-262500J0D01*
G01*
X113747500Y-118635000D01*
G75*
G02*
X113485000Y-118372500I0J262500D01*
G01*
G37*
G36*
G01*
X111425000Y-118372500D02*
X111425000Y-117847500D01*
G75*
G02*
X111687500Y-117585000I262500J0D01*
G01*
X112312500Y-117585000D01*
G75*
G02*
X112575000Y-117847500I0J-262500D01*
G01*
X112575000Y-118372500D01*
G75*
G02*
X112312500Y-118635000I-262500J0D01*
G01*
X111687500Y-118635000D01*
G75*
G02*
X111425000Y-118372500I0J262500D01*
G01*
G37*
G36*
G01*
X109675000Y-118372500D02*
X109675000Y-117847500D01*
G75*
G02*
X109937500Y-117585000I262500J0D01*
G01*
X110562500Y-117585000D01*
G75*
G02*
X110825000Y-117847500I0J-262500D01*
G01*
X110825000Y-118372500D01*
G75*
G02*
X110562500Y-118635000I-262500J0D01*
G01*
X109937500Y-118635000D01*
G75*
G02*
X109675000Y-118372500I0J262500D01*
G01*
G37*
G36*
G01*
X160917500Y-136225000D02*
X160392500Y-136225000D01*
G75*
G02*
X160130000Y-135962500I0J262500D01*
G01*
X160130000Y-135337500D01*
G75*
G02*
X160392500Y-135075000I262500J0D01*
G01*
X160917500Y-135075000D01*
G75*
G02*
X161180000Y-135337500I0J-262500D01*
G01*
X161180000Y-135962500D01*
G75*
G02*
X160917500Y-136225000I-262500J0D01*
G01*
G37*
G36*
G01*
X160917500Y-137975000D02*
X160392500Y-137975000D01*
G75*
G02*
X160130000Y-137712500I0J262500D01*
G01*
X160130000Y-137087500D01*
G75*
G02*
X160392500Y-136825000I262500J0D01*
G01*
X160917500Y-136825000D01*
G75*
G02*
X161180000Y-137087500I0J-262500D01*
G01*
X161180000Y-137712500D01*
G75*
G02*
X160917500Y-137975000I-262500J0D01*
G01*
G37*
G36*
G01*
X164092500Y-136225000D02*
X163567500Y-136225000D01*
G75*
G02*
X163305000Y-135962500I0J262500D01*
G01*
X163305000Y-135337500D01*
G75*
G02*
X163567500Y-135075000I262500J0D01*
G01*
X164092500Y-135075000D01*
G75*
G02*
X164355000Y-135337500I0J-262500D01*
G01*
X164355000Y-135962500D01*
G75*
G02*
X164092500Y-136225000I-262500J0D01*
G01*
G37*
G36*
G01*
X164092500Y-137975000D02*
X163567500Y-137975000D01*
G75*
G02*
X163305000Y-137712500I0J262500D01*
G01*
X163305000Y-137087500D01*
G75*
G02*
X163567500Y-136825000I262500J0D01*
G01*
X164092500Y-136825000D01*
G75*
G02*
X164355000Y-137087500I0J-262500D01*
G01*
X164355000Y-137712500D01*
G75*
G02*
X164092500Y-137975000I-262500J0D01*
G01*
G37*
G36*
G01*
X160320000Y-123452500D02*
X160320000Y-122927500D01*
G75*
G02*
X160582500Y-122665000I262500J0D01*
G01*
X161207500Y-122665000D01*
G75*
G02*
X161470000Y-122927500I0J-262500D01*
G01*
X161470000Y-123452500D01*
G75*
G02*
X161207500Y-123715000I-262500J0D01*
G01*
X160582500Y-123715000D01*
G75*
G02*
X160320000Y-123452500I0J262500D01*
G01*
G37*
G36*
G01*
X158570000Y-123452500D02*
X158570000Y-122927500D01*
G75*
G02*
X158832500Y-122665000I262500J0D01*
G01*
X159457500Y-122665000D01*
G75*
G02*
X159720000Y-122927500I0J-262500D01*
G01*
X159720000Y-123452500D01*
G75*
G02*
X159457500Y-123715000I-262500J0D01*
G01*
X158832500Y-123715000D01*
G75*
G02*
X158570000Y-123452500I0J262500D01*
G01*
G37*
G36*
G01*
X163530000Y-131817500D02*
X163530000Y-132342500D01*
G75*
G02*
X163267500Y-132605000I-262500J0D01*
G01*
X162642500Y-132605000D01*
G75*
G02*
X162380000Y-132342500I0J262500D01*
G01*
X162380000Y-131817500D01*
G75*
G02*
X162642500Y-131555000I262500J0D01*
G01*
X163267500Y-131555000D01*
G75*
G02*
X163530000Y-131817500I0J-262500D01*
G01*
G37*
G36*
G01*
X165280000Y-131817500D02*
X165280000Y-132342500D01*
G75*
G02*
X165017500Y-132605000I-262500J0D01*
G01*
X164392500Y-132605000D01*
G75*
G02*
X164130000Y-132342500I0J262500D01*
G01*
X164130000Y-131817500D01*
G75*
G02*
X164392500Y-131555000I262500J0D01*
G01*
X165017500Y-131555000D01*
G75*
G02*
X165280000Y-131817500I0J-262500D01*
G01*
G37*
G36*
G01*
X159647500Y-115270000D02*
X159122500Y-115270000D01*
G75*
G02*
X158860000Y-115007500I0J262500D01*
G01*
X158860000Y-114382500D01*
G75*
G02*
X159122500Y-114120000I262500J0D01*
G01*
X159647500Y-114120000D01*
G75*
G02*
X159910000Y-114382500I0J-262500D01*
G01*
X159910000Y-115007500D01*
G75*
G02*
X159647500Y-115270000I-262500J0D01*
G01*
G37*
G36*
G01*
X159647500Y-117020000D02*
X159122500Y-117020000D01*
G75*
G02*
X158860000Y-116757500I0J262500D01*
G01*
X158860000Y-116132500D01*
G75*
G02*
X159122500Y-115870000I262500J0D01*
G01*
X159647500Y-115870000D01*
G75*
G02*
X159910000Y-116132500I0J-262500D01*
G01*
X159910000Y-116757500D01*
G75*
G02*
X159647500Y-117020000I-262500J0D01*
G01*
G37*
G36*
G01*
X157107500Y-115270000D02*
X156582500Y-115270000D01*
G75*
G02*
X156320000Y-115007500I0J262500D01*
G01*
X156320000Y-114382500D01*
G75*
G02*
X156582500Y-114120000I262500J0D01*
G01*
X157107500Y-114120000D01*
G75*
G02*
X157370000Y-114382500I0J-262500D01*
G01*
X157370000Y-115007500D01*
G75*
G02*
X157107500Y-115270000I-262500J0D01*
G01*
G37*
G36*
G01*
X157107500Y-117020000D02*
X156582500Y-117020000D01*
G75*
G02*
X156320000Y-116757500I0J262500D01*
G01*
X156320000Y-116132500D01*
G75*
G02*
X156582500Y-115870000I262500J0D01*
G01*
X157107500Y-115870000D01*
G75*
G02*
X157370000Y-116132500I0J-262500D01*
G01*
X157370000Y-116757500D01*
G75*
G02*
X157107500Y-117020000I-262500J0D01*
G01*
G37*
G36*
G01*
X154567500Y-115270000D02*
X154042500Y-115270000D01*
G75*
G02*
X153780000Y-115007500I0J262500D01*
G01*
X153780000Y-114382500D01*
G75*
G02*
X154042500Y-114120000I262500J0D01*
G01*
X154567500Y-114120000D01*
G75*
G02*
X154830000Y-114382500I0J-262500D01*
G01*
X154830000Y-115007500D01*
G75*
G02*
X154567500Y-115270000I-262500J0D01*
G01*
G37*
G36*
G01*
X154567500Y-117020000D02*
X154042500Y-117020000D01*
G75*
G02*
X153780000Y-116757500I0J262500D01*
G01*
X153780000Y-116132500D01*
G75*
G02*
X154042500Y-115870000I262500J0D01*
G01*
X154567500Y-115870000D01*
G75*
G02*
X154830000Y-116132500I0J-262500D01*
G01*
X154830000Y-116757500D01*
G75*
G02*
X154567500Y-117020000I-262500J0D01*
G01*
G37*
G36*
G01*
X152027500Y-115270000D02*
X151502500Y-115270000D01*
G75*
G02*
X151240000Y-115007500I0J262500D01*
G01*
X151240000Y-114382500D01*
G75*
G02*
X151502500Y-114120000I262500J0D01*
G01*
X152027500Y-114120000D01*
G75*
G02*
X152290000Y-114382500I0J-262500D01*
G01*
X152290000Y-115007500D01*
G75*
G02*
X152027500Y-115270000I-262500J0D01*
G01*
G37*
G36*
G01*
X152027500Y-117020000D02*
X151502500Y-117020000D01*
G75*
G02*
X151240000Y-116757500I0J262500D01*
G01*
X151240000Y-116132500D01*
G75*
G02*
X151502500Y-115870000I262500J0D01*
G01*
X152027500Y-115870000D01*
G75*
G02*
X152290000Y-116132500I0J-262500D01*
G01*
X152290000Y-116757500D01*
G75*
G02*
X152027500Y-117020000I-262500J0D01*
G01*
G37*
G36*
G01*
X149487500Y-115270000D02*
X148962500Y-115270000D01*
G75*
G02*
X148700000Y-115007500I0J262500D01*
G01*
X148700000Y-114382500D01*
G75*
G02*
X148962500Y-114120000I262500J0D01*
G01*
X149487500Y-114120000D01*
G75*
G02*
X149750000Y-114382500I0J-262500D01*
G01*
X149750000Y-115007500D01*
G75*
G02*
X149487500Y-115270000I-262500J0D01*
G01*
G37*
G36*
G01*
X149487500Y-117020000D02*
X148962500Y-117020000D01*
G75*
G02*
X148700000Y-116757500I0J262500D01*
G01*
X148700000Y-116132500D01*
G75*
G02*
X148962500Y-115870000I262500J0D01*
G01*
X149487500Y-115870000D01*
G75*
G02*
X149750000Y-116132500I0J-262500D01*
G01*
X149750000Y-116757500D01*
G75*
G02*
X149487500Y-117020000I-262500J0D01*
G01*
G37*
G36*
G01*
X146947500Y-115270000D02*
X146422500Y-115270000D01*
G75*
G02*
X146160000Y-115007500I0J262500D01*
G01*
X146160000Y-114382500D01*
G75*
G02*
X146422500Y-114120000I262500J0D01*
G01*
X146947500Y-114120000D01*
G75*
G02*
X147210000Y-114382500I0J-262500D01*
G01*
X147210000Y-115007500D01*
G75*
G02*
X146947500Y-115270000I-262500J0D01*
G01*
G37*
G36*
G01*
X146947500Y-117020000D02*
X146422500Y-117020000D01*
G75*
G02*
X146160000Y-116757500I0J262500D01*
G01*
X146160000Y-116132500D01*
G75*
G02*
X146422500Y-115870000I262500J0D01*
G01*
X146947500Y-115870000D01*
G75*
G02*
X147210000Y-116132500I0J-262500D01*
G01*
X147210000Y-116757500D01*
G75*
G02*
X146947500Y-117020000I-262500J0D01*
G01*
G37*
G36*
G01*
X182507500Y-115270000D02*
X181982500Y-115270000D01*
G75*
G02*
X181720000Y-115007500I0J262500D01*
G01*
X181720000Y-114382500D01*
G75*
G02*
X181982500Y-114120000I262500J0D01*
G01*
X182507500Y-114120000D01*
G75*
G02*
X182770000Y-114382500I0J-262500D01*
G01*
X182770000Y-115007500D01*
G75*
G02*
X182507500Y-115270000I-262500J0D01*
G01*
G37*
G36*
G01*
X182507500Y-117020000D02*
X181982500Y-117020000D01*
G75*
G02*
X181720000Y-116757500I0J262500D01*
G01*
X181720000Y-116132500D01*
G75*
G02*
X181982500Y-115870000I262500J0D01*
G01*
X182507500Y-115870000D01*
G75*
G02*
X182770000Y-116132500I0J-262500D01*
G01*
X182770000Y-116757500D01*
G75*
G02*
X182507500Y-117020000I-262500J0D01*
G01*
G37*
G36*
G01*
X179967500Y-115270000D02*
X179442500Y-115270000D01*
G75*
G02*
X179180000Y-115007500I0J262500D01*
G01*
X179180000Y-114382500D01*
G75*
G02*
X179442500Y-114120000I262500J0D01*
G01*
X179967500Y-114120000D01*
G75*
G02*
X180230000Y-114382500I0J-262500D01*
G01*
X180230000Y-115007500D01*
G75*
G02*
X179967500Y-115270000I-262500J0D01*
G01*
G37*
G36*
G01*
X179967500Y-117020000D02*
X179442500Y-117020000D01*
G75*
G02*
X179180000Y-116757500I0J262500D01*
G01*
X179180000Y-116132500D01*
G75*
G02*
X179442500Y-115870000I262500J0D01*
G01*
X179967500Y-115870000D01*
G75*
G02*
X180230000Y-116132500I0J-262500D01*
G01*
X180230000Y-116757500D01*
G75*
G02*
X179967500Y-117020000I-262500J0D01*
G01*
G37*
G36*
G01*
X177427500Y-115270000D02*
X176902500Y-115270000D01*
G75*
G02*
X176640000Y-115007500I0J262500D01*
G01*
X176640000Y-114382500D01*
G75*
G02*
X176902500Y-114120000I262500J0D01*
G01*
X177427500Y-114120000D01*
G75*
G02*
X177690000Y-114382500I0J-262500D01*
G01*
X177690000Y-115007500D01*
G75*
G02*
X177427500Y-115270000I-262500J0D01*
G01*
G37*
G36*
G01*
X177427500Y-117020000D02*
X176902500Y-117020000D01*
G75*
G02*
X176640000Y-116757500I0J262500D01*
G01*
X176640000Y-116132500D01*
G75*
G02*
X176902500Y-115870000I262500J0D01*
G01*
X177427500Y-115870000D01*
G75*
G02*
X177690000Y-116132500I0J-262500D01*
G01*
X177690000Y-116757500D01*
G75*
G02*
X177427500Y-117020000I-262500J0D01*
G01*
G37*
G36*
G01*
X174887500Y-115270000D02*
X174362500Y-115270000D01*
G75*
G02*
X174100000Y-115007500I0J262500D01*
G01*
X174100000Y-114382500D01*
G75*
G02*
X174362500Y-114120000I262500J0D01*
G01*
X174887500Y-114120000D01*
G75*
G02*
X175150000Y-114382500I0J-262500D01*
G01*
X175150000Y-115007500D01*
G75*
G02*
X174887500Y-115270000I-262500J0D01*
G01*
G37*
G36*
G01*
X174887500Y-117020000D02*
X174362500Y-117020000D01*
G75*
G02*
X174100000Y-116757500I0J262500D01*
G01*
X174100000Y-116132500D01*
G75*
G02*
X174362500Y-115870000I262500J0D01*
G01*
X174887500Y-115870000D01*
G75*
G02*
X175150000Y-116132500I0J-262500D01*
G01*
X175150000Y-116757500D01*
G75*
G02*
X174887500Y-117020000I-262500J0D01*
G01*
G37*
G36*
G01*
X172347500Y-115270000D02*
X171822500Y-115270000D01*
G75*
G02*
X171560000Y-115007500I0J262500D01*
G01*
X171560000Y-114382500D01*
G75*
G02*
X171822500Y-114120000I262500J0D01*
G01*
X172347500Y-114120000D01*
G75*
G02*
X172610000Y-114382500I0J-262500D01*
G01*
X172610000Y-115007500D01*
G75*
G02*
X172347500Y-115270000I-262500J0D01*
G01*
G37*
G36*
G01*
X172347500Y-117020000D02*
X171822500Y-117020000D01*
G75*
G02*
X171560000Y-116757500I0J262500D01*
G01*
X171560000Y-116132500D01*
G75*
G02*
X171822500Y-115870000I262500J0D01*
G01*
X172347500Y-115870000D01*
G75*
G02*
X172610000Y-116132500I0J-262500D01*
G01*
X172610000Y-116757500D01*
G75*
G02*
X172347500Y-117020000I-262500J0D01*
G01*
G37*
G36*
G01*
X169807500Y-115270000D02*
X169282500Y-115270000D01*
G75*
G02*
X169020000Y-115007500I0J262500D01*
G01*
X169020000Y-114382500D01*
G75*
G02*
X169282500Y-114120000I262500J0D01*
G01*
X169807500Y-114120000D01*
G75*
G02*
X170070000Y-114382500I0J-262500D01*
G01*
X170070000Y-115007500D01*
G75*
G02*
X169807500Y-115270000I-262500J0D01*
G01*
G37*
G36*
G01*
X169807500Y-117020000D02*
X169282500Y-117020000D01*
G75*
G02*
X169020000Y-116757500I0J262500D01*
G01*
X169020000Y-116132500D01*
G75*
G02*
X169282500Y-115870000I262500J0D01*
G01*
X169807500Y-115870000D01*
G75*
G02*
X170070000Y-116132500I0J-262500D01*
G01*
X170070000Y-116757500D01*
G75*
G02*
X169807500Y-117020000I-262500J0D01*
G01*
G37*
G36*
G01*
X159647500Y-108920000D02*
X159122500Y-108920000D01*
G75*
G02*
X158860000Y-108657500I0J262500D01*
G01*
X158860000Y-108032500D01*
G75*
G02*
X159122500Y-107770000I262500J0D01*
G01*
X159647500Y-107770000D01*
G75*
G02*
X159910000Y-108032500I0J-262500D01*
G01*
X159910000Y-108657500D01*
G75*
G02*
X159647500Y-108920000I-262500J0D01*
G01*
G37*
G36*
G01*
X159647500Y-110670000D02*
X159122500Y-110670000D01*
G75*
G02*
X158860000Y-110407500I0J262500D01*
G01*
X158860000Y-109782500D01*
G75*
G02*
X159122500Y-109520000I262500J0D01*
G01*
X159647500Y-109520000D01*
G75*
G02*
X159910000Y-109782500I0J-262500D01*
G01*
X159910000Y-110407500D01*
G75*
G02*
X159647500Y-110670000I-262500J0D01*
G01*
G37*
G36*
G01*
X157107500Y-108920000D02*
X156582500Y-108920000D01*
G75*
G02*
X156320000Y-108657500I0J262500D01*
G01*
X156320000Y-108032500D01*
G75*
G02*
X156582500Y-107770000I262500J0D01*
G01*
X157107500Y-107770000D01*
G75*
G02*
X157370000Y-108032500I0J-262500D01*
G01*
X157370000Y-108657500D01*
G75*
G02*
X157107500Y-108920000I-262500J0D01*
G01*
G37*
G36*
G01*
X157107500Y-110670000D02*
X156582500Y-110670000D01*
G75*
G02*
X156320000Y-110407500I0J262500D01*
G01*
X156320000Y-109782500D01*
G75*
G02*
X156582500Y-109520000I262500J0D01*
G01*
X157107500Y-109520000D01*
G75*
G02*
X157370000Y-109782500I0J-262500D01*
G01*
X157370000Y-110407500D01*
G75*
G02*
X157107500Y-110670000I-262500J0D01*
G01*
G37*
G36*
G01*
X154567500Y-108920000D02*
X154042500Y-108920000D01*
G75*
G02*
X153780000Y-108657500I0J262500D01*
G01*
X153780000Y-108032500D01*
G75*
G02*
X154042500Y-107770000I262500J0D01*
G01*
X154567500Y-107770000D01*
G75*
G02*
X154830000Y-108032500I0J-262500D01*
G01*
X154830000Y-108657500D01*
G75*
G02*
X154567500Y-108920000I-262500J0D01*
G01*
G37*
G36*
G01*
X154567500Y-110670000D02*
X154042500Y-110670000D01*
G75*
G02*
X153780000Y-110407500I0J262500D01*
G01*
X153780000Y-109782500D01*
G75*
G02*
X154042500Y-109520000I262500J0D01*
G01*
X154567500Y-109520000D01*
G75*
G02*
X154830000Y-109782500I0J-262500D01*
G01*
X154830000Y-110407500D01*
G75*
G02*
X154567500Y-110670000I-262500J0D01*
G01*
G37*
G36*
G01*
X152027500Y-108920000D02*
X151502500Y-108920000D01*
G75*
G02*
X151240000Y-108657500I0J262500D01*
G01*
X151240000Y-108032500D01*
G75*
G02*
X151502500Y-107770000I262500J0D01*
G01*
X152027500Y-107770000D01*
G75*
G02*
X152290000Y-108032500I0J-262500D01*
G01*
X152290000Y-108657500D01*
G75*
G02*
X152027500Y-108920000I-262500J0D01*
G01*
G37*
G36*
G01*
X152027500Y-110670000D02*
X151502500Y-110670000D01*
G75*
G02*
X151240000Y-110407500I0J262500D01*
G01*
X151240000Y-109782500D01*
G75*
G02*
X151502500Y-109520000I262500J0D01*
G01*
X152027500Y-109520000D01*
G75*
G02*
X152290000Y-109782500I0J-262500D01*
G01*
X152290000Y-110407500D01*
G75*
G02*
X152027500Y-110670000I-262500J0D01*
G01*
G37*
G36*
G01*
X149487500Y-108920000D02*
X148962500Y-108920000D01*
G75*
G02*
X148700000Y-108657500I0J262500D01*
G01*
X148700000Y-108032500D01*
G75*
G02*
X148962500Y-107770000I262500J0D01*
G01*
X149487500Y-107770000D01*
G75*
G02*
X149750000Y-108032500I0J-262500D01*
G01*
X149750000Y-108657500D01*
G75*
G02*
X149487500Y-108920000I-262500J0D01*
G01*
G37*
G36*
G01*
X149487500Y-110670000D02*
X148962500Y-110670000D01*
G75*
G02*
X148700000Y-110407500I0J262500D01*
G01*
X148700000Y-109782500D01*
G75*
G02*
X148962500Y-109520000I262500J0D01*
G01*
X149487500Y-109520000D01*
G75*
G02*
X149750000Y-109782500I0J-262500D01*
G01*
X149750000Y-110407500D01*
G75*
G02*
X149487500Y-110670000I-262500J0D01*
G01*
G37*
G36*
G01*
X146947500Y-108920000D02*
X146422500Y-108920000D01*
G75*
G02*
X146160000Y-108657500I0J262500D01*
G01*
X146160000Y-108032500D01*
G75*
G02*
X146422500Y-107770000I262500J0D01*
G01*
X146947500Y-107770000D01*
G75*
G02*
X147210000Y-108032500I0J-262500D01*
G01*
X147210000Y-108657500D01*
G75*
G02*
X146947500Y-108920000I-262500J0D01*
G01*
G37*
G36*
G01*
X146947500Y-110670000D02*
X146422500Y-110670000D01*
G75*
G02*
X146160000Y-110407500I0J262500D01*
G01*
X146160000Y-109782500D01*
G75*
G02*
X146422500Y-109520000I262500J0D01*
G01*
X146947500Y-109520000D01*
G75*
G02*
X147210000Y-109782500I0J-262500D01*
G01*
X147210000Y-110407500D01*
G75*
G02*
X146947500Y-110670000I-262500J0D01*
G01*
G37*
G36*
G01*
X182507500Y-108920000D02*
X181982500Y-108920000D01*
G75*
G02*
X181720000Y-108657500I0J262500D01*
G01*
X181720000Y-108032500D01*
G75*
G02*
X181982500Y-107770000I262500J0D01*
G01*
X182507500Y-107770000D01*
G75*
G02*
X182770000Y-108032500I0J-262500D01*
G01*
X182770000Y-108657500D01*
G75*
G02*
X182507500Y-108920000I-262500J0D01*
G01*
G37*
G36*
G01*
X182507500Y-110670000D02*
X181982500Y-110670000D01*
G75*
G02*
X181720000Y-110407500I0J262500D01*
G01*
X181720000Y-109782500D01*
G75*
G02*
X181982500Y-109520000I262500J0D01*
G01*
X182507500Y-109520000D01*
G75*
G02*
X182770000Y-109782500I0J-262500D01*
G01*
X182770000Y-110407500D01*
G75*
G02*
X182507500Y-110670000I-262500J0D01*
G01*
G37*
G36*
G01*
X179967500Y-108920000D02*
X179442500Y-108920000D01*
G75*
G02*
X179180000Y-108657500I0J262500D01*
G01*
X179180000Y-108032500D01*
G75*
G02*
X179442500Y-107770000I262500J0D01*
G01*
X179967500Y-107770000D01*
G75*
G02*
X180230000Y-108032500I0J-262500D01*
G01*
X180230000Y-108657500D01*
G75*
G02*
X179967500Y-108920000I-262500J0D01*
G01*
G37*
G36*
G01*
X179967500Y-110670000D02*
X179442500Y-110670000D01*
G75*
G02*
X179180000Y-110407500I0J262500D01*
G01*
X179180000Y-109782500D01*
G75*
G02*
X179442500Y-109520000I262500J0D01*
G01*
X179967500Y-109520000D01*
G75*
G02*
X180230000Y-109782500I0J-262500D01*
G01*
X180230000Y-110407500D01*
G75*
G02*
X179967500Y-110670000I-262500J0D01*
G01*
G37*
G36*
G01*
X177427500Y-108920000D02*
X176902500Y-108920000D01*
G75*
G02*
X176640000Y-108657500I0J262500D01*
G01*
X176640000Y-108032500D01*
G75*
G02*
X176902500Y-107770000I262500J0D01*
G01*
X177427500Y-107770000D01*
G75*
G02*
X177690000Y-108032500I0J-262500D01*
G01*
X177690000Y-108657500D01*
G75*
G02*
X177427500Y-108920000I-262500J0D01*
G01*
G37*
G36*
G01*
X177427500Y-110670000D02*
X176902500Y-110670000D01*
G75*
G02*
X176640000Y-110407500I0J262500D01*
G01*
X176640000Y-109782500D01*
G75*
G02*
X176902500Y-109520000I262500J0D01*
G01*
X177427500Y-109520000D01*
G75*
G02*
X177690000Y-109782500I0J-262500D01*
G01*
X177690000Y-110407500D01*
G75*
G02*
X177427500Y-110670000I-262500J0D01*
G01*
G37*
G36*
G01*
X174887500Y-108920000D02*
X174362500Y-108920000D01*
G75*
G02*
X174100000Y-108657500I0J262500D01*
G01*
X174100000Y-108032500D01*
G75*
G02*
X174362500Y-107770000I262500J0D01*
G01*
X174887500Y-107770000D01*
G75*
G02*
X175150000Y-108032500I0J-262500D01*
G01*
X175150000Y-108657500D01*
G75*
G02*
X174887500Y-108920000I-262500J0D01*
G01*
G37*
G36*
G01*
X174887500Y-110670000D02*
X174362500Y-110670000D01*
G75*
G02*
X174100000Y-110407500I0J262500D01*
G01*
X174100000Y-109782500D01*
G75*
G02*
X174362500Y-109520000I262500J0D01*
G01*
X174887500Y-109520000D01*
G75*
G02*
X175150000Y-109782500I0J-262500D01*
G01*
X175150000Y-110407500D01*
G75*
G02*
X174887500Y-110670000I-262500J0D01*
G01*
G37*
G36*
G01*
X172347500Y-108920000D02*
X171822500Y-108920000D01*
G75*
G02*
X171560000Y-108657500I0J262500D01*
G01*
X171560000Y-108032500D01*
G75*
G02*
X171822500Y-107770000I262500J0D01*
G01*
X172347500Y-107770000D01*
G75*
G02*
X172610000Y-108032500I0J-262500D01*
G01*
X172610000Y-108657500D01*
G75*
G02*
X172347500Y-108920000I-262500J0D01*
G01*
G37*
G36*
G01*
X172347500Y-110670000D02*
X171822500Y-110670000D01*
G75*
G02*
X171560000Y-110407500I0J262500D01*
G01*
X171560000Y-109782500D01*
G75*
G02*
X171822500Y-109520000I262500J0D01*
G01*
X172347500Y-109520000D01*
G75*
G02*
X172610000Y-109782500I0J-262500D01*
G01*
X172610000Y-110407500D01*
G75*
G02*
X172347500Y-110670000I-262500J0D01*
G01*
G37*
G36*
G01*
X169807500Y-108920000D02*
X169282500Y-108920000D01*
G75*
G02*
X169020000Y-108657500I0J262500D01*
G01*
X169020000Y-108032500D01*
G75*
G02*
X169282500Y-107770000I262500J0D01*
G01*
X169807500Y-107770000D01*
G75*
G02*
X170070000Y-108032500I0J-262500D01*
G01*
X170070000Y-108657500D01*
G75*
G02*
X169807500Y-108920000I-262500J0D01*
G01*
G37*
G36*
G01*
X169807500Y-110670000D02*
X169282500Y-110670000D01*
G75*
G02*
X169020000Y-110407500I0J262500D01*
G01*
X169020000Y-109782500D01*
G75*
G02*
X169282500Y-109520000I262500J0D01*
G01*
X169807500Y-109520000D01*
G75*
G02*
X170070000Y-109782500I0J-262500D01*
G01*
X170070000Y-110407500D01*
G75*
G02*
X169807500Y-110670000I-262500J0D01*
G01*
G37*
G36*
G01*
X143882500Y-109520000D02*
X144407500Y-109520000D01*
G75*
G02*
X144670000Y-109782500I0J-262500D01*
G01*
X144670000Y-110407500D01*
G75*
G02*
X144407500Y-110670000I-262500J0D01*
G01*
X143882500Y-110670000D01*
G75*
G02*
X143620000Y-110407500I0J262500D01*
G01*
X143620000Y-109782500D01*
G75*
G02*
X143882500Y-109520000I262500J0D01*
G01*
G37*
G36*
G01*
X143882500Y-107770000D02*
X144407500Y-107770000D01*
G75*
G02*
X144670000Y-108032500I0J-262500D01*
G01*
X144670000Y-108657500D01*
G75*
G02*
X144407500Y-108920000I-262500J0D01*
G01*
X143882500Y-108920000D01*
G75*
G02*
X143620000Y-108657500I0J262500D01*
G01*
X143620000Y-108032500D01*
G75*
G02*
X143882500Y-107770000I262500J0D01*
G01*
G37*
G36*
G01*
X166742500Y-109520000D02*
X167267500Y-109520000D01*
G75*
G02*
X167530000Y-109782500I0J-262500D01*
G01*
X167530000Y-110407500D01*
G75*
G02*
X167267500Y-110670000I-262500J0D01*
G01*
X166742500Y-110670000D01*
G75*
G02*
X166480000Y-110407500I0J262500D01*
G01*
X166480000Y-109782500D01*
G75*
G02*
X166742500Y-109520000I262500J0D01*
G01*
G37*
G36*
G01*
X166742500Y-107770000D02*
X167267500Y-107770000D01*
G75*
G02*
X167530000Y-108032500I0J-262500D01*
G01*
X167530000Y-108657500D01*
G75*
G02*
X167267500Y-108920000I-262500J0D01*
G01*
X166742500Y-108920000D01*
G75*
G02*
X166480000Y-108657500I0J262500D01*
G01*
X166480000Y-108032500D01*
G75*
G02*
X166742500Y-107770000I262500J0D01*
G01*
G37*
G36*
G01*
X122855000Y-108847500D02*
X122855000Y-108322500D01*
G75*
G02*
X123117500Y-108060000I262500J0D01*
G01*
X123742500Y-108060000D01*
G75*
G02*
X124005000Y-108322500I0J-262500D01*
G01*
X124005000Y-108847500D01*
G75*
G02*
X123742500Y-109110000I-262500J0D01*
G01*
X123117500Y-109110000D01*
G75*
G02*
X122855000Y-108847500I0J262500D01*
G01*
G37*
G36*
G01*
X121105000Y-108847500D02*
X121105000Y-108322500D01*
G75*
G02*
X121367500Y-108060000I262500J0D01*
G01*
X121992500Y-108060000D01*
G75*
G02*
X122255000Y-108322500I0J-262500D01*
G01*
X122255000Y-108847500D01*
G75*
G02*
X121992500Y-109110000I-262500J0D01*
G01*
X121367500Y-109110000D01*
G75*
G02*
X121105000Y-108847500I0J262500D01*
G01*
G37*
G36*
G01*
X126065000Y-108322500D02*
X126065000Y-108847500D01*
G75*
G02*
X125802500Y-109110000I-262500J0D01*
G01*
X125177500Y-109110000D01*
G75*
G02*
X124915000Y-108847500I0J262500D01*
G01*
X124915000Y-108322500D01*
G75*
G02*
X125177500Y-108060000I262500J0D01*
G01*
X125802500Y-108060000D01*
G75*
G02*
X126065000Y-108322500I0J-262500D01*
G01*
G37*
G36*
G01*
X127815000Y-108322500D02*
X127815000Y-108847500D01*
G75*
G02*
X127552500Y-109110000I-262500J0D01*
G01*
X126927500Y-109110000D01*
G75*
G02*
X126665000Y-108847500I0J262500D01*
G01*
X126665000Y-108322500D01*
G75*
G02*
X126927500Y-108060000I262500J0D01*
G01*
X127552500Y-108060000D01*
G75*
G02*
X127815000Y-108322500I0J-262500D01*
G01*
G37*
D14*
X105410000Y-128905000D03*
X102870000Y-128905000D03*
X105410000Y-131445000D03*
X102870000Y-131445000D03*
X105410000Y-133985000D03*
X102870000Y-133985000D03*
X105410000Y-136525000D03*
D15*
X102870000Y-136525000D03*
D12*
X129620000Y-135890000D03*
X132120000Y-135890000D03*
G36*
G01*
X135520000Y-135129706D02*
X135520000Y-136650294D01*
G75*
G02*
X135255294Y-136915000I-264706J0D01*
G01*
X133984706Y-136915000D01*
G75*
G02*
X133720000Y-136650294I0J264706D01*
G01*
X133720000Y-135129706D01*
G75*
G02*
X133984706Y-134865000I264706J0D01*
G01*
X135255294Y-134865000D01*
G75*
G02*
X135520000Y-135129706I0J-264706D01*
G01*
G37*
X144385000Y-104140000D03*
X146885000Y-104140000D03*
X149385000Y-104140000D03*
X151885000Y-104140000D03*
X154385000Y-104140000D03*
X156885000Y-104140000D03*
G36*
G01*
X160285000Y-103379706D02*
X160285000Y-104900294D01*
G75*
G02*
X160020294Y-105165000I-264706J0D01*
G01*
X158749706Y-105165000D01*
G75*
G02*
X158485000Y-104900294I0J264706D01*
G01*
X158485000Y-103379706D01*
G75*
G02*
X158749706Y-103115000I264706J0D01*
G01*
X160020294Y-103115000D01*
G75*
G02*
X160285000Y-103379706I0J-264706D01*
G01*
G37*
X167045000Y-104140000D03*
X169545000Y-104140000D03*
X172045000Y-104140000D03*
X174545000Y-104140000D03*
X177045000Y-104140000D03*
X179545000Y-104140000D03*
G36*
G01*
X182945000Y-103379706D02*
X182945000Y-104900294D01*
G75*
G02*
X182680294Y-105165000I-264706J0D01*
G01*
X181409706Y-105165000D01*
G75*
G02*
X181145000Y-104900294I0J264706D01*
G01*
X181145000Y-103379706D01*
G75*
G02*
X181409706Y-103115000I264706J0D01*
G01*
X182680294Y-103115000D01*
G75*
G02*
X182945000Y-103379706I0J-264706D01*
G01*
G37*
X132160000Y-104140000D03*
X134660000Y-104140000D03*
G36*
G01*
X138060000Y-103379706D02*
X138060000Y-104900294D01*
G75*
G02*
X137795294Y-105165000I-264706J0D01*
G01*
X136524706Y-105165000D01*
G75*
G02*
X136260000Y-104900294I0J264706D01*
G01*
X136260000Y-103379706D01*
G75*
G02*
X136524706Y-103115000I264706J0D01*
G01*
X137795294Y-103115000D01*
G75*
G02*
X138060000Y-103379706I0J-264706D01*
G01*
G37*
X120095000Y-104140000D03*
X122595000Y-104140000D03*
G36*
G01*
X125995000Y-103379706D02*
X125995000Y-104900294D01*
G75*
G02*
X125730294Y-105165000I-264706J0D01*
G01*
X124459706Y-105165000D01*
G75*
G02*
X124195000Y-104900294I0J264706D01*
G01*
X124195000Y-103379706D01*
G75*
G02*
X124459706Y-103115000I264706J0D01*
G01*
X125730294Y-103115000D01*
G75*
G02*
X125995000Y-103379706I0J-264706D01*
G01*
G37*
D16*
X152905000Y-137160000D03*
X155705000Y-137160000D03*
X155705000Y-133985000D03*
X152905000Y-133985000D03*
X170945000Y-137160000D03*
X168145000Y-137160000D03*
X168145000Y-133985000D03*
X170945000Y-133985000D03*
G36*
G01*
X113330000Y-129802500D02*
X113330000Y-129277500D01*
G75*
G02*
X113592500Y-129015000I262500J0D01*
G01*
X114217500Y-129015000D01*
G75*
G02*
X114480000Y-129277500I0J-262500D01*
G01*
X114480000Y-129802500D01*
G75*
G02*
X114217500Y-130065000I-262500J0D01*
G01*
X113592500Y-130065000D01*
G75*
G02*
X113330000Y-129802500I0J262500D01*
G01*
G37*
G36*
G01*
X111580000Y-129802500D02*
X111580000Y-129277500D01*
G75*
G02*
X111842500Y-129015000I262500J0D01*
G01*
X112467500Y-129015000D01*
G75*
G02*
X112730000Y-129277500I0J-262500D01*
G01*
X112730000Y-129802500D01*
G75*
G02*
X112467500Y-130065000I-262500J0D01*
G01*
X111842500Y-130065000D01*
G75*
G02*
X111580000Y-129802500I0J262500D01*
G01*
G37*
G36*
G01*
X115235000Y-115197500D02*
X115235000Y-114672500D01*
G75*
G02*
X115497500Y-114410000I262500J0D01*
G01*
X116122500Y-114410000D01*
G75*
G02*
X116385000Y-114672500I0J-262500D01*
G01*
X116385000Y-115197500D01*
G75*
G02*
X116122500Y-115460000I-262500J0D01*
G01*
X115497500Y-115460000D01*
G75*
G02*
X115235000Y-115197500I0J262500D01*
G01*
G37*
G36*
G01*
X113485000Y-115197500D02*
X113485000Y-114672500D01*
G75*
G02*
X113747500Y-114410000I262500J0D01*
G01*
X114372500Y-114410000D01*
G75*
G02*
X114635000Y-114672500I0J-262500D01*
G01*
X114635000Y-115197500D01*
G75*
G02*
X114372500Y-115460000I-262500J0D01*
G01*
X113747500Y-115460000D01*
G75*
G02*
X113485000Y-115197500I0J262500D01*
G01*
G37*
G36*
G01*
X111425000Y-115197500D02*
X111425000Y-114672500D01*
G75*
G02*
X111687500Y-114410000I262500J0D01*
G01*
X112312500Y-114410000D01*
G75*
G02*
X112575000Y-114672500I0J-262500D01*
G01*
X112575000Y-115197500D01*
G75*
G02*
X112312500Y-115460000I-262500J0D01*
G01*
X111687500Y-115460000D01*
G75*
G02*
X111425000Y-115197500I0J262500D01*
G01*
G37*
G36*
G01*
X109675000Y-115197500D02*
X109675000Y-114672500D01*
G75*
G02*
X109937500Y-114410000I262500J0D01*
G01*
X110562500Y-114410000D01*
G75*
G02*
X110825000Y-114672500I0J-262500D01*
G01*
X110825000Y-115197500D01*
G75*
G02*
X110562500Y-115460000I-262500J0D01*
G01*
X109937500Y-115460000D01*
G75*
G02*
X109675000Y-115197500I0J262500D01*
G01*
G37*
G36*
G01*
X109752500Y-121620000D02*
X109227500Y-121620000D01*
G75*
G02*
X108965000Y-121357500I0J262500D01*
G01*
X108965000Y-120732500D01*
G75*
G02*
X109227500Y-120470000I262500J0D01*
G01*
X109752500Y-120470000D01*
G75*
G02*
X110015000Y-120732500I0J-262500D01*
G01*
X110015000Y-121357500D01*
G75*
G02*
X109752500Y-121620000I-262500J0D01*
G01*
G37*
G36*
G01*
X109752500Y-123370000D02*
X109227500Y-123370000D01*
G75*
G02*
X108965000Y-123107500I0J262500D01*
G01*
X108965000Y-122482500D01*
G75*
G02*
X109227500Y-122220000I262500J0D01*
G01*
X109752500Y-122220000D01*
G75*
G02*
X110015000Y-122482500I0J-262500D01*
G01*
X110015000Y-123107500D01*
G75*
G02*
X109752500Y-123370000I-262500J0D01*
G01*
G37*
G36*
G01*
X118372500Y-125430000D02*
X117847500Y-125430000D01*
G75*
G02*
X117585000Y-125167500I0J262500D01*
G01*
X117585000Y-124542500D01*
G75*
G02*
X117847500Y-124280000I262500J0D01*
G01*
X118372500Y-124280000D01*
G75*
G02*
X118635000Y-124542500I0J-262500D01*
G01*
X118635000Y-125167500D01*
G75*
G02*
X118372500Y-125430000I-262500J0D01*
G01*
G37*
G36*
G01*
X118372500Y-127180000D02*
X117847500Y-127180000D01*
G75*
G02*
X117585000Y-126917500I0J262500D01*
G01*
X117585000Y-126292500D01*
G75*
G02*
X117847500Y-126030000I262500J0D01*
G01*
X118372500Y-126030000D01*
G75*
G02*
X118635000Y-126292500I0J-262500D01*
G01*
X118635000Y-126917500D01*
G75*
G02*
X118372500Y-127180000I-262500J0D01*
G01*
G37*
G36*
G01*
X164130000Y-123452500D02*
X164130000Y-122927500D01*
G75*
G02*
X164392500Y-122665000I262500J0D01*
G01*
X165017500Y-122665000D01*
G75*
G02*
X165280000Y-122927500I0J-262500D01*
G01*
X165280000Y-123452500D01*
G75*
G02*
X165017500Y-123715000I-262500J0D01*
G01*
X164392500Y-123715000D01*
G75*
G02*
X164130000Y-123452500I0J262500D01*
G01*
G37*
G36*
G01*
X162380000Y-123452500D02*
X162380000Y-122927500D01*
G75*
G02*
X162642500Y-122665000I262500J0D01*
G01*
X163267500Y-122665000D01*
G75*
G02*
X163530000Y-122927500I0J-262500D01*
G01*
X163530000Y-123452500D01*
G75*
G02*
X163267500Y-123715000I-262500J0D01*
G01*
X162642500Y-123715000D01*
G75*
G02*
X162380000Y-123452500I0J262500D01*
G01*
G37*
G36*
G01*
X160320000Y-132342500D02*
X160320000Y-131817500D01*
G75*
G02*
X160582500Y-131555000I262500J0D01*
G01*
X161207500Y-131555000D01*
G75*
G02*
X161470000Y-131817500I0J-262500D01*
G01*
X161470000Y-132342500D01*
G75*
G02*
X161207500Y-132605000I-262500J0D01*
G01*
X160582500Y-132605000D01*
G75*
G02*
X160320000Y-132342500I0J262500D01*
G01*
G37*
G36*
G01*
X158570000Y-132342500D02*
X158570000Y-131817500D01*
G75*
G02*
X158832500Y-131555000I262500J0D01*
G01*
X159457500Y-131555000D01*
G75*
G02*
X159720000Y-131817500I0J-262500D01*
G01*
X159720000Y-132342500D01*
G75*
G02*
X159457500Y-132605000I-262500J0D01*
G01*
X158832500Y-132605000D01*
G75*
G02*
X158570000Y-132342500I0J262500D01*
G01*
G37*
G36*
G01*
X131745000Y-112022500D02*
X131745000Y-111497500D01*
G75*
G02*
X132007500Y-111235000I262500J0D01*
G01*
X132632500Y-111235000D01*
G75*
G02*
X132895000Y-111497500I0J-262500D01*
G01*
X132895000Y-112022500D01*
G75*
G02*
X132632500Y-112285000I-262500J0D01*
G01*
X132007500Y-112285000D01*
G75*
G02*
X131745000Y-112022500I0J262500D01*
G01*
G37*
G36*
G01*
X129995000Y-112022500D02*
X129995000Y-111497500D01*
G75*
G02*
X130257500Y-111235000I262500J0D01*
G01*
X130882500Y-111235000D01*
G75*
G02*
X131145000Y-111497500I0J-262500D01*
G01*
X131145000Y-112022500D01*
G75*
G02*
X130882500Y-112285000I-262500J0D01*
G01*
X130257500Y-112285000D01*
G75*
G02*
X129995000Y-112022500I0J262500D01*
G01*
G37*
G36*
G01*
X127935000Y-120912500D02*
X127935000Y-120387500D01*
G75*
G02*
X128197500Y-120125000I262500J0D01*
G01*
X128822500Y-120125000D01*
G75*
G02*
X129085000Y-120387500I0J-262500D01*
G01*
X129085000Y-120912500D01*
G75*
G02*
X128822500Y-121175000I-262500J0D01*
G01*
X128197500Y-121175000D01*
G75*
G02*
X127935000Y-120912500I0J262500D01*
G01*
G37*
G36*
G01*
X126185000Y-120912500D02*
X126185000Y-120387500D01*
G75*
G02*
X126447500Y-120125000I262500J0D01*
G01*
X127072500Y-120125000D01*
G75*
G02*
X127335000Y-120387500I0J-262500D01*
G01*
X127335000Y-120912500D01*
G75*
G02*
X127072500Y-121175000I-262500J0D01*
G01*
X126447500Y-121175000D01*
G75*
G02*
X126185000Y-120912500I0J262500D01*
G01*
G37*
G36*
G01*
X112695000Y-111387500D02*
X112695000Y-110862500D01*
G75*
G02*
X112957500Y-110600000I262500J0D01*
G01*
X113582500Y-110600000D01*
G75*
G02*
X113845000Y-110862500I0J-262500D01*
G01*
X113845000Y-111387500D01*
G75*
G02*
X113582500Y-111650000I-262500J0D01*
G01*
X112957500Y-111650000D01*
G75*
G02*
X112695000Y-111387500I0J262500D01*
G01*
G37*
G36*
G01*
X110945000Y-111387500D02*
X110945000Y-110862500D01*
G75*
G02*
X111207500Y-110600000I262500J0D01*
G01*
X111832500Y-110600000D01*
G75*
G02*
X112095000Y-110862500I0J-262500D01*
G01*
X112095000Y-111387500D01*
G75*
G02*
X111832500Y-111650000I-262500J0D01*
G01*
X111207500Y-111650000D01*
G75*
G02*
X110945000Y-111387500I0J262500D01*
G01*
G37*
D17*
X113500000Y-106045000D03*
D18*
X111000000Y-106045000D03*
G36*
G01*
X142970000Y-136262500D02*
X142970000Y-136787500D01*
G75*
G02*
X142707500Y-137050000I-262500J0D01*
G01*
X142082500Y-137050000D01*
G75*
G02*
X141820000Y-136787500I0J262500D01*
G01*
X141820000Y-136262500D01*
G75*
G02*
X142082500Y-136000000I262500J0D01*
G01*
X142707500Y-136000000D01*
G75*
G02*
X142970000Y-136262500I0J-262500D01*
G01*
G37*
G36*
G01*
X144720000Y-136262500D02*
X144720000Y-136787500D01*
G75*
G02*
X144457500Y-137050000I-262500J0D01*
G01*
X143832500Y-137050000D01*
G75*
G02*
X143570000Y-136787500I0J262500D01*
G01*
X143570000Y-136262500D01*
G75*
G02*
X143832500Y-136000000I262500J0D01*
G01*
X144457500Y-136000000D01*
G75*
G02*
X144720000Y-136262500I0J-262500D01*
G01*
G37*
G36*
G01*
X142970000Y-122292500D02*
X142970000Y-122817500D01*
G75*
G02*
X142707500Y-123080000I-262500J0D01*
G01*
X142082500Y-123080000D01*
G75*
G02*
X141820000Y-122817500I0J262500D01*
G01*
X141820000Y-122292500D01*
G75*
G02*
X142082500Y-122030000I262500J0D01*
G01*
X142707500Y-122030000D01*
G75*
G02*
X142970000Y-122292500I0J-262500D01*
G01*
G37*
G36*
G01*
X144720000Y-122292500D02*
X144720000Y-122817500D01*
G75*
G02*
X144457500Y-123080000I-262500J0D01*
G01*
X143832500Y-123080000D01*
G75*
G02*
X143570000Y-122817500I0J262500D01*
G01*
X143570000Y-122292500D01*
G75*
G02*
X143832500Y-122030000I262500J0D01*
G01*
X144457500Y-122030000D01*
G75*
G02*
X144720000Y-122292500I0J-262500D01*
G01*
G37*
G36*
G01*
X127335000Y-111497500D02*
X127335000Y-112022500D01*
G75*
G02*
X127072500Y-112285000I-262500J0D01*
G01*
X126447500Y-112285000D01*
G75*
G02*
X126185000Y-112022500I0J262500D01*
G01*
X126185000Y-111497500D01*
G75*
G02*
X126447500Y-111235000I262500J0D01*
G01*
X127072500Y-111235000D01*
G75*
G02*
X127335000Y-111497500I0J-262500D01*
G01*
G37*
G36*
G01*
X129085000Y-111497500D02*
X129085000Y-112022500D01*
G75*
G02*
X128822500Y-112285000I-262500J0D01*
G01*
X128197500Y-112285000D01*
G75*
G02*
X127935000Y-112022500I0J262500D01*
G01*
X127935000Y-111497500D01*
G75*
G02*
X128197500Y-111235000I262500J0D01*
G01*
X128822500Y-111235000D01*
G75*
G02*
X129085000Y-111497500I0J-262500D01*
G01*
G37*
G36*
G01*
X131745000Y-120912500D02*
X131745000Y-120387500D01*
G75*
G02*
X132007500Y-120125000I262500J0D01*
G01*
X132632500Y-120125000D01*
G75*
G02*
X132895000Y-120387500I0J-262500D01*
G01*
X132895000Y-120912500D01*
G75*
G02*
X132632500Y-121175000I-262500J0D01*
G01*
X132007500Y-121175000D01*
G75*
G02*
X131745000Y-120912500I0J262500D01*
G01*
G37*
G36*
G01*
X129995000Y-120912500D02*
X129995000Y-120387500D01*
G75*
G02*
X130257500Y-120125000I262500J0D01*
G01*
X130882500Y-120125000D01*
G75*
G02*
X131145000Y-120387500I0J-262500D01*
G01*
X131145000Y-120912500D01*
G75*
G02*
X130882500Y-121175000I-262500J0D01*
G01*
X130257500Y-121175000D01*
G75*
G02*
X129995000Y-120912500I0J262500D01*
G01*
G37*
G36*
G01*
X177895000Y-135737500D02*
X177895000Y-136262500D01*
G75*
G02*
X177632500Y-136525000I-262500J0D01*
G01*
X177007500Y-136525000D01*
G75*
G02*
X176745000Y-136262500I0J262500D01*
G01*
X176745000Y-135737500D01*
G75*
G02*
X177007500Y-135475000I262500J0D01*
G01*
X177632500Y-135475000D01*
G75*
G02*
X177895000Y-135737500I0J-262500D01*
G01*
G37*
G36*
G01*
X179645000Y-135737500D02*
X179645000Y-136262500D01*
G75*
G02*
X179382500Y-136525000I-262500J0D01*
G01*
X178757500Y-136525000D01*
G75*
G02*
X178495000Y-136262500I0J262500D01*
G01*
X178495000Y-135737500D01*
G75*
G02*
X178757500Y-135475000I262500J0D01*
G01*
X179382500Y-135475000D01*
G75*
G02*
X179645000Y-135737500I0J-262500D01*
G01*
G37*
G36*
G01*
X177895000Y-121657500D02*
X177895000Y-122182500D01*
G75*
G02*
X177632500Y-122445000I-262500J0D01*
G01*
X177007500Y-122445000D01*
G75*
G02*
X176745000Y-122182500I0J262500D01*
G01*
X176745000Y-121657500D01*
G75*
G02*
X177007500Y-121395000I262500J0D01*
G01*
X177632500Y-121395000D01*
G75*
G02*
X177895000Y-121657500I0J-262500D01*
G01*
G37*
G36*
G01*
X179645000Y-121657500D02*
X179645000Y-122182500D01*
G75*
G02*
X179382500Y-122445000I-262500J0D01*
G01*
X178757500Y-122445000D01*
G75*
G02*
X178495000Y-122182500I0J262500D01*
G01*
X178495000Y-121657500D01*
G75*
G02*
X178757500Y-121395000I262500J0D01*
G01*
X179382500Y-121395000D01*
G75*
G02*
X179645000Y-121657500I0J-262500D01*
G01*
G37*
D19*
X132080000Y-137795000D03*
X132143500Y-129222500D03*
X127127000Y-129222500D03*
X119570500Y-124841000D03*
X115443000Y-129603500D03*
X108077000Y-122809000D03*
X115570000Y-122999500D03*
X129032000Y-118999000D03*
X132334000Y-122110500D03*
X126746000Y-110363000D03*
X123444000Y-110045500D03*
X122555000Y-106045000D03*
X128587500Y-104330500D03*
X134683500Y-105981500D03*
X130619500Y-110363000D03*
X142367000Y-135064500D03*
X154305000Y-135509000D03*
X145986500Y-123634500D03*
X142367000Y-121094500D03*
X147955000Y-106299000D03*
X150495000Y-106299000D03*
X153035000Y-106299000D03*
X155575000Y-106299000D03*
X158115000Y-106362500D03*
X147955000Y-116459000D03*
X153035000Y-116459000D03*
X150495000Y-116459000D03*
X155575000Y-116459000D03*
X159385000Y-117919500D03*
X170815000Y-106172000D03*
X173355000Y-106172000D03*
X175895000Y-106172000D03*
X178435000Y-106172000D03*
X180975000Y-106172000D03*
X170815000Y-116459000D03*
X173355000Y-116459000D03*
X175895000Y-116459000D03*
X178435000Y-116459000D03*
X180975000Y-116459000D03*
X177355500Y-120459500D03*
X160782000Y-133540500D03*
X163385500Y-133540500D03*
X162941000Y-121729500D03*
X175831500Y-135953500D03*
X165100000Y-138684000D03*
X105981500Y-119126000D03*
X101000000Y-110000000D03*
X110000000Y-138500000D03*
X120000000Y-138500000D03*
X130000000Y-138500000D03*
X180000000Y-138500000D03*
X184500000Y-130000000D03*
X184500000Y-120000000D03*
X184500000Y-110000000D03*
X110000000Y-101500000D03*
X120000000Y-101500000D03*
X140000000Y-101500000D03*
X150000000Y-101500000D03*
X160000000Y-101500000D03*
X170000000Y-101500000D03*
X180000000Y-101500000D03*
X152654000Y-125730000D03*
X141478000Y-111760000D03*
X125222000Y-119634000D03*
X146812000Y-120396000D03*
X169672000Y-120904000D03*
X173228000Y-129032000D03*
X150876000Y-128524000D03*
X116332000Y-107696000D03*
X116332000Y-104648000D03*
X107950000Y-112522000D03*
X107950000Y-109728000D03*
X110744000Y-119380000D03*
X115062000Y-119380000D03*
X130556000Y-114300000D03*
X166116000Y-123190000D03*
X134112000Y-123952000D03*
X157226000Y-129540000D03*
X164846000Y-110236000D03*
X128778000Y-116840000D03*
X137414000Y-110236000D03*
M02*
