G04 #@! TF.GenerationSoftware,KiCad,Pcbnew,(5.1.6)-1*
G04 #@! TF.CreationDate,2020-12-27T23:26:00+09:00*
G04 #@! TF.ProjectId,VUMeterAmp,56554d65-7465-4724-916d-702e6b696361,rev?*
G04 #@! TF.SameCoordinates,Original*
G04 #@! TF.FileFunction,Paste,Top*
G04 #@! TF.FilePolarity,Positive*
%FSLAX46Y46*%
G04 Gerber Fmt 4.6, Leading zero omitted, Abs format (unit mm)*
G04 Created by KiCad (PCBNEW (5.1.6)-1) date 2020-12-27 23:26:00*
%MOMM*%
%LPD*%
G01*
G04 APERTURE LIST*
%ADD10R,1.100000X1.100000*%
G04 APERTURE END LIST*
G36*
G01*
X115420000Y-125525000D02*
X115720000Y-125525000D01*
G75*
G02*
X115870000Y-125675000I0J-150000D01*
G01*
X115870000Y-127125000D01*
G75*
G02*
X115720000Y-127275000I-150000J0D01*
G01*
X115420000Y-127275000D01*
G75*
G02*
X115270000Y-127125000I0J150000D01*
G01*
X115270000Y-125675000D01*
G75*
G02*
X115420000Y-125525000I150000J0D01*
G01*
G37*
G36*
G01*
X114150000Y-125525000D02*
X114450000Y-125525000D01*
G75*
G02*
X114600000Y-125675000I0J-150000D01*
G01*
X114600000Y-127125000D01*
G75*
G02*
X114450000Y-127275000I-150000J0D01*
G01*
X114150000Y-127275000D01*
G75*
G02*
X114000000Y-127125000I0J150000D01*
G01*
X114000000Y-125675000D01*
G75*
G02*
X114150000Y-125525000I150000J0D01*
G01*
G37*
G36*
G01*
X112880000Y-125525000D02*
X113180000Y-125525000D01*
G75*
G02*
X113330000Y-125675000I0J-150000D01*
G01*
X113330000Y-127125000D01*
G75*
G02*
X113180000Y-127275000I-150000J0D01*
G01*
X112880000Y-127275000D01*
G75*
G02*
X112730000Y-127125000I0J150000D01*
G01*
X112730000Y-125675000D01*
G75*
G02*
X112880000Y-125525000I150000J0D01*
G01*
G37*
G36*
G01*
X111610000Y-125525000D02*
X111910000Y-125525000D01*
G75*
G02*
X112060000Y-125675000I0J-150000D01*
G01*
X112060000Y-127125000D01*
G75*
G02*
X111910000Y-127275000I-150000J0D01*
G01*
X111610000Y-127275000D01*
G75*
G02*
X111460000Y-127125000I0J150000D01*
G01*
X111460000Y-125675000D01*
G75*
G02*
X111610000Y-125525000I150000J0D01*
G01*
G37*
G36*
G01*
X111610000Y-120375000D02*
X111910000Y-120375000D01*
G75*
G02*
X112060000Y-120525000I0J-150000D01*
G01*
X112060000Y-121975000D01*
G75*
G02*
X111910000Y-122125000I-150000J0D01*
G01*
X111610000Y-122125000D01*
G75*
G02*
X111460000Y-121975000I0J150000D01*
G01*
X111460000Y-120525000D01*
G75*
G02*
X111610000Y-120375000I150000J0D01*
G01*
G37*
G36*
G01*
X112880000Y-120375000D02*
X113180000Y-120375000D01*
G75*
G02*
X113330000Y-120525000I0J-150000D01*
G01*
X113330000Y-121975000D01*
G75*
G02*
X113180000Y-122125000I-150000J0D01*
G01*
X112880000Y-122125000D01*
G75*
G02*
X112730000Y-121975000I0J150000D01*
G01*
X112730000Y-120525000D01*
G75*
G02*
X112880000Y-120375000I150000J0D01*
G01*
G37*
G36*
G01*
X114150000Y-120375000D02*
X114450000Y-120375000D01*
G75*
G02*
X114600000Y-120525000I0J-150000D01*
G01*
X114600000Y-121975000D01*
G75*
G02*
X114450000Y-122125000I-150000J0D01*
G01*
X114150000Y-122125000D01*
G75*
G02*
X114000000Y-121975000I0J150000D01*
G01*
X114000000Y-120525000D01*
G75*
G02*
X114150000Y-120375000I150000J0D01*
G01*
G37*
G36*
G01*
X115420000Y-120375000D02*
X115720000Y-120375000D01*
G75*
G02*
X115870000Y-120525000I0J-150000D01*
G01*
X115870000Y-121975000D01*
G75*
G02*
X115720000Y-122125000I-150000J0D01*
G01*
X115420000Y-122125000D01*
G75*
G02*
X115270000Y-121975000I0J150000D01*
G01*
X115270000Y-120525000D01*
G75*
G02*
X115420000Y-120375000I150000J0D01*
G01*
G37*
G36*
G01*
X160225000Y-129390000D02*
X160225000Y-129690000D01*
G75*
G02*
X160075000Y-129840000I-150000J0D01*
G01*
X158625000Y-129840000D01*
G75*
G02*
X158475000Y-129690000I0J150000D01*
G01*
X158475000Y-129390000D01*
G75*
G02*
X158625000Y-129240000I150000J0D01*
G01*
X160075000Y-129240000D01*
G75*
G02*
X160225000Y-129390000I0J-150000D01*
G01*
G37*
G36*
G01*
X160225000Y-128120000D02*
X160225000Y-128420000D01*
G75*
G02*
X160075000Y-128570000I-150000J0D01*
G01*
X158625000Y-128570000D01*
G75*
G02*
X158475000Y-128420000I0J150000D01*
G01*
X158475000Y-128120000D01*
G75*
G02*
X158625000Y-127970000I150000J0D01*
G01*
X160075000Y-127970000D01*
G75*
G02*
X160225000Y-128120000I0J-150000D01*
G01*
G37*
G36*
G01*
X160225000Y-126850000D02*
X160225000Y-127150000D01*
G75*
G02*
X160075000Y-127300000I-150000J0D01*
G01*
X158625000Y-127300000D01*
G75*
G02*
X158475000Y-127150000I0J150000D01*
G01*
X158475000Y-126850000D01*
G75*
G02*
X158625000Y-126700000I150000J0D01*
G01*
X160075000Y-126700000D01*
G75*
G02*
X160225000Y-126850000I0J-150000D01*
G01*
G37*
G36*
G01*
X160225000Y-125580000D02*
X160225000Y-125880000D01*
G75*
G02*
X160075000Y-126030000I-150000J0D01*
G01*
X158625000Y-126030000D01*
G75*
G02*
X158475000Y-125880000I0J150000D01*
G01*
X158475000Y-125580000D01*
G75*
G02*
X158625000Y-125430000I150000J0D01*
G01*
X160075000Y-125430000D01*
G75*
G02*
X160225000Y-125580000I0J-150000D01*
G01*
G37*
G36*
G01*
X165375000Y-125580000D02*
X165375000Y-125880000D01*
G75*
G02*
X165225000Y-126030000I-150000J0D01*
G01*
X163775000Y-126030000D01*
G75*
G02*
X163625000Y-125880000I0J150000D01*
G01*
X163625000Y-125580000D01*
G75*
G02*
X163775000Y-125430000I150000J0D01*
G01*
X165225000Y-125430000D01*
G75*
G02*
X165375000Y-125580000I0J-150000D01*
G01*
G37*
G36*
G01*
X165375000Y-126850000D02*
X165375000Y-127150000D01*
G75*
G02*
X165225000Y-127300000I-150000J0D01*
G01*
X163775000Y-127300000D01*
G75*
G02*
X163625000Y-127150000I0J150000D01*
G01*
X163625000Y-126850000D01*
G75*
G02*
X163775000Y-126700000I150000J0D01*
G01*
X165225000Y-126700000D01*
G75*
G02*
X165375000Y-126850000I0J-150000D01*
G01*
G37*
G36*
G01*
X165375000Y-128120000D02*
X165375000Y-128420000D01*
G75*
G02*
X165225000Y-128570000I-150000J0D01*
G01*
X163775000Y-128570000D01*
G75*
G02*
X163625000Y-128420000I0J150000D01*
G01*
X163625000Y-128120000D01*
G75*
G02*
X163775000Y-127970000I150000J0D01*
G01*
X165225000Y-127970000D01*
G75*
G02*
X165375000Y-128120000I0J-150000D01*
G01*
G37*
G36*
G01*
X165375000Y-129390000D02*
X165375000Y-129690000D01*
G75*
G02*
X165225000Y-129840000I-150000J0D01*
G01*
X163775000Y-129840000D01*
G75*
G02*
X163625000Y-129690000I0J150000D01*
G01*
X163625000Y-129390000D01*
G75*
G02*
X163775000Y-129240000I150000J0D01*
G01*
X165225000Y-129240000D01*
G75*
G02*
X165375000Y-129390000I0J-150000D01*
G01*
G37*
G36*
G01*
X127840000Y-117960000D02*
X127840000Y-118260000D01*
G75*
G02*
X127690000Y-118410000I-150000J0D01*
G01*
X126240000Y-118410000D01*
G75*
G02*
X126090000Y-118260000I0J150000D01*
G01*
X126090000Y-117960000D01*
G75*
G02*
X126240000Y-117810000I150000J0D01*
G01*
X127690000Y-117810000D01*
G75*
G02*
X127840000Y-117960000I0J-150000D01*
G01*
G37*
G36*
G01*
X127840000Y-116690000D02*
X127840000Y-116990000D01*
G75*
G02*
X127690000Y-117140000I-150000J0D01*
G01*
X126240000Y-117140000D01*
G75*
G02*
X126090000Y-116990000I0J150000D01*
G01*
X126090000Y-116690000D01*
G75*
G02*
X126240000Y-116540000I150000J0D01*
G01*
X127690000Y-116540000D01*
G75*
G02*
X127840000Y-116690000I0J-150000D01*
G01*
G37*
G36*
G01*
X127840000Y-115420000D02*
X127840000Y-115720000D01*
G75*
G02*
X127690000Y-115870000I-150000J0D01*
G01*
X126240000Y-115870000D01*
G75*
G02*
X126090000Y-115720000I0J150000D01*
G01*
X126090000Y-115420000D01*
G75*
G02*
X126240000Y-115270000I150000J0D01*
G01*
X127690000Y-115270000D01*
G75*
G02*
X127840000Y-115420000I0J-150000D01*
G01*
G37*
G36*
G01*
X127840000Y-114150000D02*
X127840000Y-114450000D01*
G75*
G02*
X127690000Y-114600000I-150000J0D01*
G01*
X126240000Y-114600000D01*
G75*
G02*
X126090000Y-114450000I0J150000D01*
G01*
X126090000Y-114150000D01*
G75*
G02*
X126240000Y-114000000I150000J0D01*
G01*
X127690000Y-114000000D01*
G75*
G02*
X127840000Y-114150000I0J-150000D01*
G01*
G37*
G36*
G01*
X132990000Y-114150000D02*
X132990000Y-114450000D01*
G75*
G02*
X132840000Y-114600000I-150000J0D01*
G01*
X131390000Y-114600000D01*
G75*
G02*
X131240000Y-114450000I0J150000D01*
G01*
X131240000Y-114150000D01*
G75*
G02*
X131390000Y-114000000I150000J0D01*
G01*
X132840000Y-114000000D01*
G75*
G02*
X132990000Y-114150000I0J-150000D01*
G01*
G37*
G36*
G01*
X132990000Y-115420000D02*
X132990000Y-115720000D01*
G75*
G02*
X132840000Y-115870000I-150000J0D01*
G01*
X131390000Y-115870000D01*
G75*
G02*
X131240000Y-115720000I0J150000D01*
G01*
X131240000Y-115420000D01*
G75*
G02*
X131390000Y-115270000I150000J0D01*
G01*
X132840000Y-115270000D01*
G75*
G02*
X132990000Y-115420000I0J-150000D01*
G01*
G37*
G36*
G01*
X132990000Y-116690000D02*
X132990000Y-116990000D01*
G75*
G02*
X132840000Y-117140000I-150000J0D01*
G01*
X131390000Y-117140000D01*
G75*
G02*
X131240000Y-116990000I0J150000D01*
G01*
X131240000Y-116690000D01*
G75*
G02*
X131390000Y-116540000I150000J0D01*
G01*
X132840000Y-116540000D01*
G75*
G02*
X132990000Y-116690000I0J-150000D01*
G01*
G37*
G36*
G01*
X132990000Y-117960000D02*
X132990000Y-118260000D01*
G75*
G02*
X132840000Y-118410000I-150000J0D01*
G01*
X131390000Y-118410000D01*
G75*
G02*
X131240000Y-118260000I0J150000D01*
G01*
X131240000Y-117960000D01*
G75*
G02*
X131390000Y-117810000I150000J0D01*
G01*
X132840000Y-117810000D01*
G75*
G02*
X132990000Y-117960000I0J-150000D01*
G01*
G37*
G36*
G01*
X115285000Y-118347500D02*
X115285000Y-117872500D01*
G75*
G02*
X115522500Y-117635000I237500J0D01*
G01*
X116097500Y-117635000D01*
G75*
G02*
X116335000Y-117872500I0J-237500D01*
G01*
X116335000Y-118347500D01*
G75*
G02*
X116097500Y-118585000I-237500J0D01*
G01*
X115522500Y-118585000D01*
G75*
G02*
X115285000Y-118347500I0J237500D01*
G01*
G37*
G36*
G01*
X113535000Y-118347500D02*
X113535000Y-117872500D01*
G75*
G02*
X113772500Y-117635000I237500J0D01*
G01*
X114347500Y-117635000D01*
G75*
G02*
X114585000Y-117872500I0J-237500D01*
G01*
X114585000Y-118347500D01*
G75*
G02*
X114347500Y-118585000I-237500J0D01*
G01*
X113772500Y-118585000D01*
G75*
G02*
X113535000Y-118347500I0J237500D01*
G01*
G37*
G36*
G01*
X111475000Y-118347500D02*
X111475000Y-117872500D01*
G75*
G02*
X111712500Y-117635000I237500J0D01*
G01*
X112287500Y-117635000D01*
G75*
G02*
X112525000Y-117872500I0J-237500D01*
G01*
X112525000Y-118347500D01*
G75*
G02*
X112287500Y-118585000I-237500J0D01*
G01*
X111712500Y-118585000D01*
G75*
G02*
X111475000Y-118347500I0J237500D01*
G01*
G37*
G36*
G01*
X109725000Y-118347500D02*
X109725000Y-117872500D01*
G75*
G02*
X109962500Y-117635000I237500J0D01*
G01*
X110537500Y-117635000D01*
G75*
G02*
X110775000Y-117872500I0J-237500D01*
G01*
X110775000Y-118347500D01*
G75*
G02*
X110537500Y-118585000I-237500J0D01*
G01*
X109962500Y-118585000D01*
G75*
G02*
X109725000Y-118347500I0J237500D01*
G01*
G37*
G36*
G01*
X160892500Y-136175000D02*
X160417500Y-136175000D01*
G75*
G02*
X160180000Y-135937500I0J237500D01*
G01*
X160180000Y-135362500D01*
G75*
G02*
X160417500Y-135125000I237500J0D01*
G01*
X160892500Y-135125000D01*
G75*
G02*
X161130000Y-135362500I0J-237500D01*
G01*
X161130000Y-135937500D01*
G75*
G02*
X160892500Y-136175000I-237500J0D01*
G01*
G37*
G36*
G01*
X160892500Y-137925000D02*
X160417500Y-137925000D01*
G75*
G02*
X160180000Y-137687500I0J237500D01*
G01*
X160180000Y-137112500D01*
G75*
G02*
X160417500Y-136875000I237500J0D01*
G01*
X160892500Y-136875000D01*
G75*
G02*
X161130000Y-137112500I0J-237500D01*
G01*
X161130000Y-137687500D01*
G75*
G02*
X160892500Y-137925000I-237500J0D01*
G01*
G37*
G36*
G01*
X164067500Y-136175000D02*
X163592500Y-136175000D01*
G75*
G02*
X163355000Y-135937500I0J237500D01*
G01*
X163355000Y-135362500D01*
G75*
G02*
X163592500Y-135125000I237500J0D01*
G01*
X164067500Y-135125000D01*
G75*
G02*
X164305000Y-135362500I0J-237500D01*
G01*
X164305000Y-135937500D01*
G75*
G02*
X164067500Y-136175000I-237500J0D01*
G01*
G37*
G36*
G01*
X164067500Y-137925000D02*
X163592500Y-137925000D01*
G75*
G02*
X163355000Y-137687500I0J237500D01*
G01*
X163355000Y-137112500D01*
G75*
G02*
X163592500Y-136875000I237500J0D01*
G01*
X164067500Y-136875000D01*
G75*
G02*
X164305000Y-137112500I0J-237500D01*
G01*
X164305000Y-137687500D01*
G75*
G02*
X164067500Y-137925000I-237500J0D01*
G01*
G37*
G36*
G01*
X160370000Y-123427500D02*
X160370000Y-122952500D01*
G75*
G02*
X160607500Y-122715000I237500J0D01*
G01*
X161182500Y-122715000D01*
G75*
G02*
X161420000Y-122952500I0J-237500D01*
G01*
X161420000Y-123427500D01*
G75*
G02*
X161182500Y-123665000I-237500J0D01*
G01*
X160607500Y-123665000D01*
G75*
G02*
X160370000Y-123427500I0J237500D01*
G01*
G37*
G36*
G01*
X158620000Y-123427500D02*
X158620000Y-122952500D01*
G75*
G02*
X158857500Y-122715000I237500J0D01*
G01*
X159432500Y-122715000D01*
G75*
G02*
X159670000Y-122952500I0J-237500D01*
G01*
X159670000Y-123427500D01*
G75*
G02*
X159432500Y-123665000I-237500J0D01*
G01*
X158857500Y-123665000D01*
G75*
G02*
X158620000Y-123427500I0J237500D01*
G01*
G37*
G36*
G01*
X163480000Y-131842500D02*
X163480000Y-132317500D01*
G75*
G02*
X163242500Y-132555000I-237500J0D01*
G01*
X162667500Y-132555000D01*
G75*
G02*
X162430000Y-132317500I0J237500D01*
G01*
X162430000Y-131842500D01*
G75*
G02*
X162667500Y-131605000I237500J0D01*
G01*
X163242500Y-131605000D01*
G75*
G02*
X163480000Y-131842500I0J-237500D01*
G01*
G37*
G36*
G01*
X165230000Y-131842500D02*
X165230000Y-132317500D01*
G75*
G02*
X164992500Y-132555000I-237500J0D01*
G01*
X164417500Y-132555000D01*
G75*
G02*
X164180000Y-132317500I0J237500D01*
G01*
X164180000Y-131842500D01*
G75*
G02*
X164417500Y-131605000I237500J0D01*
G01*
X164992500Y-131605000D01*
G75*
G02*
X165230000Y-131842500I0J-237500D01*
G01*
G37*
G36*
G01*
X159622500Y-115220000D02*
X159147500Y-115220000D01*
G75*
G02*
X158910000Y-114982500I0J237500D01*
G01*
X158910000Y-114407500D01*
G75*
G02*
X159147500Y-114170000I237500J0D01*
G01*
X159622500Y-114170000D01*
G75*
G02*
X159860000Y-114407500I0J-237500D01*
G01*
X159860000Y-114982500D01*
G75*
G02*
X159622500Y-115220000I-237500J0D01*
G01*
G37*
G36*
G01*
X159622500Y-116970000D02*
X159147500Y-116970000D01*
G75*
G02*
X158910000Y-116732500I0J237500D01*
G01*
X158910000Y-116157500D01*
G75*
G02*
X159147500Y-115920000I237500J0D01*
G01*
X159622500Y-115920000D01*
G75*
G02*
X159860000Y-116157500I0J-237500D01*
G01*
X159860000Y-116732500D01*
G75*
G02*
X159622500Y-116970000I-237500J0D01*
G01*
G37*
G36*
G01*
X157082500Y-115220000D02*
X156607500Y-115220000D01*
G75*
G02*
X156370000Y-114982500I0J237500D01*
G01*
X156370000Y-114407500D01*
G75*
G02*
X156607500Y-114170000I237500J0D01*
G01*
X157082500Y-114170000D01*
G75*
G02*
X157320000Y-114407500I0J-237500D01*
G01*
X157320000Y-114982500D01*
G75*
G02*
X157082500Y-115220000I-237500J0D01*
G01*
G37*
G36*
G01*
X157082500Y-116970000D02*
X156607500Y-116970000D01*
G75*
G02*
X156370000Y-116732500I0J237500D01*
G01*
X156370000Y-116157500D01*
G75*
G02*
X156607500Y-115920000I237500J0D01*
G01*
X157082500Y-115920000D01*
G75*
G02*
X157320000Y-116157500I0J-237500D01*
G01*
X157320000Y-116732500D01*
G75*
G02*
X157082500Y-116970000I-237500J0D01*
G01*
G37*
G36*
G01*
X154542500Y-115220000D02*
X154067500Y-115220000D01*
G75*
G02*
X153830000Y-114982500I0J237500D01*
G01*
X153830000Y-114407500D01*
G75*
G02*
X154067500Y-114170000I237500J0D01*
G01*
X154542500Y-114170000D01*
G75*
G02*
X154780000Y-114407500I0J-237500D01*
G01*
X154780000Y-114982500D01*
G75*
G02*
X154542500Y-115220000I-237500J0D01*
G01*
G37*
G36*
G01*
X154542500Y-116970000D02*
X154067500Y-116970000D01*
G75*
G02*
X153830000Y-116732500I0J237500D01*
G01*
X153830000Y-116157500D01*
G75*
G02*
X154067500Y-115920000I237500J0D01*
G01*
X154542500Y-115920000D01*
G75*
G02*
X154780000Y-116157500I0J-237500D01*
G01*
X154780000Y-116732500D01*
G75*
G02*
X154542500Y-116970000I-237500J0D01*
G01*
G37*
G36*
G01*
X152002500Y-115220000D02*
X151527500Y-115220000D01*
G75*
G02*
X151290000Y-114982500I0J237500D01*
G01*
X151290000Y-114407500D01*
G75*
G02*
X151527500Y-114170000I237500J0D01*
G01*
X152002500Y-114170000D01*
G75*
G02*
X152240000Y-114407500I0J-237500D01*
G01*
X152240000Y-114982500D01*
G75*
G02*
X152002500Y-115220000I-237500J0D01*
G01*
G37*
G36*
G01*
X152002500Y-116970000D02*
X151527500Y-116970000D01*
G75*
G02*
X151290000Y-116732500I0J237500D01*
G01*
X151290000Y-116157500D01*
G75*
G02*
X151527500Y-115920000I237500J0D01*
G01*
X152002500Y-115920000D01*
G75*
G02*
X152240000Y-116157500I0J-237500D01*
G01*
X152240000Y-116732500D01*
G75*
G02*
X152002500Y-116970000I-237500J0D01*
G01*
G37*
G36*
G01*
X149462500Y-115220000D02*
X148987500Y-115220000D01*
G75*
G02*
X148750000Y-114982500I0J237500D01*
G01*
X148750000Y-114407500D01*
G75*
G02*
X148987500Y-114170000I237500J0D01*
G01*
X149462500Y-114170000D01*
G75*
G02*
X149700000Y-114407500I0J-237500D01*
G01*
X149700000Y-114982500D01*
G75*
G02*
X149462500Y-115220000I-237500J0D01*
G01*
G37*
G36*
G01*
X149462500Y-116970000D02*
X148987500Y-116970000D01*
G75*
G02*
X148750000Y-116732500I0J237500D01*
G01*
X148750000Y-116157500D01*
G75*
G02*
X148987500Y-115920000I237500J0D01*
G01*
X149462500Y-115920000D01*
G75*
G02*
X149700000Y-116157500I0J-237500D01*
G01*
X149700000Y-116732500D01*
G75*
G02*
X149462500Y-116970000I-237500J0D01*
G01*
G37*
G36*
G01*
X146922500Y-115220000D02*
X146447500Y-115220000D01*
G75*
G02*
X146210000Y-114982500I0J237500D01*
G01*
X146210000Y-114407500D01*
G75*
G02*
X146447500Y-114170000I237500J0D01*
G01*
X146922500Y-114170000D01*
G75*
G02*
X147160000Y-114407500I0J-237500D01*
G01*
X147160000Y-114982500D01*
G75*
G02*
X146922500Y-115220000I-237500J0D01*
G01*
G37*
G36*
G01*
X146922500Y-116970000D02*
X146447500Y-116970000D01*
G75*
G02*
X146210000Y-116732500I0J237500D01*
G01*
X146210000Y-116157500D01*
G75*
G02*
X146447500Y-115920000I237500J0D01*
G01*
X146922500Y-115920000D01*
G75*
G02*
X147160000Y-116157500I0J-237500D01*
G01*
X147160000Y-116732500D01*
G75*
G02*
X146922500Y-116970000I-237500J0D01*
G01*
G37*
G36*
G01*
X182482500Y-115220000D02*
X182007500Y-115220000D01*
G75*
G02*
X181770000Y-114982500I0J237500D01*
G01*
X181770000Y-114407500D01*
G75*
G02*
X182007500Y-114170000I237500J0D01*
G01*
X182482500Y-114170000D01*
G75*
G02*
X182720000Y-114407500I0J-237500D01*
G01*
X182720000Y-114982500D01*
G75*
G02*
X182482500Y-115220000I-237500J0D01*
G01*
G37*
G36*
G01*
X182482500Y-116970000D02*
X182007500Y-116970000D01*
G75*
G02*
X181770000Y-116732500I0J237500D01*
G01*
X181770000Y-116157500D01*
G75*
G02*
X182007500Y-115920000I237500J0D01*
G01*
X182482500Y-115920000D01*
G75*
G02*
X182720000Y-116157500I0J-237500D01*
G01*
X182720000Y-116732500D01*
G75*
G02*
X182482500Y-116970000I-237500J0D01*
G01*
G37*
G36*
G01*
X179942500Y-115220000D02*
X179467500Y-115220000D01*
G75*
G02*
X179230000Y-114982500I0J237500D01*
G01*
X179230000Y-114407500D01*
G75*
G02*
X179467500Y-114170000I237500J0D01*
G01*
X179942500Y-114170000D01*
G75*
G02*
X180180000Y-114407500I0J-237500D01*
G01*
X180180000Y-114982500D01*
G75*
G02*
X179942500Y-115220000I-237500J0D01*
G01*
G37*
G36*
G01*
X179942500Y-116970000D02*
X179467500Y-116970000D01*
G75*
G02*
X179230000Y-116732500I0J237500D01*
G01*
X179230000Y-116157500D01*
G75*
G02*
X179467500Y-115920000I237500J0D01*
G01*
X179942500Y-115920000D01*
G75*
G02*
X180180000Y-116157500I0J-237500D01*
G01*
X180180000Y-116732500D01*
G75*
G02*
X179942500Y-116970000I-237500J0D01*
G01*
G37*
G36*
G01*
X177402500Y-115220000D02*
X176927500Y-115220000D01*
G75*
G02*
X176690000Y-114982500I0J237500D01*
G01*
X176690000Y-114407500D01*
G75*
G02*
X176927500Y-114170000I237500J0D01*
G01*
X177402500Y-114170000D01*
G75*
G02*
X177640000Y-114407500I0J-237500D01*
G01*
X177640000Y-114982500D01*
G75*
G02*
X177402500Y-115220000I-237500J0D01*
G01*
G37*
G36*
G01*
X177402500Y-116970000D02*
X176927500Y-116970000D01*
G75*
G02*
X176690000Y-116732500I0J237500D01*
G01*
X176690000Y-116157500D01*
G75*
G02*
X176927500Y-115920000I237500J0D01*
G01*
X177402500Y-115920000D01*
G75*
G02*
X177640000Y-116157500I0J-237500D01*
G01*
X177640000Y-116732500D01*
G75*
G02*
X177402500Y-116970000I-237500J0D01*
G01*
G37*
G36*
G01*
X174862500Y-115220000D02*
X174387500Y-115220000D01*
G75*
G02*
X174150000Y-114982500I0J237500D01*
G01*
X174150000Y-114407500D01*
G75*
G02*
X174387500Y-114170000I237500J0D01*
G01*
X174862500Y-114170000D01*
G75*
G02*
X175100000Y-114407500I0J-237500D01*
G01*
X175100000Y-114982500D01*
G75*
G02*
X174862500Y-115220000I-237500J0D01*
G01*
G37*
G36*
G01*
X174862500Y-116970000D02*
X174387500Y-116970000D01*
G75*
G02*
X174150000Y-116732500I0J237500D01*
G01*
X174150000Y-116157500D01*
G75*
G02*
X174387500Y-115920000I237500J0D01*
G01*
X174862500Y-115920000D01*
G75*
G02*
X175100000Y-116157500I0J-237500D01*
G01*
X175100000Y-116732500D01*
G75*
G02*
X174862500Y-116970000I-237500J0D01*
G01*
G37*
G36*
G01*
X172322500Y-115220000D02*
X171847500Y-115220000D01*
G75*
G02*
X171610000Y-114982500I0J237500D01*
G01*
X171610000Y-114407500D01*
G75*
G02*
X171847500Y-114170000I237500J0D01*
G01*
X172322500Y-114170000D01*
G75*
G02*
X172560000Y-114407500I0J-237500D01*
G01*
X172560000Y-114982500D01*
G75*
G02*
X172322500Y-115220000I-237500J0D01*
G01*
G37*
G36*
G01*
X172322500Y-116970000D02*
X171847500Y-116970000D01*
G75*
G02*
X171610000Y-116732500I0J237500D01*
G01*
X171610000Y-116157500D01*
G75*
G02*
X171847500Y-115920000I237500J0D01*
G01*
X172322500Y-115920000D01*
G75*
G02*
X172560000Y-116157500I0J-237500D01*
G01*
X172560000Y-116732500D01*
G75*
G02*
X172322500Y-116970000I-237500J0D01*
G01*
G37*
G36*
G01*
X169782500Y-115220000D02*
X169307500Y-115220000D01*
G75*
G02*
X169070000Y-114982500I0J237500D01*
G01*
X169070000Y-114407500D01*
G75*
G02*
X169307500Y-114170000I237500J0D01*
G01*
X169782500Y-114170000D01*
G75*
G02*
X170020000Y-114407500I0J-237500D01*
G01*
X170020000Y-114982500D01*
G75*
G02*
X169782500Y-115220000I-237500J0D01*
G01*
G37*
G36*
G01*
X169782500Y-116970000D02*
X169307500Y-116970000D01*
G75*
G02*
X169070000Y-116732500I0J237500D01*
G01*
X169070000Y-116157500D01*
G75*
G02*
X169307500Y-115920000I237500J0D01*
G01*
X169782500Y-115920000D01*
G75*
G02*
X170020000Y-116157500I0J-237500D01*
G01*
X170020000Y-116732500D01*
G75*
G02*
X169782500Y-116970000I-237500J0D01*
G01*
G37*
G36*
G01*
X159622500Y-108870000D02*
X159147500Y-108870000D01*
G75*
G02*
X158910000Y-108632500I0J237500D01*
G01*
X158910000Y-108057500D01*
G75*
G02*
X159147500Y-107820000I237500J0D01*
G01*
X159622500Y-107820000D01*
G75*
G02*
X159860000Y-108057500I0J-237500D01*
G01*
X159860000Y-108632500D01*
G75*
G02*
X159622500Y-108870000I-237500J0D01*
G01*
G37*
G36*
G01*
X159622500Y-110620000D02*
X159147500Y-110620000D01*
G75*
G02*
X158910000Y-110382500I0J237500D01*
G01*
X158910000Y-109807500D01*
G75*
G02*
X159147500Y-109570000I237500J0D01*
G01*
X159622500Y-109570000D01*
G75*
G02*
X159860000Y-109807500I0J-237500D01*
G01*
X159860000Y-110382500D01*
G75*
G02*
X159622500Y-110620000I-237500J0D01*
G01*
G37*
G36*
G01*
X157082500Y-108870000D02*
X156607500Y-108870000D01*
G75*
G02*
X156370000Y-108632500I0J237500D01*
G01*
X156370000Y-108057500D01*
G75*
G02*
X156607500Y-107820000I237500J0D01*
G01*
X157082500Y-107820000D01*
G75*
G02*
X157320000Y-108057500I0J-237500D01*
G01*
X157320000Y-108632500D01*
G75*
G02*
X157082500Y-108870000I-237500J0D01*
G01*
G37*
G36*
G01*
X157082500Y-110620000D02*
X156607500Y-110620000D01*
G75*
G02*
X156370000Y-110382500I0J237500D01*
G01*
X156370000Y-109807500D01*
G75*
G02*
X156607500Y-109570000I237500J0D01*
G01*
X157082500Y-109570000D01*
G75*
G02*
X157320000Y-109807500I0J-237500D01*
G01*
X157320000Y-110382500D01*
G75*
G02*
X157082500Y-110620000I-237500J0D01*
G01*
G37*
G36*
G01*
X154542500Y-108870000D02*
X154067500Y-108870000D01*
G75*
G02*
X153830000Y-108632500I0J237500D01*
G01*
X153830000Y-108057500D01*
G75*
G02*
X154067500Y-107820000I237500J0D01*
G01*
X154542500Y-107820000D01*
G75*
G02*
X154780000Y-108057500I0J-237500D01*
G01*
X154780000Y-108632500D01*
G75*
G02*
X154542500Y-108870000I-237500J0D01*
G01*
G37*
G36*
G01*
X154542500Y-110620000D02*
X154067500Y-110620000D01*
G75*
G02*
X153830000Y-110382500I0J237500D01*
G01*
X153830000Y-109807500D01*
G75*
G02*
X154067500Y-109570000I237500J0D01*
G01*
X154542500Y-109570000D01*
G75*
G02*
X154780000Y-109807500I0J-237500D01*
G01*
X154780000Y-110382500D01*
G75*
G02*
X154542500Y-110620000I-237500J0D01*
G01*
G37*
G36*
G01*
X152002500Y-108870000D02*
X151527500Y-108870000D01*
G75*
G02*
X151290000Y-108632500I0J237500D01*
G01*
X151290000Y-108057500D01*
G75*
G02*
X151527500Y-107820000I237500J0D01*
G01*
X152002500Y-107820000D01*
G75*
G02*
X152240000Y-108057500I0J-237500D01*
G01*
X152240000Y-108632500D01*
G75*
G02*
X152002500Y-108870000I-237500J0D01*
G01*
G37*
G36*
G01*
X152002500Y-110620000D02*
X151527500Y-110620000D01*
G75*
G02*
X151290000Y-110382500I0J237500D01*
G01*
X151290000Y-109807500D01*
G75*
G02*
X151527500Y-109570000I237500J0D01*
G01*
X152002500Y-109570000D01*
G75*
G02*
X152240000Y-109807500I0J-237500D01*
G01*
X152240000Y-110382500D01*
G75*
G02*
X152002500Y-110620000I-237500J0D01*
G01*
G37*
G36*
G01*
X149462500Y-108870000D02*
X148987500Y-108870000D01*
G75*
G02*
X148750000Y-108632500I0J237500D01*
G01*
X148750000Y-108057500D01*
G75*
G02*
X148987500Y-107820000I237500J0D01*
G01*
X149462500Y-107820000D01*
G75*
G02*
X149700000Y-108057500I0J-237500D01*
G01*
X149700000Y-108632500D01*
G75*
G02*
X149462500Y-108870000I-237500J0D01*
G01*
G37*
G36*
G01*
X149462500Y-110620000D02*
X148987500Y-110620000D01*
G75*
G02*
X148750000Y-110382500I0J237500D01*
G01*
X148750000Y-109807500D01*
G75*
G02*
X148987500Y-109570000I237500J0D01*
G01*
X149462500Y-109570000D01*
G75*
G02*
X149700000Y-109807500I0J-237500D01*
G01*
X149700000Y-110382500D01*
G75*
G02*
X149462500Y-110620000I-237500J0D01*
G01*
G37*
G36*
G01*
X146922500Y-108870000D02*
X146447500Y-108870000D01*
G75*
G02*
X146210000Y-108632500I0J237500D01*
G01*
X146210000Y-108057500D01*
G75*
G02*
X146447500Y-107820000I237500J0D01*
G01*
X146922500Y-107820000D01*
G75*
G02*
X147160000Y-108057500I0J-237500D01*
G01*
X147160000Y-108632500D01*
G75*
G02*
X146922500Y-108870000I-237500J0D01*
G01*
G37*
G36*
G01*
X146922500Y-110620000D02*
X146447500Y-110620000D01*
G75*
G02*
X146210000Y-110382500I0J237500D01*
G01*
X146210000Y-109807500D01*
G75*
G02*
X146447500Y-109570000I237500J0D01*
G01*
X146922500Y-109570000D01*
G75*
G02*
X147160000Y-109807500I0J-237500D01*
G01*
X147160000Y-110382500D01*
G75*
G02*
X146922500Y-110620000I-237500J0D01*
G01*
G37*
G36*
G01*
X182482500Y-108870000D02*
X182007500Y-108870000D01*
G75*
G02*
X181770000Y-108632500I0J237500D01*
G01*
X181770000Y-108057500D01*
G75*
G02*
X182007500Y-107820000I237500J0D01*
G01*
X182482500Y-107820000D01*
G75*
G02*
X182720000Y-108057500I0J-237500D01*
G01*
X182720000Y-108632500D01*
G75*
G02*
X182482500Y-108870000I-237500J0D01*
G01*
G37*
G36*
G01*
X182482500Y-110620000D02*
X182007500Y-110620000D01*
G75*
G02*
X181770000Y-110382500I0J237500D01*
G01*
X181770000Y-109807500D01*
G75*
G02*
X182007500Y-109570000I237500J0D01*
G01*
X182482500Y-109570000D01*
G75*
G02*
X182720000Y-109807500I0J-237500D01*
G01*
X182720000Y-110382500D01*
G75*
G02*
X182482500Y-110620000I-237500J0D01*
G01*
G37*
G36*
G01*
X179942500Y-108870000D02*
X179467500Y-108870000D01*
G75*
G02*
X179230000Y-108632500I0J237500D01*
G01*
X179230000Y-108057500D01*
G75*
G02*
X179467500Y-107820000I237500J0D01*
G01*
X179942500Y-107820000D01*
G75*
G02*
X180180000Y-108057500I0J-237500D01*
G01*
X180180000Y-108632500D01*
G75*
G02*
X179942500Y-108870000I-237500J0D01*
G01*
G37*
G36*
G01*
X179942500Y-110620000D02*
X179467500Y-110620000D01*
G75*
G02*
X179230000Y-110382500I0J237500D01*
G01*
X179230000Y-109807500D01*
G75*
G02*
X179467500Y-109570000I237500J0D01*
G01*
X179942500Y-109570000D01*
G75*
G02*
X180180000Y-109807500I0J-237500D01*
G01*
X180180000Y-110382500D01*
G75*
G02*
X179942500Y-110620000I-237500J0D01*
G01*
G37*
G36*
G01*
X177402500Y-108870000D02*
X176927500Y-108870000D01*
G75*
G02*
X176690000Y-108632500I0J237500D01*
G01*
X176690000Y-108057500D01*
G75*
G02*
X176927500Y-107820000I237500J0D01*
G01*
X177402500Y-107820000D01*
G75*
G02*
X177640000Y-108057500I0J-237500D01*
G01*
X177640000Y-108632500D01*
G75*
G02*
X177402500Y-108870000I-237500J0D01*
G01*
G37*
G36*
G01*
X177402500Y-110620000D02*
X176927500Y-110620000D01*
G75*
G02*
X176690000Y-110382500I0J237500D01*
G01*
X176690000Y-109807500D01*
G75*
G02*
X176927500Y-109570000I237500J0D01*
G01*
X177402500Y-109570000D01*
G75*
G02*
X177640000Y-109807500I0J-237500D01*
G01*
X177640000Y-110382500D01*
G75*
G02*
X177402500Y-110620000I-237500J0D01*
G01*
G37*
G36*
G01*
X174862500Y-108870000D02*
X174387500Y-108870000D01*
G75*
G02*
X174150000Y-108632500I0J237500D01*
G01*
X174150000Y-108057500D01*
G75*
G02*
X174387500Y-107820000I237500J0D01*
G01*
X174862500Y-107820000D01*
G75*
G02*
X175100000Y-108057500I0J-237500D01*
G01*
X175100000Y-108632500D01*
G75*
G02*
X174862500Y-108870000I-237500J0D01*
G01*
G37*
G36*
G01*
X174862500Y-110620000D02*
X174387500Y-110620000D01*
G75*
G02*
X174150000Y-110382500I0J237500D01*
G01*
X174150000Y-109807500D01*
G75*
G02*
X174387500Y-109570000I237500J0D01*
G01*
X174862500Y-109570000D01*
G75*
G02*
X175100000Y-109807500I0J-237500D01*
G01*
X175100000Y-110382500D01*
G75*
G02*
X174862500Y-110620000I-237500J0D01*
G01*
G37*
G36*
G01*
X172322500Y-108870000D02*
X171847500Y-108870000D01*
G75*
G02*
X171610000Y-108632500I0J237500D01*
G01*
X171610000Y-108057500D01*
G75*
G02*
X171847500Y-107820000I237500J0D01*
G01*
X172322500Y-107820000D01*
G75*
G02*
X172560000Y-108057500I0J-237500D01*
G01*
X172560000Y-108632500D01*
G75*
G02*
X172322500Y-108870000I-237500J0D01*
G01*
G37*
G36*
G01*
X172322500Y-110620000D02*
X171847500Y-110620000D01*
G75*
G02*
X171610000Y-110382500I0J237500D01*
G01*
X171610000Y-109807500D01*
G75*
G02*
X171847500Y-109570000I237500J0D01*
G01*
X172322500Y-109570000D01*
G75*
G02*
X172560000Y-109807500I0J-237500D01*
G01*
X172560000Y-110382500D01*
G75*
G02*
X172322500Y-110620000I-237500J0D01*
G01*
G37*
G36*
G01*
X169782500Y-108870000D02*
X169307500Y-108870000D01*
G75*
G02*
X169070000Y-108632500I0J237500D01*
G01*
X169070000Y-108057500D01*
G75*
G02*
X169307500Y-107820000I237500J0D01*
G01*
X169782500Y-107820000D01*
G75*
G02*
X170020000Y-108057500I0J-237500D01*
G01*
X170020000Y-108632500D01*
G75*
G02*
X169782500Y-108870000I-237500J0D01*
G01*
G37*
G36*
G01*
X169782500Y-110620000D02*
X169307500Y-110620000D01*
G75*
G02*
X169070000Y-110382500I0J237500D01*
G01*
X169070000Y-109807500D01*
G75*
G02*
X169307500Y-109570000I237500J0D01*
G01*
X169782500Y-109570000D01*
G75*
G02*
X170020000Y-109807500I0J-237500D01*
G01*
X170020000Y-110382500D01*
G75*
G02*
X169782500Y-110620000I-237500J0D01*
G01*
G37*
G36*
G01*
X143907500Y-109570000D02*
X144382500Y-109570000D01*
G75*
G02*
X144620000Y-109807500I0J-237500D01*
G01*
X144620000Y-110382500D01*
G75*
G02*
X144382500Y-110620000I-237500J0D01*
G01*
X143907500Y-110620000D01*
G75*
G02*
X143670000Y-110382500I0J237500D01*
G01*
X143670000Y-109807500D01*
G75*
G02*
X143907500Y-109570000I237500J0D01*
G01*
G37*
G36*
G01*
X143907500Y-107820000D02*
X144382500Y-107820000D01*
G75*
G02*
X144620000Y-108057500I0J-237500D01*
G01*
X144620000Y-108632500D01*
G75*
G02*
X144382500Y-108870000I-237500J0D01*
G01*
X143907500Y-108870000D01*
G75*
G02*
X143670000Y-108632500I0J237500D01*
G01*
X143670000Y-108057500D01*
G75*
G02*
X143907500Y-107820000I237500J0D01*
G01*
G37*
G36*
G01*
X166767500Y-109570000D02*
X167242500Y-109570000D01*
G75*
G02*
X167480000Y-109807500I0J-237500D01*
G01*
X167480000Y-110382500D01*
G75*
G02*
X167242500Y-110620000I-237500J0D01*
G01*
X166767500Y-110620000D01*
G75*
G02*
X166530000Y-110382500I0J237500D01*
G01*
X166530000Y-109807500D01*
G75*
G02*
X166767500Y-109570000I237500J0D01*
G01*
G37*
G36*
G01*
X166767500Y-107820000D02*
X167242500Y-107820000D01*
G75*
G02*
X167480000Y-108057500I0J-237500D01*
G01*
X167480000Y-108632500D01*
G75*
G02*
X167242500Y-108870000I-237500J0D01*
G01*
X166767500Y-108870000D01*
G75*
G02*
X166530000Y-108632500I0J237500D01*
G01*
X166530000Y-108057500D01*
G75*
G02*
X166767500Y-107820000I237500J0D01*
G01*
G37*
G36*
G01*
X122905000Y-108822500D02*
X122905000Y-108347500D01*
G75*
G02*
X123142500Y-108110000I237500J0D01*
G01*
X123717500Y-108110000D01*
G75*
G02*
X123955000Y-108347500I0J-237500D01*
G01*
X123955000Y-108822500D01*
G75*
G02*
X123717500Y-109060000I-237500J0D01*
G01*
X123142500Y-109060000D01*
G75*
G02*
X122905000Y-108822500I0J237500D01*
G01*
G37*
G36*
G01*
X121155000Y-108822500D02*
X121155000Y-108347500D01*
G75*
G02*
X121392500Y-108110000I237500J0D01*
G01*
X121967500Y-108110000D01*
G75*
G02*
X122205000Y-108347500I0J-237500D01*
G01*
X122205000Y-108822500D01*
G75*
G02*
X121967500Y-109060000I-237500J0D01*
G01*
X121392500Y-109060000D01*
G75*
G02*
X121155000Y-108822500I0J237500D01*
G01*
G37*
G36*
G01*
X126015000Y-108347500D02*
X126015000Y-108822500D01*
G75*
G02*
X125777500Y-109060000I-237500J0D01*
G01*
X125202500Y-109060000D01*
G75*
G02*
X124965000Y-108822500I0J237500D01*
G01*
X124965000Y-108347500D01*
G75*
G02*
X125202500Y-108110000I237500J0D01*
G01*
X125777500Y-108110000D01*
G75*
G02*
X126015000Y-108347500I0J-237500D01*
G01*
G37*
G36*
G01*
X127765000Y-108347500D02*
X127765000Y-108822500D01*
G75*
G02*
X127527500Y-109060000I-237500J0D01*
G01*
X126952500Y-109060000D01*
G75*
G02*
X126715000Y-108822500I0J237500D01*
G01*
X126715000Y-108347500D01*
G75*
G02*
X126952500Y-108110000I237500J0D01*
G01*
X127527500Y-108110000D01*
G75*
G02*
X127765000Y-108347500I0J-237500D01*
G01*
G37*
D10*
X152905000Y-137160000D03*
X155705000Y-137160000D03*
X155705000Y-133985000D03*
X152905000Y-133985000D03*
X170945000Y-137160000D03*
X168145000Y-137160000D03*
X168145000Y-133985000D03*
X170945000Y-133985000D03*
G36*
G01*
X113380000Y-129777500D02*
X113380000Y-129302500D01*
G75*
G02*
X113617500Y-129065000I237500J0D01*
G01*
X114192500Y-129065000D01*
G75*
G02*
X114430000Y-129302500I0J-237500D01*
G01*
X114430000Y-129777500D01*
G75*
G02*
X114192500Y-130015000I-237500J0D01*
G01*
X113617500Y-130015000D01*
G75*
G02*
X113380000Y-129777500I0J237500D01*
G01*
G37*
G36*
G01*
X111630000Y-129777500D02*
X111630000Y-129302500D01*
G75*
G02*
X111867500Y-129065000I237500J0D01*
G01*
X112442500Y-129065000D01*
G75*
G02*
X112680000Y-129302500I0J-237500D01*
G01*
X112680000Y-129777500D01*
G75*
G02*
X112442500Y-130015000I-237500J0D01*
G01*
X111867500Y-130015000D01*
G75*
G02*
X111630000Y-129777500I0J237500D01*
G01*
G37*
G36*
G01*
X115285000Y-115172500D02*
X115285000Y-114697500D01*
G75*
G02*
X115522500Y-114460000I237500J0D01*
G01*
X116097500Y-114460000D01*
G75*
G02*
X116335000Y-114697500I0J-237500D01*
G01*
X116335000Y-115172500D01*
G75*
G02*
X116097500Y-115410000I-237500J0D01*
G01*
X115522500Y-115410000D01*
G75*
G02*
X115285000Y-115172500I0J237500D01*
G01*
G37*
G36*
G01*
X113535000Y-115172500D02*
X113535000Y-114697500D01*
G75*
G02*
X113772500Y-114460000I237500J0D01*
G01*
X114347500Y-114460000D01*
G75*
G02*
X114585000Y-114697500I0J-237500D01*
G01*
X114585000Y-115172500D01*
G75*
G02*
X114347500Y-115410000I-237500J0D01*
G01*
X113772500Y-115410000D01*
G75*
G02*
X113535000Y-115172500I0J237500D01*
G01*
G37*
G36*
G01*
X111475000Y-115172500D02*
X111475000Y-114697500D01*
G75*
G02*
X111712500Y-114460000I237500J0D01*
G01*
X112287500Y-114460000D01*
G75*
G02*
X112525000Y-114697500I0J-237500D01*
G01*
X112525000Y-115172500D01*
G75*
G02*
X112287500Y-115410000I-237500J0D01*
G01*
X111712500Y-115410000D01*
G75*
G02*
X111475000Y-115172500I0J237500D01*
G01*
G37*
G36*
G01*
X109725000Y-115172500D02*
X109725000Y-114697500D01*
G75*
G02*
X109962500Y-114460000I237500J0D01*
G01*
X110537500Y-114460000D01*
G75*
G02*
X110775000Y-114697500I0J-237500D01*
G01*
X110775000Y-115172500D01*
G75*
G02*
X110537500Y-115410000I-237500J0D01*
G01*
X109962500Y-115410000D01*
G75*
G02*
X109725000Y-115172500I0J237500D01*
G01*
G37*
G36*
G01*
X109727500Y-121570000D02*
X109252500Y-121570000D01*
G75*
G02*
X109015000Y-121332500I0J237500D01*
G01*
X109015000Y-120757500D01*
G75*
G02*
X109252500Y-120520000I237500J0D01*
G01*
X109727500Y-120520000D01*
G75*
G02*
X109965000Y-120757500I0J-237500D01*
G01*
X109965000Y-121332500D01*
G75*
G02*
X109727500Y-121570000I-237500J0D01*
G01*
G37*
G36*
G01*
X109727500Y-123320000D02*
X109252500Y-123320000D01*
G75*
G02*
X109015000Y-123082500I0J237500D01*
G01*
X109015000Y-122507500D01*
G75*
G02*
X109252500Y-122270000I237500J0D01*
G01*
X109727500Y-122270000D01*
G75*
G02*
X109965000Y-122507500I0J-237500D01*
G01*
X109965000Y-123082500D01*
G75*
G02*
X109727500Y-123320000I-237500J0D01*
G01*
G37*
G36*
G01*
X118347500Y-125380000D02*
X117872500Y-125380000D01*
G75*
G02*
X117635000Y-125142500I0J237500D01*
G01*
X117635000Y-124567500D01*
G75*
G02*
X117872500Y-124330000I237500J0D01*
G01*
X118347500Y-124330000D01*
G75*
G02*
X118585000Y-124567500I0J-237500D01*
G01*
X118585000Y-125142500D01*
G75*
G02*
X118347500Y-125380000I-237500J0D01*
G01*
G37*
G36*
G01*
X118347500Y-127130000D02*
X117872500Y-127130000D01*
G75*
G02*
X117635000Y-126892500I0J237500D01*
G01*
X117635000Y-126317500D01*
G75*
G02*
X117872500Y-126080000I237500J0D01*
G01*
X118347500Y-126080000D01*
G75*
G02*
X118585000Y-126317500I0J-237500D01*
G01*
X118585000Y-126892500D01*
G75*
G02*
X118347500Y-127130000I-237500J0D01*
G01*
G37*
G36*
G01*
X164180000Y-123427500D02*
X164180000Y-122952500D01*
G75*
G02*
X164417500Y-122715000I237500J0D01*
G01*
X164992500Y-122715000D01*
G75*
G02*
X165230000Y-122952500I0J-237500D01*
G01*
X165230000Y-123427500D01*
G75*
G02*
X164992500Y-123665000I-237500J0D01*
G01*
X164417500Y-123665000D01*
G75*
G02*
X164180000Y-123427500I0J237500D01*
G01*
G37*
G36*
G01*
X162430000Y-123427500D02*
X162430000Y-122952500D01*
G75*
G02*
X162667500Y-122715000I237500J0D01*
G01*
X163242500Y-122715000D01*
G75*
G02*
X163480000Y-122952500I0J-237500D01*
G01*
X163480000Y-123427500D01*
G75*
G02*
X163242500Y-123665000I-237500J0D01*
G01*
X162667500Y-123665000D01*
G75*
G02*
X162430000Y-123427500I0J237500D01*
G01*
G37*
G36*
G01*
X160370000Y-132317500D02*
X160370000Y-131842500D01*
G75*
G02*
X160607500Y-131605000I237500J0D01*
G01*
X161182500Y-131605000D01*
G75*
G02*
X161420000Y-131842500I0J-237500D01*
G01*
X161420000Y-132317500D01*
G75*
G02*
X161182500Y-132555000I-237500J0D01*
G01*
X160607500Y-132555000D01*
G75*
G02*
X160370000Y-132317500I0J237500D01*
G01*
G37*
G36*
G01*
X158620000Y-132317500D02*
X158620000Y-131842500D01*
G75*
G02*
X158857500Y-131605000I237500J0D01*
G01*
X159432500Y-131605000D01*
G75*
G02*
X159670000Y-131842500I0J-237500D01*
G01*
X159670000Y-132317500D01*
G75*
G02*
X159432500Y-132555000I-237500J0D01*
G01*
X158857500Y-132555000D01*
G75*
G02*
X158620000Y-132317500I0J237500D01*
G01*
G37*
G36*
G01*
X131795000Y-111997500D02*
X131795000Y-111522500D01*
G75*
G02*
X132032500Y-111285000I237500J0D01*
G01*
X132607500Y-111285000D01*
G75*
G02*
X132845000Y-111522500I0J-237500D01*
G01*
X132845000Y-111997500D01*
G75*
G02*
X132607500Y-112235000I-237500J0D01*
G01*
X132032500Y-112235000D01*
G75*
G02*
X131795000Y-111997500I0J237500D01*
G01*
G37*
G36*
G01*
X130045000Y-111997500D02*
X130045000Y-111522500D01*
G75*
G02*
X130282500Y-111285000I237500J0D01*
G01*
X130857500Y-111285000D01*
G75*
G02*
X131095000Y-111522500I0J-237500D01*
G01*
X131095000Y-111997500D01*
G75*
G02*
X130857500Y-112235000I-237500J0D01*
G01*
X130282500Y-112235000D01*
G75*
G02*
X130045000Y-111997500I0J237500D01*
G01*
G37*
G36*
G01*
X127985000Y-120887500D02*
X127985000Y-120412500D01*
G75*
G02*
X128222500Y-120175000I237500J0D01*
G01*
X128797500Y-120175000D01*
G75*
G02*
X129035000Y-120412500I0J-237500D01*
G01*
X129035000Y-120887500D01*
G75*
G02*
X128797500Y-121125000I-237500J0D01*
G01*
X128222500Y-121125000D01*
G75*
G02*
X127985000Y-120887500I0J237500D01*
G01*
G37*
G36*
G01*
X126235000Y-120887500D02*
X126235000Y-120412500D01*
G75*
G02*
X126472500Y-120175000I237500J0D01*
G01*
X127047500Y-120175000D01*
G75*
G02*
X127285000Y-120412500I0J-237500D01*
G01*
X127285000Y-120887500D01*
G75*
G02*
X127047500Y-121125000I-237500J0D01*
G01*
X126472500Y-121125000D01*
G75*
G02*
X126235000Y-120887500I0J237500D01*
G01*
G37*
G36*
G01*
X112745000Y-111362500D02*
X112745000Y-110887500D01*
G75*
G02*
X112982500Y-110650000I237500J0D01*
G01*
X113557500Y-110650000D01*
G75*
G02*
X113795000Y-110887500I0J-237500D01*
G01*
X113795000Y-111362500D01*
G75*
G02*
X113557500Y-111600000I-237500J0D01*
G01*
X112982500Y-111600000D01*
G75*
G02*
X112745000Y-111362500I0J237500D01*
G01*
G37*
G36*
G01*
X110995000Y-111362500D02*
X110995000Y-110887500D01*
G75*
G02*
X111232500Y-110650000I237500J0D01*
G01*
X111807500Y-110650000D01*
G75*
G02*
X112045000Y-110887500I0J-237500D01*
G01*
X112045000Y-111362500D01*
G75*
G02*
X111807500Y-111600000I-237500J0D01*
G01*
X111232500Y-111600000D01*
G75*
G02*
X110995000Y-111362500I0J237500D01*
G01*
G37*
G36*
G01*
X142920000Y-136287500D02*
X142920000Y-136762500D01*
G75*
G02*
X142682500Y-137000000I-237500J0D01*
G01*
X142107500Y-137000000D01*
G75*
G02*
X141870000Y-136762500I0J237500D01*
G01*
X141870000Y-136287500D01*
G75*
G02*
X142107500Y-136050000I237500J0D01*
G01*
X142682500Y-136050000D01*
G75*
G02*
X142920000Y-136287500I0J-237500D01*
G01*
G37*
G36*
G01*
X144670000Y-136287500D02*
X144670000Y-136762500D01*
G75*
G02*
X144432500Y-137000000I-237500J0D01*
G01*
X143857500Y-137000000D01*
G75*
G02*
X143620000Y-136762500I0J237500D01*
G01*
X143620000Y-136287500D01*
G75*
G02*
X143857500Y-136050000I237500J0D01*
G01*
X144432500Y-136050000D01*
G75*
G02*
X144670000Y-136287500I0J-237500D01*
G01*
G37*
G36*
G01*
X142920000Y-122317500D02*
X142920000Y-122792500D01*
G75*
G02*
X142682500Y-123030000I-237500J0D01*
G01*
X142107500Y-123030000D01*
G75*
G02*
X141870000Y-122792500I0J237500D01*
G01*
X141870000Y-122317500D01*
G75*
G02*
X142107500Y-122080000I237500J0D01*
G01*
X142682500Y-122080000D01*
G75*
G02*
X142920000Y-122317500I0J-237500D01*
G01*
G37*
G36*
G01*
X144670000Y-122317500D02*
X144670000Y-122792500D01*
G75*
G02*
X144432500Y-123030000I-237500J0D01*
G01*
X143857500Y-123030000D01*
G75*
G02*
X143620000Y-122792500I0J237500D01*
G01*
X143620000Y-122317500D01*
G75*
G02*
X143857500Y-122080000I237500J0D01*
G01*
X144432500Y-122080000D01*
G75*
G02*
X144670000Y-122317500I0J-237500D01*
G01*
G37*
G36*
G01*
X127285000Y-111522500D02*
X127285000Y-111997500D01*
G75*
G02*
X127047500Y-112235000I-237500J0D01*
G01*
X126472500Y-112235000D01*
G75*
G02*
X126235000Y-111997500I0J237500D01*
G01*
X126235000Y-111522500D01*
G75*
G02*
X126472500Y-111285000I237500J0D01*
G01*
X127047500Y-111285000D01*
G75*
G02*
X127285000Y-111522500I0J-237500D01*
G01*
G37*
G36*
G01*
X129035000Y-111522500D02*
X129035000Y-111997500D01*
G75*
G02*
X128797500Y-112235000I-237500J0D01*
G01*
X128222500Y-112235000D01*
G75*
G02*
X127985000Y-111997500I0J237500D01*
G01*
X127985000Y-111522500D01*
G75*
G02*
X128222500Y-111285000I237500J0D01*
G01*
X128797500Y-111285000D01*
G75*
G02*
X129035000Y-111522500I0J-237500D01*
G01*
G37*
G36*
G01*
X131795000Y-120887500D02*
X131795000Y-120412500D01*
G75*
G02*
X132032500Y-120175000I237500J0D01*
G01*
X132607500Y-120175000D01*
G75*
G02*
X132845000Y-120412500I0J-237500D01*
G01*
X132845000Y-120887500D01*
G75*
G02*
X132607500Y-121125000I-237500J0D01*
G01*
X132032500Y-121125000D01*
G75*
G02*
X131795000Y-120887500I0J237500D01*
G01*
G37*
G36*
G01*
X130045000Y-120887500D02*
X130045000Y-120412500D01*
G75*
G02*
X130282500Y-120175000I237500J0D01*
G01*
X130857500Y-120175000D01*
G75*
G02*
X131095000Y-120412500I0J-237500D01*
G01*
X131095000Y-120887500D01*
G75*
G02*
X130857500Y-121125000I-237500J0D01*
G01*
X130282500Y-121125000D01*
G75*
G02*
X130045000Y-120887500I0J237500D01*
G01*
G37*
G36*
G01*
X177845000Y-135762500D02*
X177845000Y-136237500D01*
G75*
G02*
X177607500Y-136475000I-237500J0D01*
G01*
X177032500Y-136475000D01*
G75*
G02*
X176795000Y-136237500I0J237500D01*
G01*
X176795000Y-135762500D01*
G75*
G02*
X177032500Y-135525000I237500J0D01*
G01*
X177607500Y-135525000D01*
G75*
G02*
X177845000Y-135762500I0J-237500D01*
G01*
G37*
G36*
G01*
X179595000Y-135762500D02*
X179595000Y-136237500D01*
G75*
G02*
X179357500Y-136475000I-237500J0D01*
G01*
X178782500Y-136475000D01*
G75*
G02*
X178545000Y-136237500I0J237500D01*
G01*
X178545000Y-135762500D01*
G75*
G02*
X178782500Y-135525000I237500J0D01*
G01*
X179357500Y-135525000D01*
G75*
G02*
X179595000Y-135762500I0J-237500D01*
G01*
G37*
G36*
G01*
X177845000Y-121682500D02*
X177845000Y-122157500D01*
G75*
G02*
X177607500Y-122395000I-237500J0D01*
G01*
X177032500Y-122395000D01*
G75*
G02*
X176795000Y-122157500I0J237500D01*
G01*
X176795000Y-121682500D01*
G75*
G02*
X177032500Y-121445000I237500J0D01*
G01*
X177607500Y-121445000D01*
G75*
G02*
X177845000Y-121682500I0J-237500D01*
G01*
G37*
G36*
G01*
X179595000Y-121682500D02*
X179595000Y-122157500D01*
G75*
G02*
X179357500Y-122395000I-237500J0D01*
G01*
X178782500Y-122395000D01*
G75*
G02*
X178545000Y-122157500I0J237500D01*
G01*
X178545000Y-121682500D01*
G75*
G02*
X178782500Y-121445000I237500J0D01*
G01*
X179357500Y-121445000D01*
G75*
G02*
X179595000Y-121682500I0J-237500D01*
G01*
G37*
M02*
